<?xml version="1.0" encoding="utf-8" standalone="no"?>
<!DOCTYPE svg PUBLIC "-//W3C//DTD SVG 1.1//EN"
  "http://www.w3.org/Graphics/SVG/1.1/DTD/svg11.dtd">
<svg xmlns:xlink="http://www.w3.org/1999/xlink" width="432pt" height="216pt" viewBox="0 0 432 216" xmlns="http://www.w3.org/2000/svg" version="1.1">
 <metadata>
  <rdf:RDF xmlns:dc="http://purl.org/dc/elements/1.1/" xmlns:cc="http://creativecommons.org/ns#" xmlns:rdf="http://www.w3.org/1999/02/22-rdf-syntax-ns#">
   <cc:Work>
    <dc:type rdf:resource="http://purl.org/dc/dcmitype/StillImage"/>
    <dc:date>2024-06-19T16:03:52.031906</dc:date>
    <dc:format>image/svg+xml</dc:format>
    <dc:creator>
     <cc:Agent>
      <dc:title>Matplotlib v3.9.0, https://matplotlib.org/</dc:title>
     </cc:Agent>
    </dc:creator>
   </cc:Work>
  </rdf:RDF>
 </metadata>
 <defs>
  <style type="text/css">*{stroke-linejoin: round; stroke-linecap: butt}</style>
 </defs>
 <g id="figure_1">
  <g id="patch_1">
   <path d="M 0 216 
L 432 216 
L 432 0 
L 0 0 
z
" style="fill: #ffffff"/>
  </g>
  <g id="axes_1">
   <g id="patch_2">
    <path d="M 44.57 174.04 
L 421.2 174.04 
L 421.2 28.32 
L 44.57 28.32 
z
" style="fill: #ffffff"/>
   </g>
   <g id="patch_3">
    <path d="M 111.07354 174.04 
L 111.946617 174.04 
L 111.946617 35.259048 
L 111.07354 35.259048 
z
" clip-path="url(#pc63fcf7c2d)" style="fill: #1f77b4; opacity: 0.25"/>
   </g>
   <g id="patch_4">
    <path d="M 111.946617 174.04 
L 112.819694 174.04 
L 112.819694 47.571893 
L 111.946617 47.571893 
z
" clip-path="url(#pc63fcf7c2d)" style="fill: #1f77b4; opacity: 0.25"/>
   </g>
   <g id="patch_5">
    <path d="M 112.819694 174.04 
L 113.69277 174.04 
L 113.69277 58.366717 
L 112.819694 58.366717 
z
" clip-path="url(#pc63fcf7c2d)" style="fill: #1f77b4; opacity: 0.25"/>
   </g>
   <g id="patch_6">
    <path d="M 113.69277 174.04 
L 114.565847 174.04 
L 114.565847 65.349619 
L 113.69277 65.349619 
z
" clip-path="url(#pc63fcf7c2d)" style="fill: #1f77b4; opacity: 0.25"/>
   </g>
   <g id="patch_7">
    <path d="M 114.565847 174.04 
L 115.438924 174.04 
L 115.438924 73.108398 
L 114.565847 73.108398 
z
" clip-path="url(#pc63fcf7c2d)" style="fill: #1f77b4; opacity: 0.25"/>
   </g>
   <g id="patch_8">
    <path d="M 115.438924 174.04 
L 116.312001 174.04 
L 116.312001 86.399525 
L 115.438924 86.399525 
z
" clip-path="url(#pc63fcf7c2d)" style="fill: #1f77b4; opacity: 0.25"/>
   </g>
   <g id="patch_9">
    <path d="M 116.312001 174.04 
L 117.185077 174.04 
L 117.185077 91.796937 
L 116.312001 91.796937 
z
" clip-path="url(#pc63fcf7c2d)" style="fill: #1f77b4; opacity: 0.25"/>
   </g>
   <g id="patch_10">
    <path d="M 117.185077 174.04 
L 118.058154 174.04 
L 118.058154 98.644903 
L 117.185077 98.644903 
z
" clip-path="url(#pc63fcf7c2d)" style="fill: #1f77b4; opacity: 0.25"/>
   </g>
   <g id="patch_11">
    <path d="M 118.058154 174.04 
L 118.931231 174.04 
L 118.931231 105.425402 
L 118.058154 105.425402 
z
" clip-path="url(#pc63fcf7c2d)" style="fill: #1f77b4; opacity: 0.25"/>
   </g>
   <g id="patch_12">
    <path d="M 118.931231 174.04 
L 119.804308 174.04 
L 119.804308 110.114403 
L 118.931231 110.114403 
z
" clip-path="url(#pc63fcf7c2d)" style="fill: #1f77b4; opacity: 0.25"/>
   </g>
   <g id="patch_13">
    <path d="M 119.804308 174.04 
L 120.677384 174.04 
L 120.677384 115.916621 
L 119.804308 115.916621 
z
" clip-path="url(#pc63fcf7c2d)" style="fill: #1f77b4; opacity: 0.25"/>
   </g>
   <g id="patch_14">
    <path d="M 120.677384 174.04 
L 121.550461 174.04 
L 121.550461 123.540465 
L 120.677384 123.540465 
z
" clip-path="url(#pc63fcf7c2d)" style="fill: #1f77b4; opacity: 0.25"/>
   </g>
   <g id="patch_15">
    <path d="M 121.550461 174.04 
L 122.423538 174.04 
L 122.423538 126.947582 
L 121.550461 126.947582 
z
" clip-path="url(#pc63fcf7c2d)" style="fill: #1f77b4; opacity: 0.25"/>
   </g>
   <g id="patch_16">
    <path d="M 122.423538 174.04 
L 123.296615 174.04 
L 123.296615 129.410151 
L 122.423538 129.410151 
z
" clip-path="url(#pc63fcf7c2d)" style="fill: #1f77b4; opacity: 0.25"/>
   </g>
   <g id="patch_17">
    <path d="M 123.296615 174.04 
L 124.169691 174.04 
L 124.169691 136.291851 
L 123.296615 136.291851 
z
" clip-path="url(#pc63fcf7c2d)" style="fill: #1f77b4; opacity: 0.25"/>
   </g>
   <g id="patch_18">
    <path d="M 124.169691 174.04 
L 125.042768 174.04 
L 125.042768 139.024291 
L 124.169691 139.024291 
z
" clip-path="url(#pc63fcf7c2d)" style="fill: #1f77b4; opacity: 0.25"/>
   </g>
   <g id="patch_19">
    <path d="M 125.042768 174.04 
L 125.915845 174.04 
L 125.915845 143.173551 
L 125.042768 143.173551 
z
" clip-path="url(#pc63fcf7c2d)" style="fill: #1f77b4; opacity: 0.25"/>
   </g>
   <g id="patch_20">
    <path d="M 125.915845 174.04 
L 126.788922 174.04 
L 126.788922 144.522904 
L 125.915845 144.522904 
z
" clip-path="url(#pc63fcf7c2d)" style="fill: #1f77b4; opacity: 0.25"/>
   </g>
   <g id="patch_21">
    <path d="M 126.788922 174.04 
L 127.661999 174.04 
L 127.661999 149.481776 
L 126.788922 149.481776 
z
" clip-path="url(#pc63fcf7c2d)" style="fill: #1f77b4; opacity: 0.25"/>
   </g>
   <g id="patch_22">
    <path d="M 127.661999 174.04 
L 128.535075 174.04 
L 128.535075 151.101 
L 127.661999 151.101 
z
" clip-path="url(#pc63fcf7c2d)" style="fill: #1f77b4; opacity: 0.25"/>
   </g>
   <g id="patch_23">
    <path d="M 286.436546 174.04 
L 288.988489 174.04 
L 288.988489 135.619694 
L 286.436546 135.619694 
z
" clip-path="url(#pc63fcf7c2d)" style="fill: #ff7f0e; opacity: 0.25"/>
   </g>
   <g id="patch_24">
    <path d="M 288.988489 174.04 
L 291.540432 174.04 
L 291.540432 136.369865 
L 288.988489 136.369865 
z
" clip-path="url(#pc63fcf7c2d)" style="fill: #ff7f0e; opacity: 0.25"/>
   </g>
   <g id="patch_25">
    <path d="M 291.540432 174.04 
L 294.092375 174.04 
L 294.092375 139.739865 
L 291.540432 139.739865 
z
" clip-path="url(#pc63fcf7c2d)" style="fill: #ff7f0e; opacity: 0.25"/>
   </g>
   <g id="patch_26">
    <path d="M 294.092375 174.04 
L 296.644318 174.04 
L 296.644318 141.113255 
L 294.092375 141.113255 
z
" clip-path="url(#pc63fcf7c2d)" style="fill: #ff7f0e; opacity: 0.25"/>
   </g>
   <g id="patch_27">
    <path d="M 296.644318 174.04 
L 299.196261 174.04 
L 299.196261 142.890584 
L 296.644318 142.890584 
z
" clip-path="url(#pc63fcf7c2d)" style="fill: #ff7f0e; opacity: 0.25"/>
   </g>
   <g id="patch_28">
    <path d="M 299.196261 174.04 
L 301.748204 174.04 
L 301.748204 144.021611 
L 299.196261 144.021611 
z
" clip-path="url(#pc63fcf7c2d)" style="fill: #ff7f0e; opacity: 0.25"/>
   </g>
   <g id="patch_29">
    <path d="M 301.748204 174.04 
L 304.300147 174.04 
L 304.300147 145.752775 
L 301.748204 145.752775 
z
" clip-path="url(#pc63fcf7c2d)" style="fill: #ff7f0e; opacity: 0.25"/>
   </g>
   <g id="patch_30">
    <path d="M 304.300147 174.04 
L 306.85209 174.04 
L 306.85209 148.072536 
L 304.300147 148.072536 
z
" clip-path="url(#pc63fcf7c2d)" style="fill: #ff7f0e; opacity: 0.25"/>
   </g>
   <g id="patch_31">
    <path d="M 306.85209 174.04 
L 309.404033 174.04 
L 309.404033 149.896029 
L 306.85209 149.896029 
z
" clip-path="url(#pc63fcf7c2d)" style="fill: #ff7f0e; opacity: 0.25"/>
   </g>
   <g id="patch_32">
    <path d="M 309.404033 174.04 
L 311.955976 174.04 
L 311.955976 151.292501 
L 309.404033 151.292501 
z
" clip-path="url(#pc63fcf7c2d)" style="fill: #ff7f0e; opacity: 0.25"/>
   </g>
   <g id="patch_33">
    <path d="M 311.955976 174.04 
L 314.507919 174.04 
L 314.507919 152.712056 
L 311.955976 152.712056 
z
" clip-path="url(#pc63fcf7c2d)" style="fill: #ff7f0e; opacity: 0.25"/>
   </g>
   <g id="patch_34">
    <path d="M 314.507919 174.04 
L 317.059862 174.04 
L 317.059862 154.477843 
L 314.507919 154.477843 
z
" clip-path="url(#pc63fcf7c2d)" style="fill: #ff7f0e; opacity: 0.25"/>
   </g>
   <g id="patch_35">
    <path d="M 317.059862 174.04 
L 319.611805 174.04 
L 319.611805 154.604795 
L 317.059862 154.604795 
z
" clip-path="url(#pc63fcf7c2d)" style="fill: #ff7f0e; opacity: 0.25"/>
   </g>
   <g id="patch_36">
    <path d="M 319.611805 174.04 
L 322.163748 174.04 
L 322.163748 156.786063 
L 319.611805 156.786063 
z
" clip-path="url(#pc63fcf7c2d)" style="fill: #ff7f0e; opacity: 0.25"/>
   </g>
   <g id="patch_37">
    <path d="M 322.163748 174.04 
L 324.715691 174.04 
L 324.715691 158.75959 
L 322.163748 158.75959 
z
" clip-path="url(#pc63fcf7c2d)" style="fill: #ff7f0e; opacity: 0.25"/>
   </g>
   <g id="patch_38">
    <path d="M 324.715691 174.04 
L 327.267634 174.04 
L 327.267634 158.632638 
L 324.715691 158.632638 
z
" clip-path="url(#pc63fcf7c2d)" style="fill: #ff7f0e; opacity: 0.25"/>
   </g>
   <g id="patch_39">
    <path d="M 327.267634 174.04 
L 329.819577 174.04 
L 329.819577 160.87161 
L 327.267634 160.87161 
z
" clip-path="url(#pc63fcf7c2d)" style="fill: #ff7f0e; opacity: 0.25"/>
   </g>
   <g id="patch_40">
    <path d="M 329.819577 174.04 
L 332.371521 174.04 
L 332.371521 162.245001 
L 329.819577 162.245001 
z
" clip-path="url(#pc63fcf7c2d)" style="fill: #ff7f0e; opacity: 0.25"/>
   </g>
   <g id="patch_41">
    <path d="M 332.371521 174.04 
L 334.923464 174.04 
L 334.923464 162.048802 
L 332.371521 162.048802 
z
" clip-path="url(#pc63fcf7c2d)" style="fill: #ff7f0e; opacity: 0.25"/>
   </g>
   <g id="patch_42">
    <path d="M 334.923464 174.04 
L 337.475407 174.04 
L 337.475407 163.249076 
L 334.923464 163.249076 
z
" clip-path="url(#pc63fcf7c2d)" style="fill: #ff7f0e; opacity: 0.25"/>
   </g>
   <g id="patch_43">
    <path d="M 331.373616 174.04 
L 335.680313 174.04 
L 335.680313 158.48879 
L 331.373616 158.48879 
z
" clip-path="url(#pc63fcf7c2d)" style="fill: #2ca02c; opacity: 0.25"/>
   </g>
   <g id="patch_44">
    <path d="M 335.680313 174.04 
L 339.987009 174.04 
L 339.987009 157.216791 
L 335.680313 157.216791 
z
" clip-path="url(#pc63fcf7c2d)" style="fill: #2ca02c; opacity: 0.25"/>
   </g>
   <g id="patch_45">
    <path d="M 339.987009 174.04 
L 344.293706 174.04 
L 344.293706 155.254084 
L 339.987009 155.254084 
z
" clip-path="url(#pc63fcf7c2d)" style="fill: #2ca02c; opacity: 0.25"/>
   </g>
   <g id="patch_46">
    <path d="M 344.293706 174.04 
L 348.600403 174.04 
L 348.600403 154.884794 
L 344.293706 154.884794 
z
" clip-path="url(#pc63fcf7c2d)" style="fill: #2ca02c; opacity: 0.25"/>
   </g>
   <g id="patch_47">
    <path d="M 348.600403 174.04 
L 352.907099 174.04 
L 352.907099 154.830084 
L 348.600403 154.830084 
z
" clip-path="url(#pc63fcf7c2d)" style="fill: #2ca02c; opacity: 0.25"/>
   </g>
   <g id="patch_48">
    <path d="M 352.907099 174.04 
L 357.213796 174.04 
L 357.213796 154.091504 
L 352.907099 154.091504 
z
" clip-path="url(#pc63fcf7c2d)" style="fill: #2ca02c; opacity: 0.25"/>
   </g>
   <g id="patch_49">
    <path d="M 357.213796 174.04 
L 361.520493 174.04 
L 361.520493 154.433439 
L 357.213796 154.433439 
z
" clip-path="url(#pc63fcf7c2d)" style="fill: #2ca02c; opacity: 0.25"/>
   </g>
   <g id="patch_50">
    <path d="M 361.520493 174.04 
L 365.827189 174.04 
L 365.827189 153.804279 
L 361.520493 153.804279 
z
" clip-path="url(#pc63fcf7c2d)" style="fill: #2ca02c; opacity: 0.25"/>
   </g>
   <g id="patch_51">
    <path d="M 365.827189 174.04 
L 370.133886 174.04 
L 370.133886 155.014729 
L 365.827189 155.014729 
z
" clip-path="url(#pc63fcf7c2d)" style="fill: #2ca02c; opacity: 0.25"/>
   </g>
   <g id="patch_52">
    <path d="M 370.133886 174.04 
L 374.440583 174.04 
L 374.440583 155.814857 
L 370.133886 155.814857 
z
" clip-path="url(#pc63fcf7c2d)" style="fill: #2ca02c; opacity: 0.25"/>
   </g>
   <g id="patch_53">
    <path d="M 374.440583 174.04 
L 378.747279 174.04 
L 378.747279 157.49034 
L 374.440583 157.49034 
z
" clip-path="url(#pc63fcf7c2d)" style="fill: #2ca02c; opacity: 0.25"/>
   </g>
   <g id="patch_54">
    <path d="M 378.747279 174.04 
L 383.053976 174.04 
L 383.053976 159.370983 
L 378.747279 159.370983 
z
" clip-path="url(#pc63fcf7c2d)" style="fill: #2ca02c; opacity: 0.25"/>
   </g>
   <g id="patch_55">
    <path d="M 383.053976 174.04 
L 387.360672 174.04 
L 387.360672 160.70453 
L 383.053976 160.70453 
z
" clip-path="url(#pc63fcf7c2d)" style="fill: #2ca02c; opacity: 0.25"/>
   </g>
   <g id="patch_56">
    <path d="M 387.360672 174.04 
L 391.667369 174.04 
L 391.667369 162.65356 
L 387.360672 162.65356 
z
" clip-path="url(#pc63fcf7c2d)" style="fill: #2ca02c; opacity: 0.25"/>
   </g>
   <g id="patch_57">
    <path d="M 391.667369 174.04 
L 395.974066 174.04 
L 395.974066 164.623106 
L 391.667369 164.623106 
z
" clip-path="url(#pc63fcf7c2d)" style="fill: #2ca02c; opacity: 0.25"/>
   </g>
   <g id="patch_58">
    <path d="M 395.974066 174.04 
L 400.280762 174.04 
L 400.280762 167.044007 
L 395.974066 167.044007 
z
" clip-path="url(#pc63fcf7c2d)" style="fill: #2ca02c; opacity: 0.25"/>
   </g>
   <g id="patch_59">
    <path d="M 400.280762 174.04 
L 404.587459 174.04 
L 404.587459 168.719489 
L 400.280762 168.719489 
z
" clip-path="url(#pc63fcf7c2d)" style="fill: #2ca02c; opacity: 0.25"/>
   </g>
   <g id="patch_60">
    <path d="M 404.587459 174.04 
L 408.894156 174.04 
L 408.894156 170.094069 
L 404.587459 170.094069 
z
" clip-path="url(#pc63fcf7c2d)" style="fill: #2ca02c; opacity: 0.25"/>
   </g>
   <g id="patch_61">
    <path d="M 408.894156 174.04 
L 413.200852 174.04 
L 413.200852 170.948906 
L 408.894156 170.948906 
z
" clip-path="url(#pc63fcf7c2d)" style="fill: #2ca02c; opacity: 0.25"/>
   </g>
   <g id="patch_62">
    <path d="M 413.200852 174.04 
L 417.507549 174.04 
L 417.507549 171.769551 
L 413.200852 171.769551 
z
" clip-path="url(#pc63fcf7c2d)" style="fill: #2ca02c; opacity: 0.25"/>
   </g>
   <g id="matplotlib.axis_1">
    <g id="xtick_1">
     <g id="line2d_1">
      <defs>
       <path id="m18430e2e12" d="M 0 0 
L 0 3.5 
" style="stroke: #000000; stroke-width: 0.8"/>
      </defs>
      <g>
       <use xlink:href="#m18430e2e12" x="48.262451" y="174.04" style="stroke: #000000; stroke-width: 0.8"/>
      </g>
     </g>
     <g id="text_1">
      <!-- 0.0 -->
      <g transform="translate(40.310888 188.638438) scale(0.1 -0.1)">
       <defs>
        <path id="DejaVuSans-30" d="M 2034 4250 
Q 1547 4250 1301 3770 
Q 1056 3291 1056 2328 
Q 1056 1369 1301 889 
Q 1547 409 2034 409 
Q 2525 409 2770 889 
Q 3016 1369 3016 2328 
Q 3016 3291 2770 3770 
Q 2525 4250 2034 4250 
z
M 2034 4750 
Q 2819 4750 3233 4129 
Q 3647 3509 3647 2328 
Q 3647 1150 3233 529 
Q 2819 -91 2034 -91 
Q 1250 -91 836 529 
Q 422 1150 422 2328 
Q 422 3509 836 4129 
Q 1250 4750 2034 4750 
z
" transform="scale(0.015625)"/>
        <path id="DejaVuSans-2e" d="M 684 794 
L 1344 794 
L 1344 0 
L 684 0 
L 684 794 
z
" transform="scale(0.015625)"/>
       </defs>
       <use xlink:href="#DejaVuSans-30"/>
       <use xlink:href="#DejaVuSans-2e" x="63.623047"/>
       <use xlink:href="#DejaVuSans-30" x="95.410156"/>
      </g>
     </g>
    </g>
    <g id="xtick_2">
     <g id="line2d_2">
      <g>
       <use xlink:href="#m18430e2e12" x="92.58488" y="174.04" style="stroke: #000000; stroke-width: 0.8"/>
      </g>
     </g>
     <g id="text_2">
      <!-- 0.1 -->
      <g transform="translate(84.633317 188.638438) scale(0.1 -0.1)">
       <defs>
        <path id="DejaVuSans-31" d="M 794 531 
L 1825 531 
L 1825 4091 
L 703 3866 
L 703 4441 
L 1819 4666 
L 2450 4666 
L 2450 531 
L 3481 531 
L 3481 0 
L 794 0 
L 794 531 
z
" transform="scale(0.015625)"/>
       </defs>
       <use xlink:href="#DejaVuSans-30"/>
       <use xlink:href="#DejaVuSans-2e" x="63.623047"/>
       <use xlink:href="#DejaVuSans-31" x="95.410156"/>
      </g>
     </g>
    </g>
    <g id="xtick_3">
     <g id="line2d_3">
      <g>
       <use xlink:href="#m18430e2e12" x="136.907308" y="174.04" style="stroke: #000000; stroke-width: 0.8"/>
      </g>
     </g>
     <g id="text_3">
      <!-- 0.2 -->
      <g transform="translate(128.955746 188.638438) scale(0.1 -0.1)">
       <defs>
        <path id="DejaVuSans-32" d="M 1228 531 
L 3431 531 
L 3431 0 
L 469 0 
L 469 531 
Q 828 903 1448 1529 
Q 2069 2156 2228 2338 
Q 2531 2678 2651 2914 
Q 2772 3150 2772 3378 
Q 2772 3750 2511 3984 
Q 2250 4219 1831 4219 
Q 1534 4219 1204 4116 
Q 875 4013 500 3803 
L 500 4441 
Q 881 4594 1212 4672 
Q 1544 4750 1819 4750 
Q 2544 4750 2975 4387 
Q 3406 4025 3406 3419 
Q 3406 3131 3298 2873 
Q 3191 2616 2906 2266 
Q 2828 2175 2409 1742 
Q 1991 1309 1228 531 
z
" transform="scale(0.015625)"/>
       </defs>
       <use xlink:href="#DejaVuSans-30"/>
       <use xlink:href="#DejaVuSans-2e" x="63.623047"/>
       <use xlink:href="#DejaVuSans-32" x="95.410156"/>
      </g>
     </g>
    </g>
    <g id="xtick_4">
     <g id="line2d_4">
      <g>
       <use xlink:href="#m18430e2e12" x="181.229737" y="174.04" style="stroke: #000000; stroke-width: 0.8"/>
      </g>
     </g>
     <g id="text_4">
      <!-- 0.3 -->
      <g transform="translate(173.278175 188.638438) scale(0.1 -0.1)">
       <defs>
        <path id="DejaVuSans-33" d="M 2597 2516 
Q 3050 2419 3304 2112 
Q 3559 1806 3559 1356 
Q 3559 666 3084 287 
Q 2609 -91 1734 -91 
Q 1441 -91 1130 -33 
Q 819 25 488 141 
L 488 750 
Q 750 597 1062 519 
Q 1375 441 1716 441 
Q 2309 441 2620 675 
Q 2931 909 2931 1356 
Q 2931 1769 2642 2001 
Q 2353 2234 1838 2234 
L 1294 2234 
L 1294 2753 
L 1863 2753 
Q 2328 2753 2575 2939 
Q 2822 3125 2822 3475 
Q 2822 3834 2567 4026 
Q 2313 4219 1838 4219 
Q 1578 4219 1281 4162 
Q 984 4106 628 3988 
L 628 4550 
Q 988 4650 1302 4700 
Q 1616 4750 1894 4750 
Q 2613 4750 3031 4423 
Q 3450 4097 3450 3541 
Q 3450 3153 3228 2886 
Q 3006 2619 2597 2516 
z
" transform="scale(0.015625)"/>
       </defs>
       <use xlink:href="#DejaVuSans-30"/>
       <use xlink:href="#DejaVuSans-2e" x="63.623047"/>
       <use xlink:href="#DejaVuSans-33" x="95.410156"/>
      </g>
     </g>
    </g>
    <g id="xtick_5">
     <g id="line2d_5">
      <g>
       <use xlink:href="#m18430e2e12" x="225.552166" y="174.04" style="stroke: #000000; stroke-width: 0.8"/>
      </g>
     </g>
     <g id="text_5">
      <!-- 0.4 -->
      <g transform="translate(217.600603 188.638438) scale(0.1 -0.1)">
       <defs>
        <path id="DejaVuSans-34" d="M 2419 4116 
L 825 1625 
L 2419 1625 
L 2419 4116 
z
M 2253 4666 
L 3047 4666 
L 3047 1625 
L 3713 1625 
L 3713 1100 
L 3047 1100 
L 3047 0 
L 2419 0 
L 2419 1100 
L 313 1100 
L 313 1709 
L 2253 4666 
z
" transform="scale(0.015625)"/>
       </defs>
       <use xlink:href="#DejaVuSans-30"/>
       <use xlink:href="#DejaVuSans-2e" x="63.623047"/>
       <use xlink:href="#DejaVuSans-34" x="95.410156"/>
      </g>
     </g>
    </g>
    <g id="xtick_6">
     <g id="line2d_6">
      <g>
       <use xlink:href="#m18430e2e12" x="269.874594" y="174.04" style="stroke: #000000; stroke-width: 0.8"/>
      </g>
     </g>
     <g id="text_6">
      <!-- 0.5 -->
      <g transform="translate(261.923032 188.638438) scale(0.1 -0.1)">
       <defs>
        <path id="DejaVuSans-35" d="M 691 4666 
L 3169 4666 
L 3169 4134 
L 1269 4134 
L 1269 2991 
Q 1406 3038 1543 3061 
Q 1681 3084 1819 3084 
Q 2600 3084 3056 2656 
Q 3513 2228 3513 1497 
Q 3513 744 3044 326 
Q 2575 -91 1722 -91 
Q 1428 -91 1123 -41 
Q 819 9 494 109 
L 494 744 
Q 775 591 1075 516 
Q 1375 441 1709 441 
Q 2250 441 2565 725 
Q 2881 1009 2881 1497 
Q 2881 1984 2565 2268 
Q 2250 2553 1709 2553 
Q 1456 2553 1204 2497 
Q 953 2441 691 2322 
L 691 4666 
z
" transform="scale(0.015625)"/>
       </defs>
       <use xlink:href="#DejaVuSans-30"/>
       <use xlink:href="#DejaVuSans-2e" x="63.623047"/>
       <use xlink:href="#DejaVuSans-35" x="95.410156"/>
      </g>
     </g>
    </g>
    <g id="xtick_7">
     <g id="line2d_7">
      <g>
       <use xlink:href="#m18430e2e12" x="314.197023" y="174.04" style="stroke: #000000; stroke-width: 0.8"/>
      </g>
     </g>
     <g id="text_7">
      <!-- 0.6 -->
      <g transform="translate(306.245461 188.638438) scale(0.1 -0.1)">
       <defs>
        <path id="DejaVuSans-36" d="M 2113 2584 
Q 1688 2584 1439 2293 
Q 1191 2003 1191 1497 
Q 1191 994 1439 701 
Q 1688 409 2113 409 
Q 2538 409 2786 701 
Q 3034 994 3034 1497 
Q 3034 2003 2786 2293 
Q 2538 2584 2113 2584 
z
M 3366 4563 
L 3366 3988 
Q 3128 4100 2886 4159 
Q 2644 4219 2406 4219 
Q 1781 4219 1451 3797 
Q 1122 3375 1075 2522 
Q 1259 2794 1537 2939 
Q 1816 3084 2150 3084 
Q 2853 3084 3261 2657 
Q 3669 2231 3669 1497 
Q 3669 778 3244 343 
Q 2819 -91 2113 -91 
Q 1303 -91 875 529 
Q 447 1150 447 2328 
Q 447 3434 972 4092 
Q 1497 4750 2381 4750 
Q 2619 4750 2861 4703 
Q 3103 4656 3366 4563 
z
" transform="scale(0.015625)"/>
       </defs>
       <use xlink:href="#DejaVuSans-30"/>
       <use xlink:href="#DejaVuSans-2e" x="63.623047"/>
       <use xlink:href="#DejaVuSans-36" x="95.410156"/>
      </g>
     </g>
    </g>
    <g id="xtick_8">
     <g id="line2d_8">
      <g>
       <use xlink:href="#m18430e2e12" x="358.519452" y="174.04" style="stroke: #000000; stroke-width: 0.8"/>
      </g>
     </g>
     <g id="text_8">
      <!-- 0.7 -->
      <g transform="translate(350.567889 188.638438) scale(0.1 -0.1)">
       <defs>
        <path id="DejaVuSans-37" d="M 525 4666 
L 3525 4666 
L 3525 4397 
L 1831 0 
L 1172 0 
L 2766 4134 
L 525 4134 
L 525 4666 
z
" transform="scale(0.015625)"/>
       </defs>
       <use xlink:href="#DejaVuSans-30"/>
       <use xlink:href="#DejaVuSans-2e" x="63.623047"/>
       <use xlink:href="#DejaVuSans-37" x="95.410156"/>
      </g>
     </g>
    </g>
    <g id="xtick_9">
     <g id="line2d_9">
      <g>
       <use xlink:href="#m18430e2e12" x="402.841881" y="174.04" style="stroke: #000000; stroke-width: 0.8"/>
      </g>
     </g>
     <g id="text_9">
      <!-- 0.8 -->
      <g transform="translate(394.890318 188.638438) scale(0.1 -0.1)">
       <defs>
        <path id="DejaVuSans-38" d="M 2034 2216 
Q 1584 2216 1326 1975 
Q 1069 1734 1069 1313 
Q 1069 891 1326 650 
Q 1584 409 2034 409 
Q 2484 409 2743 651 
Q 3003 894 3003 1313 
Q 3003 1734 2745 1975 
Q 2488 2216 2034 2216 
z
M 1403 2484 
Q 997 2584 770 2862 
Q 544 3141 544 3541 
Q 544 4100 942 4425 
Q 1341 4750 2034 4750 
Q 2731 4750 3128 4425 
Q 3525 4100 3525 3541 
Q 3525 3141 3298 2862 
Q 3072 2584 2669 2484 
Q 3125 2378 3379 2068 
Q 3634 1759 3634 1313 
Q 3634 634 3220 271 
Q 2806 -91 2034 -91 
Q 1263 -91 848 271 
Q 434 634 434 1313 
Q 434 1759 690 2068 
Q 947 2378 1403 2484 
z
M 1172 3481 
Q 1172 3119 1398 2916 
Q 1625 2713 2034 2713 
Q 2441 2713 2670 2916 
Q 2900 3119 2900 3481 
Q 2900 3844 2670 4047 
Q 2441 4250 2034 4250 
Q 1625 4250 1398 4047 
Q 1172 3844 1172 3481 
z
" transform="scale(0.015625)"/>
       </defs>
       <use xlink:href="#DejaVuSans-30"/>
       <use xlink:href="#DejaVuSans-2e" x="63.623047"/>
       <use xlink:href="#DejaVuSans-38" x="95.410156"/>
      </g>
     </g>
    </g>
    <g id="text_10">
     <!-- growth rate [1/h] -->
     <g transform="translate(190.220156 202.316563) scale(0.1 -0.1)">
      <defs>
       <path id="DejaVuSans-67" d="M 2906 1791 
Q 2906 2416 2648 2759 
Q 2391 3103 1925 3103 
Q 1463 3103 1205 2759 
Q 947 2416 947 1791 
Q 947 1169 1205 825 
Q 1463 481 1925 481 
Q 2391 481 2648 825 
Q 2906 1169 2906 1791 
z
M 3481 434 
Q 3481 -459 3084 -895 
Q 2688 -1331 1869 -1331 
Q 1566 -1331 1297 -1286 
Q 1028 -1241 775 -1147 
L 775 -588 
Q 1028 -725 1275 -790 
Q 1522 -856 1778 -856 
Q 2344 -856 2625 -561 
Q 2906 -266 2906 331 
L 2906 616 
Q 2728 306 2450 153 
Q 2172 0 1784 0 
Q 1141 0 747 490 
Q 353 981 353 1791 
Q 353 2603 747 3093 
Q 1141 3584 1784 3584 
Q 2172 3584 2450 3431 
Q 2728 3278 2906 2969 
L 2906 3500 
L 3481 3500 
L 3481 434 
z
" transform="scale(0.015625)"/>
       <path id="DejaVuSans-72" d="M 2631 2963 
Q 2534 3019 2420 3045 
Q 2306 3072 2169 3072 
Q 1681 3072 1420 2755 
Q 1159 2438 1159 1844 
L 1159 0 
L 581 0 
L 581 3500 
L 1159 3500 
L 1159 2956 
Q 1341 3275 1631 3429 
Q 1922 3584 2338 3584 
Q 2397 3584 2469 3576 
Q 2541 3569 2628 3553 
L 2631 2963 
z
" transform="scale(0.015625)"/>
       <path id="DejaVuSans-6f" d="M 1959 3097 
Q 1497 3097 1228 2736 
Q 959 2375 959 1747 
Q 959 1119 1226 758 
Q 1494 397 1959 397 
Q 2419 397 2687 759 
Q 2956 1122 2956 1747 
Q 2956 2369 2687 2733 
Q 2419 3097 1959 3097 
z
M 1959 3584 
Q 2709 3584 3137 3096 
Q 3566 2609 3566 1747 
Q 3566 888 3137 398 
Q 2709 -91 1959 -91 
Q 1206 -91 779 398 
Q 353 888 353 1747 
Q 353 2609 779 3096 
Q 1206 3584 1959 3584 
z
" transform="scale(0.015625)"/>
       <path id="DejaVuSans-77" d="M 269 3500 
L 844 3500 
L 1563 769 
L 2278 3500 
L 2956 3500 
L 3675 769 
L 4391 3500 
L 4966 3500 
L 4050 0 
L 3372 0 
L 2619 2869 
L 1863 0 
L 1184 0 
L 269 3500 
z
" transform="scale(0.015625)"/>
       <path id="DejaVuSans-74" d="M 1172 4494 
L 1172 3500 
L 2356 3500 
L 2356 3053 
L 1172 3053 
L 1172 1153 
Q 1172 725 1289 603 
Q 1406 481 1766 481 
L 2356 481 
L 2356 0 
L 1766 0 
Q 1100 0 847 248 
Q 594 497 594 1153 
L 594 3053 
L 172 3053 
L 172 3500 
L 594 3500 
L 594 4494 
L 1172 4494 
z
" transform="scale(0.015625)"/>
       <path id="DejaVuSans-68" d="M 3513 2113 
L 3513 0 
L 2938 0 
L 2938 2094 
Q 2938 2591 2744 2837 
Q 2550 3084 2163 3084 
Q 1697 3084 1428 2787 
Q 1159 2491 1159 1978 
L 1159 0 
L 581 0 
L 581 4863 
L 1159 4863 
L 1159 2956 
Q 1366 3272 1645 3428 
Q 1925 3584 2291 3584 
Q 2894 3584 3203 3211 
Q 3513 2838 3513 2113 
z
" transform="scale(0.015625)"/>
       <path id="DejaVuSans-20" transform="scale(0.015625)"/>
       <path id="DejaVuSans-61" d="M 2194 1759 
Q 1497 1759 1228 1600 
Q 959 1441 959 1056 
Q 959 750 1161 570 
Q 1363 391 1709 391 
Q 2188 391 2477 730 
Q 2766 1069 2766 1631 
L 2766 1759 
L 2194 1759 
z
M 3341 1997 
L 3341 0 
L 2766 0 
L 2766 531 
Q 2569 213 2275 61 
Q 1981 -91 1556 -91 
Q 1019 -91 701 211 
Q 384 513 384 1019 
Q 384 1609 779 1909 
Q 1175 2209 1959 2209 
L 2766 2209 
L 2766 2266 
Q 2766 2663 2505 2880 
Q 2244 3097 1772 3097 
Q 1472 3097 1187 3025 
Q 903 2953 641 2809 
L 641 3341 
Q 956 3463 1253 3523 
Q 1550 3584 1831 3584 
Q 2591 3584 2966 3190 
Q 3341 2797 3341 1997 
z
" transform="scale(0.015625)"/>
       <path id="DejaVuSans-65" d="M 3597 1894 
L 3597 1613 
L 953 1613 
Q 991 1019 1311 708 
Q 1631 397 2203 397 
Q 2534 397 2845 478 
Q 3156 559 3463 722 
L 3463 178 
Q 3153 47 2828 -22 
Q 2503 -91 2169 -91 
Q 1331 -91 842 396 
Q 353 884 353 1716 
Q 353 2575 817 3079 
Q 1281 3584 2069 3584 
Q 2775 3584 3186 3129 
Q 3597 2675 3597 1894 
z
M 3022 2063 
Q 3016 2534 2758 2815 
Q 2500 3097 2075 3097 
Q 1594 3097 1305 2825 
Q 1016 2553 972 2059 
L 3022 2063 
z
" transform="scale(0.015625)"/>
       <path id="DejaVuSans-5b" d="M 550 4863 
L 1875 4863 
L 1875 4416 
L 1125 4416 
L 1125 -397 
L 1875 -397 
L 1875 -844 
L 550 -844 
L 550 4863 
z
" transform="scale(0.015625)"/>
       <path id="DejaVuSans-2f" d="M 1625 4666 
L 2156 4666 
L 531 -594 
L 0 -594 
L 1625 4666 
z
" transform="scale(0.015625)"/>
       <path id="DejaVuSans-5d" d="M 1947 4863 
L 1947 -844 
L 622 -844 
L 622 -397 
L 1369 -397 
L 1369 4416 
L 622 4416 
L 622 4863 
L 1947 4863 
z
" transform="scale(0.015625)"/>
      </defs>
      <use xlink:href="#DejaVuSans-67"/>
      <use xlink:href="#DejaVuSans-72" x="63.476562"/>
      <use xlink:href="#DejaVuSans-6f" x="102.339844"/>
      <use xlink:href="#DejaVuSans-77" x="163.521484"/>
      <use xlink:href="#DejaVuSans-74" x="245.308594"/>
      <use xlink:href="#DejaVuSans-68" x="284.517578"/>
      <use xlink:href="#DejaVuSans-20" x="347.896484"/>
      <use xlink:href="#DejaVuSans-72" x="379.683594"/>
      <use xlink:href="#DejaVuSans-61" x="420.796875"/>
      <use xlink:href="#DejaVuSans-74" x="482.076172"/>
      <use xlink:href="#DejaVuSans-65" x="521.285156"/>
      <use xlink:href="#DejaVuSans-20" x="582.808594"/>
      <use xlink:href="#DejaVuSans-5b" x="614.595703"/>
      <use xlink:href="#DejaVuSans-31" x="653.609375"/>
      <use xlink:href="#DejaVuSans-2f" x="717.232422"/>
      <use xlink:href="#DejaVuSans-68" x="750.923828"/>
      <use xlink:href="#DejaVuSans-5d" x="814.302734"/>
     </g>
    </g>
   </g>
   <g id="matplotlib.axis_2">
    <g id="ytick_1">
     <g id="line2d_10">
      <defs>
       <path id="m6bca21f45c" d="M 0 0 
L -3.5 0 
" style="stroke: #000000; stroke-width: 0.8"/>
      </defs>
      <g>
       <use xlink:href="#m6bca21f45c" x="44.57" y="174.04" style="stroke: #000000; stroke-width: 0.8"/>
      </g>
     </g>
     <g id="text_11">
      <!-- 0 -->
      <g transform="translate(31.2075 177.839219) scale(0.1 -0.1)">
       <use xlink:href="#DejaVuSans-30"/>
      </g>
     </g>
    </g>
    <g id="ytick_2">
     <g id="line2d_11">
      <g>
       <use xlink:href="#m6bca21f45c" x="44.57" y="147.460032" style="stroke: #000000; stroke-width: 0.8"/>
      </g>
     </g>
     <g id="text_12">
      <!-- 10 -->
      <g transform="translate(24.845 151.259251) scale(0.1 -0.1)">
       <use xlink:href="#DejaVuSans-31"/>
       <use xlink:href="#DejaVuSans-30" x="63.623047"/>
      </g>
     </g>
    </g>
    <g id="ytick_3">
     <g id="line2d_12">
      <g>
       <use xlink:href="#m6bca21f45c" x="44.57" y="120.880065" style="stroke: #000000; stroke-width: 0.8"/>
      </g>
     </g>
     <g id="text_13">
      <!-- 20 -->
      <g transform="translate(24.845 124.679284) scale(0.1 -0.1)">
       <use xlink:href="#DejaVuSans-32"/>
       <use xlink:href="#DejaVuSans-30" x="63.623047"/>
      </g>
     </g>
    </g>
    <g id="ytick_4">
     <g id="line2d_13">
      <g>
       <use xlink:href="#m6bca21f45c" x="44.57" y="94.300097" style="stroke: #000000; stroke-width: 0.8"/>
      </g>
     </g>
     <g id="text_14">
      <!-- 30 -->
      <g transform="translate(24.845 98.099316) scale(0.1 -0.1)">
       <use xlink:href="#DejaVuSans-33"/>
       <use xlink:href="#DejaVuSans-30" x="63.623047"/>
      </g>
     </g>
    </g>
    <g id="ytick_5">
     <g id="line2d_14">
      <g>
       <use xlink:href="#m6bca21f45c" x="44.57" y="67.72013" style="stroke: #000000; stroke-width: 0.8"/>
      </g>
     </g>
     <g id="text_15">
      <!-- 40 -->
      <g transform="translate(24.845 71.519348) scale(0.1 -0.1)">
       <use xlink:href="#DejaVuSans-34"/>
       <use xlink:href="#DejaVuSans-30" x="63.623047"/>
      </g>
     </g>
    </g>
    <g id="ytick_6">
     <g id="line2d_15">
      <g>
       <use xlink:href="#m6bca21f45c" x="44.57" y="41.140162" style="stroke: #000000; stroke-width: 0.8"/>
      </g>
     </g>
     <g id="text_16">
      <!-- 50 -->
      <g transform="translate(24.845 44.939381) scale(0.1 -0.1)">
       <use xlink:href="#DejaVuSans-35"/>
       <use xlink:href="#DejaVuSans-30" x="63.623047"/>
      </g>
     </g>
    </g>
    <g id="text_17">
     <!-- density -->
     <g transform="translate(18.765313 119.512813) rotate(-90) scale(0.1 -0.1)">
      <defs>
       <path id="DejaVuSans-64" d="M 2906 2969 
L 2906 4863 
L 3481 4863 
L 3481 0 
L 2906 0 
L 2906 525 
Q 2725 213 2448 61 
Q 2172 -91 1784 -91 
Q 1150 -91 751 415 
Q 353 922 353 1747 
Q 353 2572 751 3078 
Q 1150 3584 1784 3584 
Q 2172 3584 2448 3432 
Q 2725 3281 2906 2969 
z
M 947 1747 
Q 947 1113 1208 752 
Q 1469 391 1925 391 
Q 2381 391 2643 752 
Q 2906 1113 2906 1747 
Q 2906 2381 2643 2742 
Q 2381 3103 1925 3103 
Q 1469 3103 1208 2742 
Q 947 2381 947 1747 
z
" transform="scale(0.015625)"/>
       <path id="DejaVuSans-6e" d="M 3513 2113 
L 3513 0 
L 2938 0 
L 2938 2094 
Q 2938 2591 2744 2837 
Q 2550 3084 2163 3084 
Q 1697 3084 1428 2787 
Q 1159 2491 1159 1978 
L 1159 0 
L 581 0 
L 581 3500 
L 1159 3500 
L 1159 2956 
Q 1366 3272 1645 3428 
Q 1925 3584 2291 3584 
Q 2894 3584 3203 3211 
Q 3513 2838 3513 2113 
z
" transform="scale(0.015625)"/>
       <path id="DejaVuSans-73" d="M 2834 3397 
L 2834 2853 
Q 2591 2978 2328 3040 
Q 2066 3103 1784 3103 
Q 1356 3103 1142 2972 
Q 928 2841 928 2578 
Q 928 2378 1081 2264 
Q 1234 2150 1697 2047 
L 1894 2003 
Q 2506 1872 2764 1633 
Q 3022 1394 3022 966 
Q 3022 478 2636 193 
Q 2250 -91 1575 -91 
Q 1294 -91 989 -36 
Q 684 19 347 128 
L 347 722 
Q 666 556 975 473 
Q 1284 391 1588 391 
Q 1994 391 2212 530 
Q 2431 669 2431 922 
Q 2431 1156 2273 1281 
Q 2116 1406 1581 1522 
L 1381 1569 
Q 847 1681 609 1914 
Q 372 2147 372 2553 
Q 372 3047 722 3315 
Q 1072 3584 1716 3584 
Q 2034 3584 2315 3537 
Q 2597 3491 2834 3397 
z
" transform="scale(0.015625)"/>
       <path id="DejaVuSans-69" d="M 603 3500 
L 1178 3500 
L 1178 0 
L 603 0 
L 603 3500 
z
M 603 4863 
L 1178 4863 
L 1178 4134 
L 603 4134 
L 603 4863 
z
" transform="scale(0.015625)"/>
       <path id="DejaVuSans-79" d="M 2059 -325 
Q 1816 -950 1584 -1140 
Q 1353 -1331 966 -1331 
L 506 -1331 
L 506 -850 
L 844 -850 
Q 1081 -850 1212 -737 
Q 1344 -625 1503 -206 
L 1606 56 
L 191 3500 
L 800 3500 
L 1894 763 
L 2988 3500 
L 3597 3500 
L 2059 -325 
z
" transform="scale(0.015625)"/>
      </defs>
      <use xlink:href="#DejaVuSans-64"/>
      <use xlink:href="#DejaVuSans-65" x="63.476562"/>
      <use xlink:href="#DejaVuSans-6e" x="125"/>
      <use xlink:href="#DejaVuSans-73" x="188.378906"/>
      <use xlink:href="#DejaVuSans-69" x="240.478516"/>
      <use xlink:href="#DejaVuSans-74" x="268.261719"/>
      <use xlink:href="#DejaVuSans-79" x="307.470703"/>
     </g>
    </g>
   </g>
   <g id="patch_63">
    <path d="M 111.07354 174.04 
L 111.07354 35.259048 
L 111.946617 35.259048 
L 111.946617 47.571893 
L 112.819694 47.571893 
L 112.819694 58.366717 
L 113.69277 58.366717 
L 113.69277 65.349619 
L 114.565847 65.349619 
L 114.565847 73.108398 
L 115.438924 73.108398 
L 115.438924 86.399525 
L 116.312001 86.399525 
L 116.312001 91.796937 
L 117.185077 91.796937 
L 117.185077 98.644903 
L 118.058154 98.644903 
L 118.058154 105.425402 
L 118.931231 105.425402 
L 118.931231 110.114403 
L 119.804308 110.114403 
L 119.804308 115.916621 
L 120.677384 115.916621 
L 120.677384 123.540465 
L 121.550461 123.540465 
L 121.550461 126.947582 
L 122.423538 126.947582 
L 122.423538 129.410151 
L 123.296615 129.410151 
L 123.296615 136.291851 
L 124.169691 136.291851 
L 124.169691 139.024291 
L 125.042768 139.024291 
L 125.042768 143.173551 
L 125.915845 143.173551 
L 125.915845 144.522904 
L 126.788922 144.522904 
L 126.788922 149.481776 
L 127.661999 149.481776 
L 127.661999 151.101 
L 128.535075 151.101 
L 128.535075 174.04 
" clip-path="url(#pc63fcf7c2d)" style="fill: none; stroke: #1f77b4; stroke-width: 3; stroke-linejoin: miter"/>
   </g>
   <g id="patch_64">
    <path d="M 286.436546 174.04 
L 286.436546 135.619694 
L 288.988489 135.619694 
L 288.988489 136.369865 
L 291.540432 136.369865 
L 291.540432 139.739865 
L 294.092375 139.739865 
L 294.092375 141.113255 
L 296.644318 141.113255 
L 296.644318 142.890584 
L 299.196261 142.890584 
L 299.196261 144.021611 
L 301.748204 144.021611 
L 301.748204 145.752775 
L 304.300147 145.752775 
L 304.300147 148.072536 
L 306.85209 148.072536 
L 306.85209 149.896029 
L 309.404033 149.896029 
L 309.404033 151.292501 
L 311.955976 151.292501 
L 311.955976 152.712056 
L 314.507919 152.712056 
L 314.507919 154.477843 
L 317.059862 154.477843 
L 317.059862 154.604795 
L 319.611805 154.604795 
L 319.611805 156.786063 
L 322.163748 156.786063 
L 322.163748 158.75959 
L 324.715691 158.75959 
L 324.715691 158.632638 
L 327.267634 158.632638 
L 327.267634 160.87161 
L 329.819577 160.87161 
L 329.819577 162.245001 
L 332.371521 162.245001 
L 332.371521 162.048802 
L 334.923464 162.048802 
L 334.923464 163.249076 
L 337.475407 163.249076 
L 337.475407 174.04 
" clip-path="url(#pc63fcf7c2d)" style="fill: none; stroke: #ff7f0e; stroke-width: 3; stroke-linejoin: miter"/>
   </g>
   <g id="patch_65">
    <path d="M 331.373616 174.04 
L 331.373616 158.48879 
L 335.680313 158.48879 
L 335.680313 157.216791 
L 339.987009 157.216791 
L 339.987009 155.254084 
L 344.293706 155.254084 
L 344.293706 154.884794 
L 348.600403 154.884794 
L 348.600403 154.830084 
L 352.907099 154.830084 
L 352.907099 154.091504 
L 357.213796 154.091504 
L 357.213796 154.433439 
L 361.520493 154.433439 
L 361.520493 153.804279 
L 365.827189 153.804279 
L 365.827189 155.014729 
L 370.133886 155.014729 
L 370.133886 155.814857 
L 374.440583 155.814857 
L 374.440583 157.49034 
L 378.747279 157.49034 
L 378.747279 159.370983 
L 383.053976 159.370983 
L 383.053976 160.70453 
L 387.360672 160.70453 
L 387.360672 162.65356 
L 391.667369 162.65356 
L 391.667369 164.623106 
L 395.974066 164.623106 
L 395.974066 167.044007 
L 400.280762 167.044007 
L 400.280762 168.719489 
L 404.587459 168.719489 
L 404.587459 170.094069 
L 408.894156 170.094069 
L 408.894156 170.948906 
L 413.200852 170.948906 
L 413.200852 171.769551 
L 417.507549 171.769551 
L 417.507549 174.04 
" clip-path="url(#pc63fcf7c2d)" style="fill: none; stroke: #2ca02c; stroke-width: 3; stroke-linejoin: miter"/>
   </g>
   <g id="line2d_16">
    <path d="M 117.313965 174.04 
L 117.313965 28.32 
" clip-path="url(#pc63fcf7c2d)" style="fill: none; stroke-dasharray: 15,3; stroke-dashoffset: 0; stroke: #1f77b4; stroke-width: 3"/>
   </g>
   <g id="line2d_17">
    <path d="M 306.62253 174.04 
L 306.62253 28.32 
" clip-path="url(#pc63fcf7c2d)" style="fill: none; stroke-dasharray: 10,6; stroke-dashoffset: 0; stroke: #ff7f0e; stroke-width: 2"/>
   </g>
   <g id="line2d_18">
    <path d="M 368.701156 174.04 
L 368.701156 28.32 
" clip-path="url(#pc63fcf7c2d)" style="fill: none; stroke-dasharray: 5,6; stroke-dashoffset: 0; stroke: #2ca02c"/>
   </g>
   <g id="patch_66">
    <path d="M 44.57 174.04 
L 44.57 28.32 
" style="fill: none; stroke: #000000; stroke-width: 0.8; stroke-linejoin: miter; stroke-linecap: square"/>
   </g>
   <g id="patch_67">
    <path d="M 421.2 174.04 
L 421.2 28.32 
" style="fill: none; stroke: #000000; stroke-width: 0.8; stroke-linejoin: miter; stroke-linecap: square"/>
   </g>
   <g id="patch_68">
    <path d="M 44.57 174.04 
L 421.2 174.04 
" style="fill: none; stroke: #000000; stroke-width: 0.8; stroke-linejoin: miter; stroke-linecap: square"/>
   </g>
   <g id="patch_69">
    <path d="M 44.57 28.32 
L 421.2 28.32 
" style="fill: none; stroke: #000000; stroke-width: 0.8; stroke-linejoin: miter; stroke-linecap: square"/>
   </g>
   <g id="text_18">
    <!-- growth rate $\lambda$ -->
    <g transform="translate(192.265 22.32) scale(0.12 -0.12)">
     <defs>
      <path id="DejaVuSans-Oblique-3bb" d="M 2350 4316 
L 3125 0 
L 2516 0 
L 2038 2588 
L 328 0 
L -281 0 
L 1903 3356 
L 1794 3975 
Q 1725 4369 1391 4369 
L 1091 4369 
L 1184 4863 
L 1550 4856 
Q 2253 4847 2350 4316 
z
" transform="scale(0.015625)"/>
     </defs>
     <use xlink:href="#DejaVuSans-67" transform="translate(0 0.015625)"/>
     <use xlink:href="#DejaVuSans-72" transform="translate(63.476562 0.015625)"/>
     <use xlink:href="#DejaVuSans-6f" transform="translate(104.589844 0.015625)"/>
     <use xlink:href="#DejaVuSans-77" transform="translate(165.771484 0.015625)"/>
     <use xlink:href="#DejaVuSans-74" transform="translate(247.558594 0.015625)"/>
     <use xlink:href="#DejaVuSans-68" transform="translate(286.767578 0.015625)"/>
     <use xlink:href="#DejaVuSans-20" transform="translate(350.146484 0.015625)"/>
     <use xlink:href="#DejaVuSans-72" transform="translate(381.933594 0.015625)"/>
     <use xlink:href="#DejaVuSans-61" transform="translate(423.046875 0.015625)"/>
     <use xlink:href="#DejaVuSans-74" transform="translate(484.326172 0.015625)"/>
     <use xlink:href="#DejaVuSans-65" transform="translate(523.535156 0.015625)"/>
     <use xlink:href="#DejaVuSans-20" transform="translate(585.058594 0.015625)"/>
     <use xlink:href="#DejaVuSans-Oblique-3bb" transform="translate(616.845703 0.015625)"/>
    </g>
   </g>
   <g id="legend_1">
    <g id="patch_70">
     <path d="M 186.518594 169.04 
L 279.251406 169.04 
Q 281.251406 169.04 281.251406 167.04 
L 281.251406 79.97125 
Q 281.251406 77.97125 279.251406 77.97125 
L 186.518594 77.97125 
Q 184.518594 77.97125 184.518594 79.97125 
L 184.518594 167.04 
Q 184.518594 169.04 186.518594 169.04 
z
" style="fill: #ffffff; opacity: 0.8; stroke: #cccccc; stroke-linejoin: miter"/>
    </g>
    <g id="patch_71">
     <path d="M 188.518594 89.569688 
L 208.518594 89.569688 
L 208.518594 82.569688 
L 188.518594 82.569688 
z
" style="fill: #1f77b4; opacity: 0.25"/>
    </g>
    <g id="text_19">
     <!-- MaxEnt PCA -->
     <g transform="translate(216.518594 89.569688) scale(0.1 -0.1)">
      <defs>
       <path id="DejaVuSans-4d" d="M 628 4666 
L 1569 4666 
L 2759 1491 
L 3956 4666 
L 4897 4666 
L 4897 0 
L 4281 0 
L 4281 4097 
L 3078 897 
L 2444 897 
L 1241 4097 
L 1241 0 
L 628 0 
L 628 4666 
z
" transform="scale(0.015625)"/>
       <path id="DejaVuSans-78" d="M 3513 3500 
L 2247 1797 
L 3578 0 
L 2900 0 
L 1881 1375 
L 863 0 
L 184 0 
L 1544 1831 
L 300 3500 
L 978 3500 
L 1906 2253 
L 2834 3500 
L 3513 3500 
z
" transform="scale(0.015625)"/>
       <path id="DejaVuSans-45" d="M 628 4666 
L 3578 4666 
L 3578 4134 
L 1259 4134 
L 1259 2753 
L 3481 2753 
L 3481 2222 
L 1259 2222 
L 1259 531 
L 3634 531 
L 3634 0 
L 628 0 
L 628 4666 
z
" transform="scale(0.015625)"/>
       <path id="DejaVuSans-50" d="M 1259 4147 
L 1259 2394 
L 2053 2394 
Q 2494 2394 2734 2622 
Q 2975 2850 2975 3272 
Q 2975 3691 2734 3919 
Q 2494 4147 2053 4147 
L 1259 4147 
z
M 628 4666 
L 2053 4666 
Q 2838 4666 3239 4311 
Q 3641 3956 3641 3272 
Q 3641 2581 3239 2228 
Q 2838 1875 2053 1875 
L 1259 1875 
L 1259 0 
L 628 0 
L 628 4666 
z
" transform="scale(0.015625)"/>
       <path id="DejaVuSans-43" d="M 4122 4306 
L 4122 3641 
Q 3803 3938 3442 4084 
Q 3081 4231 2675 4231 
Q 1875 4231 1450 3742 
Q 1025 3253 1025 2328 
Q 1025 1406 1450 917 
Q 1875 428 2675 428 
Q 3081 428 3442 575 
Q 3803 722 4122 1019 
L 4122 359 
Q 3791 134 3420 21 
Q 3050 -91 2638 -91 
Q 1578 -91 968 557 
Q 359 1206 359 2328 
Q 359 3453 968 4101 
Q 1578 4750 2638 4750 
Q 3056 4750 3426 4639 
Q 3797 4528 4122 4306 
z
" transform="scale(0.015625)"/>
       <path id="DejaVuSans-41" d="M 2188 4044 
L 1331 1722 
L 3047 1722 
L 2188 4044 
z
M 1831 4666 
L 2547 4666 
L 4325 0 
L 3669 0 
L 3244 1197 
L 1141 1197 
L 716 0 
L 50 0 
L 1831 4666 
z
" transform="scale(0.015625)"/>
      </defs>
      <use xlink:href="#DejaVuSans-4d"/>
      <use xlink:href="#DejaVuSans-61" x="86.279297"/>
      <use xlink:href="#DejaVuSans-78" x="147.558594"/>
      <use xlink:href="#DejaVuSans-45" x="206.738281"/>
      <use xlink:href="#DejaVuSans-6e" x="269.921875"/>
      <use xlink:href="#DejaVuSans-74" x="333.300781"/>
      <use xlink:href="#DejaVuSans-20" x="372.509766"/>
      <use xlink:href="#DejaVuSans-50" x="404.296875"/>
      <use xlink:href="#DejaVuSans-43" x="464.599609"/>
      <use xlink:href="#DejaVuSans-41" x="534.423828"/>
     </g>
    </g>
    <g id="patch_72">
     <path d="M 188.518594 104.247813 
L 208.518594 104.247813 
L 208.518594 97.247813 
L 188.518594 97.247813 
z
" style="fill: #ff7f0e; opacity: 0.25"/>
    </g>
    <g id="text_20">
     <!-- MaxEnt GLC -->
     <g transform="translate(216.518594 104.247813) scale(0.1 -0.1)">
      <defs>
       <path id="DejaVuSans-47" d="M 3809 666 
L 3809 1919 
L 2778 1919 
L 2778 2438 
L 4434 2438 
L 4434 434 
Q 4069 175 3628 42 
Q 3188 -91 2688 -91 
Q 1594 -91 976 548 
Q 359 1188 359 2328 
Q 359 3472 976 4111 
Q 1594 4750 2688 4750 
Q 3144 4750 3555 4637 
Q 3966 4525 4313 4306 
L 4313 3634 
Q 3963 3931 3569 4081 
Q 3175 4231 2741 4231 
Q 1884 4231 1454 3753 
Q 1025 3275 1025 2328 
Q 1025 1384 1454 906 
Q 1884 428 2741 428 
Q 3075 428 3337 486 
Q 3600 544 3809 666 
z
" transform="scale(0.015625)"/>
       <path id="DejaVuSans-4c" d="M 628 4666 
L 1259 4666 
L 1259 531 
L 3531 531 
L 3531 0 
L 628 0 
L 628 4666 
z
" transform="scale(0.015625)"/>
      </defs>
      <use xlink:href="#DejaVuSans-4d"/>
      <use xlink:href="#DejaVuSans-61" x="86.279297"/>
      <use xlink:href="#DejaVuSans-78" x="147.558594"/>
      <use xlink:href="#DejaVuSans-45" x="206.738281"/>
      <use xlink:href="#DejaVuSans-6e" x="269.921875"/>
      <use xlink:href="#DejaVuSans-74" x="333.300781"/>
      <use xlink:href="#DejaVuSans-20" x="372.509766"/>
      <use xlink:href="#DejaVuSans-47" x="404.296875"/>
      <use xlink:href="#DejaVuSans-4c" x="481.787109"/>
      <use xlink:href="#DejaVuSans-43" x="537.5"/>
     </g>
    </g>
    <g id="patch_73">
     <path d="M 188.518594 118.925938 
L 208.518594 118.925938 
L 208.518594 111.925938 
L 188.518594 111.925938 
z
" style="fill: #2ca02c; opacity: 0.25"/>
    </g>
    <g id="text_21">
     <!-- MaxEnt CIT -->
     <g transform="translate(216.518594 118.925938) scale(0.1 -0.1)">
      <defs>
       <path id="DejaVuSans-49" d="M 628 4666 
L 1259 4666 
L 1259 0 
L 628 0 
L 628 4666 
z
" transform="scale(0.015625)"/>
       <path id="DejaVuSans-54" d="M -19 4666 
L 3928 4666 
L 3928 4134 
L 2272 4134 
L 2272 0 
L 1638 0 
L 1638 4134 
L -19 4134 
L -19 4666 
z
" transform="scale(0.015625)"/>
      </defs>
      <use xlink:href="#DejaVuSans-4d"/>
      <use xlink:href="#DejaVuSans-61" x="86.279297"/>
      <use xlink:href="#DejaVuSans-78" x="147.558594"/>
      <use xlink:href="#DejaVuSans-45" x="206.738281"/>
      <use xlink:href="#DejaVuSans-6e" x="269.921875"/>
      <use xlink:href="#DejaVuSans-74" x="333.300781"/>
      <use xlink:href="#DejaVuSans-20" x="372.509766"/>
      <use xlink:href="#DejaVuSans-43" x="404.296875"/>
      <use xlink:href="#DejaVuSans-49" x="474.121094"/>
      <use xlink:href="#DejaVuSans-54" x="503.613281"/>
     </g>
    </g>
    <g id="line2d_19">
     <path d="M 188.518594 130.104063 
L 198.518594 130.104063 
L 208.518594 130.104063 
" style="fill: none; stroke-dasharray: 15,3; stroke-dashoffset: 0; stroke: #1f77b4; stroke-width: 3"/>
    </g>
    <g id="text_22">
     <!-- FBA for PCA -->
     <g transform="translate(216.518594 133.604063) scale(0.1 -0.1)">
      <defs>
       <path id="DejaVuSans-46" d="M 628 4666 
L 3309 4666 
L 3309 4134 
L 1259 4134 
L 1259 2759 
L 3109 2759 
L 3109 2228 
L 1259 2228 
L 1259 0 
L 628 0 
L 628 4666 
z
" transform="scale(0.015625)"/>
       <path id="DejaVuSans-42" d="M 1259 2228 
L 1259 519 
L 2272 519 
Q 2781 519 3026 730 
Q 3272 941 3272 1375 
Q 3272 1813 3026 2020 
Q 2781 2228 2272 2228 
L 1259 2228 
z
M 1259 4147 
L 1259 2741 
L 2194 2741 
Q 2656 2741 2882 2914 
Q 3109 3088 3109 3444 
Q 3109 3797 2882 3972 
Q 2656 4147 2194 4147 
L 1259 4147 
z
M 628 4666 
L 2241 4666 
Q 2963 4666 3353 4366 
Q 3744 4066 3744 3513 
Q 3744 3084 3544 2831 
Q 3344 2578 2956 2516 
Q 3422 2416 3680 2098 
Q 3938 1781 3938 1306 
Q 3938 681 3513 340 
Q 3088 0 2303 0 
L 628 0 
L 628 4666 
z
" transform="scale(0.015625)"/>
       <path id="DejaVuSans-66" d="M 2375 4863 
L 2375 4384 
L 1825 4384 
Q 1516 4384 1395 4259 
Q 1275 4134 1275 3809 
L 1275 3500 
L 2222 3500 
L 2222 3053 
L 1275 3053 
L 1275 0 
L 697 0 
L 697 3053 
L 147 3053 
L 147 3500 
L 697 3500 
L 697 3744 
Q 697 4328 969 4595 
Q 1241 4863 1831 4863 
L 2375 4863 
z
" transform="scale(0.015625)"/>
      </defs>
      <use xlink:href="#DejaVuSans-46"/>
      <use xlink:href="#DejaVuSans-42" x="57.519531"/>
      <use xlink:href="#DejaVuSans-41" x="126.123047"/>
      <use xlink:href="#DejaVuSans-20" x="194.53125"/>
      <use xlink:href="#DejaVuSans-66" x="226.318359"/>
      <use xlink:href="#DejaVuSans-6f" x="261.523438"/>
      <use xlink:href="#DejaVuSans-72" x="322.705078"/>
      <use xlink:href="#DejaVuSans-20" x="363.818359"/>
      <use xlink:href="#DejaVuSans-50" x="395.605469"/>
      <use xlink:href="#DejaVuSans-43" x="455.908203"/>
      <use xlink:href="#DejaVuSans-41" x="525.732422"/>
     </g>
    </g>
    <g id="line2d_20">
     <path d="M 188.518594 144.782188 
L 198.518594 144.782188 
L 208.518594 144.782188 
" style="fill: none; stroke-dasharray: 10,6; stroke-dashoffset: 0; stroke: #ff7f0e; stroke-width: 2"/>
    </g>
    <g id="text_23">
     <!-- FBA for GLC -->
     <g transform="translate(216.518594 148.282188) scale(0.1 -0.1)">
      <use xlink:href="#DejaVuSans-46"/>
      <use xlink:href="#DejaVuSans-42" x="57.519531"/>
      <use xlink:href="#DejaVuSans-41" x="126.123047"/>
      <use xlink:href="#DejaVuSans-20" x="194.53125"/>
      <use xlink:href="#DejaVuSans-66" x="226.318359"/>
      <use xlink:href="#DejaVuSans-6f" x="261.523438"/>
      <use xlink:href="#DejaVuSans-72" x="322.705078"/>
      <use xlink:href="#DejaVuSans-20" x="363.818359"/>
      <use xlink:href="#DejaVuSans-47" x="395.605469"/>
      <use xlink:href="#DejaVuSans-4c" x="473.095703"/>
      <use xlink:href="#DejaVuSans-43" x="528.808594"/>
     </g>
    </g>
    <g id="line2d_21">
     <path d="M 188.518594 159.460313 
L 198.518594 159.460313 
L 208.518594 159.460313 
" style="fill: none; stroke-dasharray: 5,6; stroke-dashoffset: 0; stroke: #2ca02c"/>
    </g>
    <g id="text_24">
     <!-- FBA for CIT -->
     <g transform="translate(216.518594 162.960313) scale(0.1 -0.1)">
      <use xlink:href="#DejaVuSans-46"/>
      <use xlink:href="#DejaVuSans-42" x="57.519531"/>
      <use xlink:href="#DejaVuSans-41" x="126.123047"/>
      <use xlink:href="#DejaVuSans-20" x="194.53125"/>
      <use xlink:href="#DejaVuSans-66" x="226.318359"/>
      <use xlink:href="#DejaVuSans-6f" x="261.523438"/>
      <use xlink:href="#DejaVuSans-72" x="322.705078"/>
      <use xlink:href="#DejaVuSans-20" x="363.818359"/>
      <use xlink:href="#DejaVuSans-43" x="395.605469"/>
      <use xlink:href="#DejaVuSans-49" x="465.429688"/>
      <use xlink:href="#DejaVuSans-54" x="494.921875"/>
     </g>
    </g>
   </g>
  </g>
 </g>
 <defs>
  <clipPath id="pc63fcf7c2d">
   <rect x="44.57" y="28.32" width="376.63" height="145.72"/>
  </clipPath>
 </defs>
</svg>
