<?xml version="1.0" encoding="utf-8" standalone="no"?>
<!DOCTYPE svg PUBLIC "-//W3C//DTD SVG 1.1//EN"
  "http://www.w3.org/Graphics/SVG/1.1/DTD/svg11.dtd">
<svg xmlns:xlink="http://www.w3.org/1999/xlink" width="432pt" height="216pt" viewBox="0 0 432 216" xmlns="http://www.w3.org/2000/svg" version="1.1">
 <metadata>
  <rdf:RDF xmlns:dc="http://purl.org/dc/elements/1.1/" xmlns:cc="http://creativecommons.org/ns#" xmlns:rdf="http://www.w3.org/1999/02/22-rdf-syntax-ns#">
   <cc:Work>
    <dc:type rdf:resource="http://purl.org/dc/dcmitype/StillImage"/>
    <dc:date>2024-06-19T16:03:44.091970</dc:date>
    <dc:format>image/svg+xml</dc:format>
    <dc:creator>
     <cc:Agent>
      <dc:title>Matplotlib v3.9.0, https://matplotlib.org/</dc:title>
     </cc:Agent>
    </dc:creator>
   </cc:Work>
  </rdf:RDF>
 </metadata>
 <defs>
  <style type="text/css">*{stroke-linejoin: round; stroke-linecap: butt}</style>
 </defs>
 <g id="figure_1">
  <g id="patch_1">
   <path d="M 0 216 
L 432 216 
L 432 0 
L 0 0 
z
" style="fill: #ffffff"/>
  </g>
  <g id="axes_1">
   <g id="patch_2">
    <path d="M 54.02 174.04 
L 421.2 174.04 
L 421.2 26.88 
L 54.02 26.88 
z
" style="fill: #ffffff"/>
   </g>
   <g id="patch_3">
    <path d="M 57.619808 174.04 
L 61.795153 174.04 
L 61.795153 33.887619 
L 57.619808 33.887619 
z
" clip-path="url(#p086f55c984)" style="fill: #1f77b4; opacity: 0.25"/>
   </g>
   <g id="patch_4">
    <path d="M 61.795153 174.04 
L 65.970498 174.04 
L 65.970498 55.962067 
L 61.795153 55.962067 
z
" clip-path="url(#p086f55c984)" style="fill: #1f77b4; opacity: 0.25"/>
   </g>
   <g id="patch_5">
    <path d="M 65.970498 174.04 
L 70.145843 174.04 
L 70.145843 74.045194 
L 65.970498 74.045194 
z
" clip-path="url(#p086f55c984)" style="fill: #1f77b4; opacity: 0.25"/>
   </g>
   <g id="patch_6">
    <path d="M 70.145843 174.04 
L 74.321187 174.04 
L 74.321187 90.499211 
L 70.145843 90.499211 
z
" clip-path="url(#p086f55c984)" style="fill: #1f77b4; opacity: 0.25"/>
   </g>
   <g id="patch_7">
    <path d="M 74.321187 174.04 
L 78.496532 174.04 
L 78.496532 106.920645 
L 74.321187 106.920645 
z
" clip-path="url(#p086f55c984)" style="fill: #1f77b4; opacity: 0.25"/>
   </g>
   <g id="patch_8">
    <path d="M 78.496532 174.04 
L 82.671877 174.04 
L 82.671877 122.885929 
L 78.496532 122.885929 
z
" clip-path="url(#p086f55c984)" style="fill: #1f77b4; opacity: 0.25"/>
   </g>
   <g id="patch_9">
    <path d="M 82.671877 174.04 
L 86.847221 174.04 
L 86.847221 139.030414 
L 82.671877 139.030414 
z
" clip-path="url(#p086f55c984)" style="fill: #1f77b4; opacity: 0.25"/>
   </g>
   <g id="patch_10">
    <path d="M 86.847221 174.04 
L 91.022566 174.04 
L 91.022566 150.515644 
L 86.847221 150.515644 
z
" clip-path="url(#p086f55c984)" style="fill: #1f77b4; opacity: 0.25"/>
   </g>
   <g id="patch_11">
    <path d="M 91.022566 174.04 
L 95.197911 174.04 
L 95.197911 159.671245 
L 91.022566 159.671245 
z
" clip-path="url(#p086f55c984)" style="fill: #1f77b4; opacity: 0.25"/>
   </g>
   <g id="patch_12">
    <path d="M 95.197911 174.04 
L 99.373255 174.04 
L 99.373255 165.307967 
L 95.197911 165.307967 
z
" clip-path="url(#p086f55c984)" style="fill: #1f77b4; opacity: 0.25"/>
   </g>
   <g id="patch_13">
    <path d="M 99.373255 174.04 
L 103.5486 174.04 
L 103.5486 169.673984 
L 99.373255 169.673984 
z
" clip-path="url(#p086f55c984)" style="fill: #1f77b4; opacity: 0.25"/>
   </g>
   <g id="patch_14">
    <path d="M 103.5486 174.04 
L 107.723945 174.04 
L 107.723945 171.417132 
L 103.5486 171.417132 
z
" clip-path="url(#p086f55c984)" style="fill: #1f77b4; opacity: 0.25"/>
   </g>
   <g id="patch_15">
    <path d="M 107.723945 174.04 
L 111.89929 174.04 
L 111.89929 172.606383 
L 107.723945 172.606383 
z
" clip-path="url(#p086f55c984)" style="fill: #1f77b4; opacity: 0.25"/>
   </g>
   <g id="patch_16">
    <path d="M 111.89929 174.04 
L 116.074634 174.04 
L 116.074634 173.258027 
L 111.89929 173.258027 
z
" clip-path="url(#p086f55c984)" style="fill: #1f77b4; opacity: 0.25"/>
   </g>
   <g id="patch_17">
    <path d="M 116.074634 174.04 
L 120.249979 174.04 
L 120.249979 173.567558 
L 116.074634 173.567558 
z
" clip-path="url(#p086f55c984)" style="fill: #1f77b4; opacity: 0.25"/>
   </g>
   <g id="patch_18">
    <path d="M 120.249979 174.04 
L 124.425324 174.04 
L 124.425324 173.860798 
L 120.249979 173.860798 
z
" clip-path="url(#p086f55c984)" style="fill: #1f77b4; opacity: 0.25"/>
   </g>
   <g id="patch_19">
    <path d="M 124.425324 174.04 
L 128.600668 174.04 
L 128.600668 174.007418 
L 124.425324 174.007418 
z
" clip-path="url(#p086f55c984)" style="fill: #1f77b4; opacity: 0.25"/>
   </g>
   <g id="patch_20">
    <path d="M 128.600668 174.04 
L 132.776013 174.04 
L 132.776013 174.007418 
L 128.600668 174.007418 
z
" clip-path="url(#p086f55c984)" style="fill: #1f77b4; opacity: 0.25"/>
   </g>
   <g id="patch_21">
    <path d="M 132.776013 174.04 
L 136.951358 174.04 
L 136.951358 174.04 
L 132.776013 174.04 
z
" clip-path="url(#p086f55c984)" style="fill: #1f77b4; opacity: 0.25"/>
   </g>
   <g id="patch_22">
    <path d="M 136.951358 174.04 
L 141.126702 174.04 
L 141.126702 173.991127 
L 136.951358 173.991127 
z
" clip-path="url(#p086f55c984)" style="fill: #1f77b4; opacity: 0.25"/>
   </g>
   <g id="patch_23">
    <path d="M 57.630139 174.04 
L 75.628642 174.04 
L 75.628642 170.17004 
L 57.630139 170.17004 
z
" clip-path="url(#p086f55c984)" style="fill: #ff7f0e; opacity: 0.25"/>
   </g>
   <g id="patch_24">
    <path d="M 75.628642 174.04 
L 93.627145 174.04 
L 93.627145 165.113393 
L 75.628642 165.113393 
z
" clip-path="url(#p086f55c984)" style="fill: #ff7f0e; opacity: 0.25"/>
   </g>
   <g id="patch_25">
    <path d="M 93.627145 174.04 
L 111.625648 174.04 
L 111.625648 159.62969 
L 93.627145 159.62969 
z
" clip-path="url(#p086f55c984)" style="fill: #ff7f0e; opacity: 0.25"/>
   </g>
   <g id="patch_26">
    <path d="M 111.625648 174.04 
L 129.624151 174.04 
L 129.624151 157.649359 
L 111.625648 157.649359 
z
" clip-path="url(#p086f55c984)" style="fill: #ff7f0e; opacity: 0.25"/>
   </g>
   <g id="patch_27">
    <path d="M 129.624151 174.04 
L 147.622653 174.04 
L 147.622653 157.672035 
L 129.624151 157.672035 
z
" clip-path="url(#p086f55c984)" style="fill: #ff7f0e; opacity: 0.25"/>
   </g>
   <g id="patch_28">
    <path d="M 147.622653 174.04 
L 165.621156 174.04 
L 165.621156 158.885176 
L 147.622653 158.885176 
z
" clip-path="url(#p086f55c984)" style="fill: #ff7f0e; opacity: 0.25"/>
   </g>
   <g id="patch_29">
    <path d="M 165.621156 174.04 
L 183.619659 174.04 
L 183.619659 159.93581 
L 165.621156 159.93581 
z
" clip-path="url(#p086f55c984)" style="fill: #ff7f0e; opacity: 0.25"/>
   </g>
   <g id="patch_30">
    <path d="M 183.619659 174.04 
L 201.618162 174.04 
L 201.618162 161.523098 
L 183.619659 161.523098 
z
" clip-path="url(#p086f55c984)" style="fill: #ff7f0e; opacity: 0.25"/>
   </g>
   <g id="patch_31">
    <path d="M 201.618162 174.04 
L 219.616665 174.04 
L 219.616665 162.970554 
L 201.618162 162.970554 
z
" clip-path="url(#p086f55c984)" style="fill: #ff7f0e; opacity: 0.25"/>
   </g>
   <g id="patch_32">
    <path d="M 219.616665 174.04 
L 237.615168 174.04 
L 237.615168 164.497374 
L 219.616665 164.497374 
z
" clip-path="url(#p086f55c984)" style="fill: #ff7f0e; opacity: 0.25"/>
   </g>
   <g id="patch_33">
    <path d="M 237.615168 174.04 
L 255.61367 174.04 
L 255.61367 165.952388 
L 237.615168 165.952388 
z
" clip-path="url(#p086f55c984)" style="fill: #ff7f0e; opacity: 0.25"/>
   </g>
   <g id="patch_34">
    <path d="M 255.61367 174.04 
L 273.612173 174.04 
L 273.612173 167.222219 
L 255.61367 167.222219 
z
" clip-path="url(#p086f55c984)" style="fill: #ff7f0e; opacity: 0.25"/>
   </g>
   <g id="patch_35">
    <path d="M 273.612173 174.04 
L 291.610676 174.04 
L 291.610676 168.813287 
L 273.612173 168.813287 
z
" clip-path="url(#p086f55c984)" style="fill: #ff7f0e; opacity: 0.25"/>
   </g>
   <g id="patch_36">
    <path d="M 291.610676 174.04 
L 309.609179 174.04 
L 309.609179 170.188936 
L 291.610676 170.188936 
z
" clip-path="url(#p086f55c984)" style="fill: #ff7f0e; opacity: 0.25"/>
   </g>
   <g id="patch_37">
    <path d="M 309.609179 174.04 
L 327.607682 174.04 
L 327.607682 171.640171 
L 309.609179 171.640171 
z
" clip-path="url(#p086f55c984)" style="fill: #ff7f0e; opacity: 0.25"/>
   </g>
   <g id="patch_38">
    <path d="M 327.607682 174.04 
L 345.606185 174.04 
L 345.606185 172.611441 
L 327.607682 172.611441 
z
" clip-path="url(#p086f55c984)" style="fill: #ff7f0e; opacity: 0.25"/>
   </g>
   <g id="patch_39">
    <path d="M 345.606185 174.04 
L 363.604688 174.04 
L 363.604688 173.352175 
L 345.606185 173.352175 
z
" clip-path="url(#p086f55c984)" style="fill: #ff7f0e; opacity: 0.25"/>
   </g>
   <g id="patch_40">
    <path d="M 363.604688 174.04 
L 381.60319 174.04 
L 381.60319 173.809465 
L 363.604688 173.809465 
z
" clip-path="url(#p086f55c984)" style="fill: #ff7f0e; opacity: 0.25"/>
   </g>
   <g id="patch_41">
    <path d="M 381.60319 174.04 
L 399.601693 174.04 
L 399.601693 173.964415 
L 381.60319 173.964415 
z
" clip-path="url(#p086f55c984)" style="fill: #ff7f0e; opacity: 0.25"/>
   </g>
   <g id="patch_42">
    <path d="M 399.601693 174.04 
L 417.600196 174.04 
L 417.600196 174.028662 
L 399.601693 174.028662 
z
" clip-path="url(#p086f55c984)" style="fill: #ff7f0e; opacity: 0.25"/>
   </g>
   <g id="patch_43">
    <path d="M 57.620305 174.04 
L 64.758097 174.04 
L 64.758097 129.002661 
L 57.620305 129.002661 
z
" clip-path="url(#p086f55c984)" style="fill: #2ca02c; opacity: 0.25"/>
   </g>
   <g id="patch_44">
    <path d="M 64.758097 174.04 
L 71.895889 174.04 
L 71.895889 131.327906 
L 64.758097 131.327906 
z
" clip-path="url(#p086f55c984)" style="fill: #2ca02c; opacity: 0.25"/>
   </g>
   <g id="patch_45">
    <path d="M 71.895889 174.04 
L 79.033681 174.04 
L 79.033681 134.177285 
L 71.895889 134.177285 
z
" clip-path="url(#p086f55c984)" style="fill: #2ca02c; opacity: 0.25"/>
   </g>
   <g id="patch_46">
    <path d="M 79.033681 174.04 
L 86.171473 174.04 
L 86.171473 137.78904 
L 79.033681 137.78904 
z
" clip-path="url(#p086f55c984)" style="fill: #2ca02c; opacity: 0.25"/>
   </g>
   <g id="patch_47">
    <path d="M 86.171473 174.04 
L 93.309265 174.04 
L 93.309265 141.753393 
L 86.171473 141.753393 
z
" clip-path="url(#p086f55c984)" style="fill: #2ca02c; opacity: 0.25"/>
   </g>
   <g id="patch_48">
    <path d="M 93.309265 174.04 
L 100.447057 174.04 
L 100.447057 143.287674 
L 93.309265 143.287674 
z
" clip-path="url(#p086f55c984)" style="fill: #2ca02c; opacity: 0.25"/>
   </g>
   <g id="patch_49">
    <path d="M 100.447057 174.04 
L 107.584849 174.04 
L 107.584849 145.536682 
L 100.447057 145.536682 
z
" clip-path="url(#p086f55c984)" style="fill: #2ca02c; opacity: 0.25"/>
   </g>
   <g id="patch_50">
    <path d="M 107.584849 174.04 
L 114.722641 174.04 
L 114.722641 148.185937 
L 107.584849 148.185937 
z
" clip-path="url(#p086f55c984)" style="fill: #2ca02c; opacity: 0.25"/>
   </g>
   <g id="patch_51">
    <path d="M 114.722641 174.04 
L 121.860433 174.04 
L 121.860433 151.788162 
L 114.722641 151.788162 
z
" clip-path="url(#p086f55c984)" style="fill: #2ca02c; opacity: 0.25"/>
   </g>
   <g id="patch_52">
    <path d="M 121.860433 174.04 
L 128.998225 174.04 
L 128.998225 154.932961 
L 121.860433 154.932961 
z
" clip-path="url(#p086f55c984)" style="fill: #2ca02c; opacity: 0.25"/>
   </g>
   <g id="patch_53">
    <path d="M 128.998225 174.04 
L 136.136017 174.04 
L 136.136017 157.296326 
L 128.998225 157.296326 
z
" clip-path="url(#p086f55c984)" style="fill: #2ca02c; opacity: 0.25"/>
   </g>
   <g id="patch_54">
    <path d="M 136.136017 174.04 
L 143.273809 174.04 
L 143.273809 160.727016 
L 136.136017 160.727016 
z
" clip-path="url(#p086f55c984)" style="fill: #2ca02c; opacity: 0.25"/>
   </g>
   <g id="patch_55">
    <path d="M 143.273809 174.04 
L 150.411601 174.04 
L 150.411601 163.452509 
L 143.273809 163.452509 
z
" clip-path="url(#p086f55c984)" style="fill: #2ca02c; opacity: 0.25"/>
   </g>
   <g id="patch_56">
    <path d="M 150.411601 174.04 
L 157.549392 174.04 
L 157.549392 166.130353 
L 150.411601 166.130353 
z
" clip-path="url(#p086f55c984)" style="fill: #2ca02c; opacity: 0.25"/>
   </g>
   <g id="patch_57">
    <path d="M 157.549392 174.04 
L 164.687184 174.04 
L 164.687184 168.932083 
L 157.549392 168.932083 
z
" clip-path="url(#p086f55c984)" style="fill: #2ca02c; opacity: 0.25"/>
   </g>
   <g id="patch_58">
    <path d="M 164.687184 174.04 
L 171.824976 174.04 
L 171.824976 171.162032 
L 164.687184 171.162032 
z
" clip-path="url(#p086f55c984)" style="fill: #2ca02c; opacity: 0.25"/>
   </g>
   <g id="patch_59">
    <path d="M 171.824976 174.04 
L 178.962768 174.04 
L 178.962768 172.772551 
L 171.824976 172.772551 
z
" clip-path="url(#p086f55c984)" style="fill: #2ca02c; opacity: 0.25"/>
   </g>
   <g id="patch_60">
    <path d="M 178.962768 174.04 
L 186.10056 174.04 
L 186.10056 173.477748 
L 178.962768 173.477748 
z
" clip-path="url(#p086f55c984)" style="fill: #2ca02c; opacity: 0.25"/>
   </g>
   <g id="patch_61">
    <path d="M 186.10056 174.04 
L 193.238352 174.04 
L 193.238352 173.916114 
L 186.10056 173.916114 
z
" clip-path="url(#p086f55c984)" style="fill: #2ca02c; opacity: 0.25"/>
   </g>
   <g id="patch_62">
    <path d="M 193.238352 174.04 
L 200.376144 174.04 
L 200.376144 173.963762 
L 193.238352 173.963762 
z
" clip-path="url(#p086f55c984)" style="fill: #2ca02c; opacity: 0.25"/>
   </g>
   <g id="matplotlib.axis_1">
    <g id="xtick_1">
     <g id="line2d_1">
      <defs>
       <path id="mb545228323" d="M 0 0 
L 0 3.5 
" style="stroke: #000000; stroke-width: 0.8"/>
      </defs>
      <g>
       <use xlink:href="#mb545228323" x="57.619804" y="174.04" style="stroke: #000000; stroke-width: 0.8"/>
      </g>
     </g>
     <g id="text_1">
      <!-- 0 -->
      <g transform="translate(54.438554 188.638438) scale(0.1 -0.1)">
       <defs>
        <path id="DejaVuSans-30" d="M 2034 4250 
Q 1547 4250 1301 3770 
Q 1056 3291 1056 2328 
Q 1056 1369 1301 889 
Q 1547 409 2034 409 
Q 2525 409 2770 889 
Q 3016 1369 3016 2328 
Q 3016 3291 2770 3770 
Q 2525 4250 2034 4250 
z
M 2034 4750 
Q 2819 4750 3233 4129 
Q 3647 3509 3647 2328 
Q 3647 1150 3233 529 
Q 2819 -91 2034 -91 
Q 1250 -91 836 529 
Q 422 1150 422 2328 
Q 422 3509 836 4129 
Q 1250 4750 2034 4750 
z
" transform="scale(0.015625)"/>
       </defs>
       <use xlink:href="#DejaVuSans-30"/>
      </g>
     </g>
    </g>
    <g id="xtick_2">
     <g id="line2d_2">
      <g>
       <use xlink:href="#mb545228323" x="105.732925" y="174.04" style="stroke: #000000; stroke-width: 0.8"/>
      </g>
     </g>
     <g id="text_2">
      <!-- 10 -->
      <g transform="translate(99.370425 188.638438) scale(0.1 -0.1)">
       <defs>
        <path id="DejaVuSans-31" d="M 794 531 
L 1825 531 
L 1825 4091 
L 703 3866 
L 703 4441 
L 1819 4666 
L 2450 4666 
L 2450 531 
L 3481 531 
L 3481 0 
L 794 0 
L 794 531 
z
" transform="scale(0.015625)"/>
       </defs>
       <use xlink:href="#DejaVuSans-31"/>
       <use xlink:href="#DejaVuSans-30" x="63.623047"/>
      </g>
     </g>
    </g>
    <g id="xtick_3">
     <g id="line2d_3">
      <g>
       <use xlink:href="#mb545228323" x="153.846047" y="174.04" style="stroke: #000000; stroke-width: 0.8"/>
      </g>
     </g>
     <g id="text_3">
      <!-- 20 -->
      <g transform="translate(147.483547 188.638438) scale(0.1 -0.1)">
       <defs>
        <path id="DejaVuSans-32" d="M 1228 531 
L 3431 531 
L 3431 0 
L 469 0 
L 469 531 
Q 828 903 1448 1529 
Q 2069 2156 2228 2338 
Q 2531 2678 2651 2914 
Q 2772 3150 2772 3378 
Q 2772 3750 2511 3984 
Q 2250 4219 1831 4219 
Q 1534 4219 1204 4116 
Q 875 4013 500 3803 
L 500 4441 
Q 881 4594 1212 4672 
Q 1544 4750 1819 4750 
Q 2544 4750 2975 4387 
Q 3406 4025 3406 3419 
Q 3406 3131 3298 2873 
Q 3191 2616 2906 2266 
Q 2828 2175 2409 1742 
Q 1991 1309 1228 531 
z
" transform="scale(0.015625)"/>
       </defs>
       <use xlink:href="#DejaVuSans-32"/>
       <use xlink:href="#DejaVuSans-30" x="63.623047"/>
      </g>
     </g>
    </g>
    <g id="xtick_4">
     <g id="line2d_4">
      <g>
       <use xlink:href="#mb545228323" x="201.959168" y="174.04" style="stroke: #000000; stroke-width: 0.8"/>
      </g>
     </g>
     <g id="text_4">
      <!-- 30 -->
      <g transform="translate(195.596668 188.638438) scale(0.1 -0.1)">
       <defs>
        <path id="DejaVuSans-33" d="M 2597 2516 
Q 3050 2419 3304 2112 
Q 3559 1806 3559 1356 
Q 3559 666 3084 287 
Q 2609 -91 1734 -91 
Q 1441 -91 1130 -33 
Q 819 25 488 141 
L 488 750 
Q 750 597 1062 519 
Q 1375 441 1716 441 
Q 2309 441 2620 675 
Q 2931 909 2931 1356 
Q 2931 1769 2642 2001 
Q 2353 2234 1838 2234 
L 1294 2234 
L 1294 2753 
L 1863 2753 
Q 2328 2753 2575 2939 
Q 2822 3125 2822 3475 
Q 2822 3834 2567 4026 
Q 2313 4219 1838 4219 
Q 1578 4219 1281 4162 
Q 984 4106 628 3988 
L 628 4550 
Q 988 4650 1302 4700 
Q 1616 4750 1894 4750 
Q 2613 4750 3031 4423 
Q 3450 4097 3450 3541 
Q 3450 3153 3228 2886 
Q 3006 2619 2597 2516 
z
" transform="scale(0.015625)"/>
       </defs>
       <use xlink:href="#DejaVuSans-33"/>
       <use xlink:href="#DejaVuSans-30" x="63.623047"/>
      </g>
     </g>
    </g>
    <g id="xtick_5">
     <g id="line2d_5">
      <g>
       <use xlink:href="#mb545228323" x="250.07229" y="174.04" style="stroke: #000000; stroke-width: 0.8"/>
      </g>
     </g>
     <g id="text_5">
      <!-- 40 -->
      <g transform="translate(243.70979 188.638438) scale(0.1 -0.1)">
       <defs>
        <path id="DejaVuSans-34" d="M 2419 4116 
L 825 1625 
L 2419 1625 
L 2419 4116 
z
M 2253 4666 
L 3047 4666 
L 3047 1625 
L 3713 1625 
L 3713 1100 
L 3047 1100 
L 3047 0 
L 2419 0 
L 2419 1100 
L 313 1100 
L 313 1709 
L 2253 4666 
z
" transform="scale(0.015625)"/>
       </defs>
       <use xlink:href="#DejaVuSans-34"/>
       <use xlink:href="#DejaVuSans-30" x="63.623047"/>
      </g>
     </g>
    </g>
    <g id="xtick_6">
     <g id="line2d_6">
      <g>
       <use xlink:href="#mb545228323" x="298.185411" y="174.04" style="stroke: #000000; stroke-width: 0.8"/>
      </g>
     </g>
     <g id="text_6">
      <!-- 50 -->
      <g transform="translate(291.822911 188.638438) scale(0.1 -0.1)">
       <defs>
        <path id="DejaVuSans-35" d="M 691 4666 
L 3169 4666 
L 3169 4134 
L 1269 4134 
L 1269 2991 
Q 1406 3038 1543 3061 
Q 1681 3084 1819 3084 
Q 2600 3084 3056 2656 
Q 3513 2228 3513 1497 
Q 3513 744 3044 326 
Q 2575 -91 1722 -91 
Q 1428 -91 1123 -41 
Q 819 9 494 109 
L 494 744 
Q 775 591 1075 516 
Q 1375 441 1709 441 
Q 2250 441 2565 725 
Q 2881 1009 2881 1497 
Q 2881 1984 2565 2268 
Q 2250 2553 1709 2553 
Q 1456 2553 1204 2497 
Q 953 2441 691 2322 
L 691 4666 
z
" transform="scale(0.015625)"/>
       </defs>
       <use xlink:href="#DejaVuSans-35"/>
       <use xlink:href="#DejaVuSans-30" x="63.623047"/>
      </g>
     </g>
    </g>
    <g id="xtick_7">
     <g id="line2d_7">
      <g>
       <use xlink:href="#mb545228323" x="346.298533" y="174.04" style="stroke: #000000; stroke-width: 0.8"/>
      </g>
     </g>
     <g id="text_7">
      <!-- 60 -->
      <g transform="translate(339.936033 188.638438) scale(0.1 -0.1)">
       <defs>
        <path id="DejaVuSans-36" d="M 2113 2584 
Q 1688 2584 1439 2293 
Q 1191 2003 1191 1497 
Q 1191 994 1439 701 
Q 1688 409 2113 409 
Q 2538 409 2786 701 
Q 3034 994 3034 1497 
Q 3034 2003 2786 2293 
Q 2538 2584 2113 2584 
z
M 3366 4563 
L 3366 3988 
Q 3128 4100 2886 4159 
Q 2644 4219 2406 4219 
Q 1781 4219 1451 3797 
Q 1122 3375 1075 2522 
Q 1259 2794 1537 2939 
Q 1816 3084 2150 3084 
Q 2853 3084 3261 2657 
Q 3669 2231 3669 1497 
Q 3669 778 3244 343 
Q 2819 -91 2113 -91 
Q 1303 -91 875 529 
Q 447 1150 447 2328 
Q 447 3434 972 4092 
Q 1497 4750 2381 4750 
Q 2619 4750 2861 4703 
Q 3103 4656 3366 4563 
z
" transform="scale(0.015625)"/>
       </defs>
       <use xlink:href="#DejaVuSans-36"/>
       <use xlink:href="#DejaVuSans-30" x="63.623047"/>
      </g>
     </g>
    </g>
    <g id="xtick_8">
     <g id="line2d_8">
      <g>
       <use xlink:href="#mb545228323" x="394.411654" y="174.04" style="stroke: #000000; stroke-width: 0.8"/>
      </g>
     </g>
     <g id="text_8">
      <!-- 70 -->
      <g transform="translate(388.049154 188.638438) scale(0.1 -0.1)">
       <defs>
        <path id="DejaVuSans-37" d="M 525 4666 
L 3525 4666 
L 3525 4397 
L 1831 0 
L 1172 0 
L 2766 4134 
L 525 4134 
L 525 4666 
z
" transform="scale(0.015625)"/>
       </defs>
       <use xlink:href="#DejaVuSans-37"/>
       <use xlink:href="#DejaVuSans-30" x="63.623047"/>
      </g>
     </g>
    </g>
    <g id="text_9">
     <!-- flux value [mmol/gwd/h] -->
     <g transform="translate(176.431094 202.316563) scale(0.1 -0.1)">
      <defs>
       <path id="DejaVuSans-66" d="M 2375 4863 
L 2375 4384 
L 1825 4384 
Q 1516 4384 1395 4259 
Q 1275 4134 1275 3809 
L 1275 3500 
L 2222 3500 
L 2222 3053 
L 1275 3053 
L 1275 0 
L 697 0 
L 697 3053 
L 147 3053 
L 147 3500 
L 697 3500 
L 697 3744 
Q 697 4328 969 4595 
Q 1241 4863 1831 4863 
L 2375 4863 
z
" transform="scale(0.015625)"/>
       <path id="DejaVuSans-6c" d="M 603 4863 
L 1178 4863 
L 1178 0 
L 603 0 
L 603 4863 
z
" transform="scale(0.015625)"/>
       <path id="DejaVuSans-75" d="M 544 1381 
L 544 3500 
L 1119 3500 
L 1119 1403 
Q 1119 906 1312 657 
Q 1506 409 1894 409 
Q 2359 409 2629 706 
Q 2900 1003 2900 1516 
L 2900 3500 
L 3475 3500 
L 3475 0 
L 2900 0 
L 2900 538 
Q 2691 219 2414 64 
Q 2138 -91 1772 -91 
Q 1169 -91 856 284 
Q 544 659 544 1381 
z
M 1991 3584 
L 1991 3584 
z
" transform="scale(0.015625)"/>
       <path id="DejaVuSans-78" d="M 3513 3500 
L 2247 1797 
L 3578 0 
L 2900 0 
L 1881 1375 
L 863 0 
L 184 0 
L 1544 1831 
L 300 3500 
L 978 3500 
L 1906 2253 
L 2834 3500 
L 3513 3500 
z
" transform="scale(0.015625)"/>
       <path id="DejaVuSans-20" transform="scale(0.015625)"/>
       <path id="DejaVuSans-76" d="M 191 3500 
L 800 3500 
L 1894 563 
L 2988 3500 
L 3597 3500 
L 2284 0 
L 1503 0 
L 191 3500 
z
" transform="scale(0.015625)"/>
       <path id="DejaVuSans-61" d="M 2194 1759 
Q 1497 1759 1228 1600 
Q 959 1441 959 1056 
Q 959 750 1161 570 
Q 1363 391 1709 391 
Q 2188 391 2477 730 
Q 2766 1069 2766 1631 
L 2766 1759 
L 2194 1759 
z
M 3341 1997 
L 3341 0 
L 2766 0 
L 2766 531 
Q 2569 213 2275 61 
Q 1981 -91 1556 -91 
Q 1019 -91 701 211 
Q 384 513 384 1019 
Q 384 1609 779 1909 
Q 1175 2209 1959 2209 
L 2766 2209 
L 2766 2266 
Q 2766 2663 2505 2880 
Q 2244 3097 1772 3097 
Q 1472 3097 1187 3025 
Q 903 2953 641 2809 
L 641 3341 
Q 956 3463 1253 3523 
Q 1550 3584 1831 3584 
Q 2591 3584 2966 3190 
Q 3341 2797 3341 1997 
z
" transform="scale(0.015625)"/>
       <path id="DejaVuSans-65" d="M 3597 1894 
L 3597 1613 
L 953 1613 
Q 991 1019 1311 708 
Q 1631 397 2203 397 
Q 2534 397 2845 478 
Q 3156 559 3463 722 
L 3463 178 
Q 3153 47 2828 -22 
Q 2503 -91 2169 -91 
Q 1331 -91 842 396 
Q 353 884 353 1716 
Q 353 2575 817 3079 
Q 1281 3584 2069 3584 
Q 2775 3584 3186 3129 
Q 3597 2675 3597 1894 
z
M 3022 2063 
Q 3016 2534 2758 2815 
Q 2500 3097 2075 3097 
Q 1594 3097 1305 2825 
Q 1016 2553 972 2059 
L 3022 2063 
z
" transform="scale(0.015625)"/>
       <path id="DejaVuSans-5b" d="M 550 4863 
L 1875 4863 
L 1875 4416 
L 1125 4416 
L 1125 -397 
L 1875 -397 
L 1875 -844 
L 550 -844 
L 550 4863 
z
" transform="scale(0.015625)"/>
       <path id="DejaVuSans-6d" d="M 3328 2828 
Q 3544 3216 3844 3400 
Q 4144 3584 4550 3584 
Q 5097 3584 5394 3201 
Q 5691 2819 5691 2113 
L 5691 0 
L 5113 0 
L 5113 2094 
Q 5113 2597 4934 2840 
Q 4756 3084 4391 3084 
Q 3944 3084 3684 2787 
Q 3425 2491 3425 1978 
L 3425 0 
L 2847 0 
L 2847 2094 
Q 2847 2600 2669 2842 
Q 2491 3084 2119 3084 
Q 1678 3084 1418 2786 
Q 1159 2488 1159 1978 
L 1159 0 
L 581 0 
L 581 3500 
L 1159 3500 
L 1159 2956 
Q 1356 3278 1631 3431 
Q 1906 3584 2284 3584 
Q 2666 3584 2933 3390 
Q 3200 3197 3328 2828 
z
" transform="scale(0.015625)"/>
       <path id="DejaVuSans-6f" d="M 1959 3097 
Q 1497 3097 1228 2736 
Q 959 2375 959 1747 
Q 959 1119 1226 758 
Q 1494 397 1959 397 
Q 2419 397 2687 759 
Q 2956 1122 2956 1747 
Q 2956 2369 2687 2733 
Q 2419 3097 1959 3097 
z
M 1959 3584 
Q 2709 3584 3137 3096 
Q 3566 2609 3566 1747 
Q 3566 888 3137 398 
Q 2709 -91 1959 -91 
Q 1206 -91 779 398 
Q 353 888 353 1747 
Q 353 2609 779 3096 
Q 1206 3584 1959 3584 
z
" transform="scale(0.015625)"/>
       <path id="DejaVuSans-2f" d="M 1625 4666 
L 2156 4666 
L 531 -594 
L 0 -594 
L 1625 4666 
z
" transform="scale(0.015625)"/>
       <path id="DejaVuSans-67" d="M 2906 1791 
Q 2906 2416 2648 2759 
Q 2391 3103 1925 3103 
Q 1463 3103 1205 2759 
Q 947 2416 947 1791 
Q 947 1169 1205 825 
Q 1463 481 1925 481 
Q 2391 481 2648 825 
Q 2906 1169 2906 1791 
z
M 3481 434 
Q 3481 -459 3084 -895 
Q 2688 -1331 1869 -1331 
Q 1566 -1331 1297 -1286 
Q 1028 -1241 775 -1147 
L 775 -588 
Q 1028 -725 1275 -790 
Q 1522 -856 1778 -856 
Q 2344 -856 2625 -561 
Q 2906 -266 2906 331 
L 2906 616 
Q 2728 306 2450 153 
Q 2172 0 1784 0 
Q 1141 0 747 490 
Q 353 981 353 1791 
Q 353 2603 747 3093 
Q 1141 3584 1784 3584 
Q 2172 3584 2450 3431 
Q 2728 3278 2906 2969 
L 2906 3500 
L 3481 3500 
L 3481 434 
z
" transform="scale(0.015625)"/>
       <path id="DejaVuSans-77" d="M 269 3500 
L 844 3500 
L 1563 769 
L 2278 3500 
L 2956 3500 
L 3675 769 
L 4391 3500 
L 4966 3500 
L 4050 0 
L 3372 0 
L 2619 2869 
L 1863 0 
L 1184 0 
L 269 3500 
z
" transform="scale(0.015625)"/>
       <path id="DejaVuSans-64" d="M 2906 2969 
L 2906 4863 
L 3481 4863 
L 3481 0 
L 2906 0 
L 2906 525 
Q 2725 213 2448 61 
Q 2172 -91 1784 -91 
Q 1150 -91 751 415 
Q 353 922 353 1747 
Q 353 2572 751 3078 
Q 1150 3584 1784 3584 
Q 2172 3584 2448 3432 
Q 2725 3281 2906 2969 
z
M 947 1747 
Q 947 1113 1208 752 
Q 1469 391 1925 391 
Q 2381 391 2643 752 
Q 2906 1113 2906 1747 
Q 2906 2381 2643 2742 
Q 2381 3103 1925 3103 
Q 1469 3103 1208 2742 
Q 947 2381 947 1747 
z
" transform="scale(0.015625)"/>
       <path id="DejaVuSans-68" d="M 3513 2113 
L 3513 0 
L 2938 0 
L 2938 2094 
Q 2938 2591 2744 2837 
Q 2550 3084 2163 3084 
Q 1697 3084 1428 2787 
Q 1159 2491 1159 1978 
L 1159 0 
L 581 0 
L 581 4863 
L 1159 4863 
L 1159 2956 
Q 1366 3272 1645 3428 
Q 1925 3584 2291 3584 
Q 2894 3584 3203 3211 
Q 3513 2838 3513 2113 
z
" transform="scale(0.015625)"/>
       <path id="DejaVuSans-5d" d="M 1947 4863 
L 1947 -844 
L 622 -844 
L 622 -397 
L 1369 -397 
L 1369 4416 
L 622 4416 
L 622 4863 
L 1947 4863 
z
" transform="scale(0.015625)"/>
      </defs>
      <use xlink:href="#DejaVuSans-66"/>
      <use xlink:href="#DejaVuSans-6c" x="35.205078"/>
      <use xlink:href="#DejaVuSans-75" x="62.988281"/>
      <use xlink:href="#DejaVuSans-78" x="126.367188"/>
      <use xlink:href="#DejaVuSans-20" x="185.546875"/>
      <use xlink:href="#DejaVuSans-76" x="217.333984"/>
      <use xlink:href="#DejaVuSans-61" x="276.513672"/>
      <use xlink:href="#DejaVuSans-6c" x="337.792969"/>
      <use xlink:href="#DejaVuSans-75" x="365.576172"/>
      <use xlink:href="#DejaVuSans-65" x="428.955078"/>
      <use xlink:href="#DejaVuSans-20" x="490.478516"/>
      <use xlink:href="#DejaVuSans-5b" x="522.265625"/>
      <use xlink:href="#DejaVuSans-6d" x="561.279297"/>
      <use xlink:href="#DejaVuSans-6d" x="658.691406"/>
      <use xlink:href="#DejaVuSans-6f" x="756.103516"/>
      <use xlink:href="#DejaVuSans-6c" x="817.285156"/>
      <use xlink:href="#DejaVuSans-2f" x="845.068359"/>
      <use xlink:href="#DejaVuSans-67" x="878.759766"/>
      <use xlink:href="#DejaVuSans-77" x="942.236328"/>
      <use xlink:href="#DejaVuSans-64" x="1024.023438"/>
      <use xlink:href="#DejaVuSans-2f" x="1087.5"/>
      <use xlink:href="#DejaVuSans-68" x="1121.191406"/>
      <use xlink:href="#DejaVuSans-5d" x="1184.570312"/>
     </g>
    </g>
   </g>
   <g id="matplotlib.axis_2">
    <g id="ytick_1">
     <g id="line2d_9">
      <defs>
       <path id="mb7aef8f690" d="M 0 0 
L -3.5 0 
" style="stroke: #000000; stroke-width: 0.8"/>
      </defs>
      <g>
       <use xlink:href="#mb7aef8f690" x="54.02" y="174.04" style="stroke: #000000; stroke-width: 0.8"/>
      </g>
     </g>
     <g id="text_10">
      <!-- 0.00 -->
      <g transform="translate(24.754375 177.839219) scale(0.1 -0.1)">
       <defs>
        <path id="DejaVuSans-2e" d="M 684 794 
L 1344 794 
L 1344 0 
L 684 0 
L 684 794 
z
" transform="scale(0.015625)"/>
       </defs>
       <use xlink:href="#DejaVuSans-30"/>
       <use xlink:href="#DejaVuSans-2e" x="63.623047"/>
       <use xlink:href="#DejaVuSans-30" x="95.410156"/>
       <use xlink:href="#DejaVuSans-30" x="159.033203"/>
      </g>
     </g>
    </g>
    <g id="ytick_2">
     <g id="line2d_10">
      <g>
       <use xlink:href="#mb7aef8f690" x="54.02" y="145.764561" style="stroke: #000000; stroke-width: 0.8"/>
      </g>
     </g>
     <g id="text_11">
      <!-- 0.05 -->
      <g transform="translate(24.754375 149.56378) scale(0.1 -0.1)">
       <use xlink:href="#DejaVuSans-30"/>
       <use xlink:href="#DejaVuSans-2e" x="63.623047"/>
       <use xlink:href="#DejaVuSans-30" x="95.410156"/>
       <use xlink:href="#DejaVuSans-35" x="159.033203"/>
      </g>
     </g>
    </g>
    <g id="ytick_3">
     <g id="line2d_11">
      <g>
       <use xlink:href="#mb7aef8f690" x="54.02" y="117.489122" style="stroke: #000000; stroke-width: 0.8"/>
      </g>
     </g>
     <g id="text_12">
      <!-- 0.10 -->
      <g transform="translate(24.754375 121.288341) scale(0.1 -0.1)">
       <use xlink:href="#DejaVuSans-30"/>
       <use xlink:href="#DejaVuSans-2e" x="63.623047"/>
       <use xlink:href="#DejaVuSans-31" x="95.410156"/>
       <use xlink:href="#DejaVuSans-30" x="159.033203"/>
      </g>
     </g>
    </g>
    <g id="ytick_4">
     <g id="line2d_12">
      <g>
       <use xlink:href="#mb7aef8f690" x="54.02" y="89.213684" style="stroke: #000000; stroke-width: 0.8"/>
      </g>
     </g>
     <g id="text_13">
      <!-- 0.15 -->
      <g transform="translate(24.754375 93.012902) scale(0.1 -0.1)">
       <use xlink:href="#DejaVuSans-30"/>
       <use xlink:href="#DejaVuSans-2e" x="63.623047"/>
       <use xlink:href="#DejaVuSans-31" x="95.410156"/>
       <use xlink:href="#DejaVuSans-35" x="159.033203"/>
      </g>
     </g>
    </g>
    <g id="ytick_5">
     <g id="line2d_13">
      <g>
       <use xlink:href="#mb7aef8f690" x="54.02" y="60.938245" style="stroke: #000000; stroke-width: 0.8"/>
      </g>
     </g>
     <g id="text_14">
      <!-- 0.20 -->
      <g transform="translate(24.754375 64.737463) scale(0.1 -0.1)">
       <use xlink:href="#DejaVuSans-30"/>
       <use xlink:href="#DejaVuSans-2e" x="63.623047"/>
       <use xlink:href="#DejaVuSans-32" x="95.410156"/>
       <use xlink:href="#DejaVuSans-30" x="159.033203"/>
      </g>
     </g>
    </g>
    <g id="ytick_6">
     <g id="line2d_14">
      <g>
       <use xlink:href="#mb7aef8f690" x="54.02" y="32.662806" style="stroke: #000000; stroke-width: 0.8"/>
      </g>
     </g>
     <g id="text_15">
      <!-- 0.25 -->
      <g transform="translate(24.754375 36.462025) scale(0.1 -0.1)">
       <use xlink:href="#DejaVuSans-30"/>
       <use xlink:href="#DejaVuSans-2e" x="63.623047"/>
       <use xlink:href="#DejaVuSans-32" x="95.410156"/>
       <use xlink:href="#DejaVuSans-35" x="159.033203"/>
      </g>
     </g>
    </g>
    <g id="text_16">
     <!-- density -->
     <g transform="translate(18.674688 118.792812) rotate(-90) scale(0.1 -0.1)">
      <defs>
       <path id="DejaVuSans-6e" d="M 3513 2113 
L 3513 0 
L 2938 0 
L 2938 2094 
Q 2938 2591 2744 2837 
Q 2550 3084 2163 3084 
Q 1697 3084 1428 2787 
Q 1159 2491 1159 1978 
L 1159 0 
L 581 0 
L 581 3500 
L 1159 3500 
L 1159 2956 
Q 1366 3272 1645 3428 
Q 1925 3584 2291 3584 
Q 2894 3584 3203 3211 
Q 3513 2838 3513 2113 
z
" transform="scale(0.015625)"/>
       <path id="DejaVuSans-73" d="M 2834 3397 
L 2834 2853 
Q 2591 2978 2328 3040 
Q 2066 3103 1784 3103 
Q 1356 3103 1142 2972 
Q 928 2841 928 2578 
Q 928 2378 1081 2264 
Q 1234 2150 1697 2047 
L 1894 2003 
Q 2506 1872 2764 1633 
Q 3022 1394 3022 966 
Q 3022 478 2636 193 
Q 2250 -91 1575 -91 
Q 1294 -91 989 -36 
Q 684 19 347 128 
L 347 722 
Q 666 556 975 473 
Q 1284 391 1588 391 
Q 1994 391 2212 530 
Q 2431 669 2431 922 
Q 2431 1156 2273 1281 
Q 2116 1406 1581 1522 
L 1381 1569 
Q 847 1681 609 1914 
Q 372 2147 372 2553 
Q 372 3047 722 3315 
Q 1072 3584 1716 3584 
Q 2034 3584 2315 3537 
Q 2597 3491 2834 3397 
z
" transform="scale(0.015625)"/>
       <path id="DejaVuSans-69" d="M 603 3500 
L 1178 3500 
L 1178 0 
L 603 0 
L 603 3500 
z
M 603 4863 
L 1178 4863 
L 1178 4134 
L 603 4134 
L 603 4863 
z
" transform="scale(0.015625)"/>
       <path id="DejaVuSans-74" d="M 1172 4494 
L 1172 3500 
L 2356 3500 
L 2356 3053 
L 1172 3053 
L 1172 1153 
Q 1172 725 1289 603 
Q 1406 481 1766 481 
L 2356 481 
L 2356 0 
L 1766 0 
Q 1100 0 847 248 
Q 594 497 594 1153 
L 594 3053 
L 172 3053 
L 172 3500 
L 594 3500 
L 594 4494 
L 1172 4494 
z
" transform="scale(0.015625)"/>
       <path id="DejaVuSans-79" d="M 2059 -325 
Q 1816 -950 1584 -1140 
Q 1353 -1331 966 -1331 
L 506 -1331 
L 506 -850 
L 844 -850 
Q 1081 -850 1212 -737 
Q 1344 -625 1503 -206 
L 1606 56 
L 191 3500 
L 800 3500 
L 1894 763 
L 2988 3500 
L 3597 3500 
L 2059 -325 
z
" transform="scale(0.015625)"/>
      </defs>
      <use xlink:href="#DejaVuSans-64"/>
      <use xlink:href="#DejaVuSans-65" x="63.476562"/>
      <use xlink:href="#DejaVuSans-6e" x="125"/>
      <use xlink:href="#DejaVuSans-73" x="188.378906"/>
      <use xlink:href="#DejaVuSans-69" x="240.478516"/>
      <use xlink:href="#DejaVuSans-74" x="268.261719"/>
      <use xlink:href="#DejaVuSans-79" x="307.470703"/>
     </g>
    </g>
   </g>
   <g id="patch_63">
    <path d="M 57.619808 174.04 
L 57.619808 33.887619 
L 61.795153 33.887619 
L 61.795153 55.962067 
L 65.970498 55.962067 
L 65.970498 74.045194 
L 70.145843 74.045194 
L 70.145843 90.499211 
L 74.321187 90.499211 
L 74.321187 106.920645 
L 78.496532 106.920645 
L 78.496532 122.885929 
L 82.671877 122.885929 
L 82.671877 139.030414 
L 86.847221 139.030414 
L 86.847221 150.515644 
L 91.022566 150.515644 
L 91.022566 159.671245 
L 95.197911 159.671245 
L 95.197911 165.307967 
L 99.373255 165.307967 
L 99.373255 169.673984 
L 103.5486 169.673984 
L 103.5486 171.417132 
L 107.723945 171.417132 
L 107.723945 172.606383 
L 111.89929 172.606383 
L 111.89929 173.258027 
L 116.074634 173.258027 
L 116.074634 173.567558 
L 120.249979 173.567558 
L 120.249979 173.860798 
L 124.425324 173.860798 
L 124.425324 174.007418 
L 128.600668 174.007418 
L 128.600668 174.007418 
L 132.776013 174.007418 
L 132.776013 174.04 
L 136.951358 174.04 
L 136.951358 173.991127 
L 141.126702 173.991127 
L 141.126702 174.04 
" clip-path="url(#p086f55c984)" style="fill: none; stroke: #1f77b4; stroke-width: 3; stroke-linejoin: miter"/>
   </g>
   <g id="patch_64">
    <path d="M 57.630139 174.04 
L 57.630139 170.17004 
L 75.628642 170.17004 
L 75.628642 165.113393 
L 93.627145 165.113393 
L 93.627145 159.62969 
L 111.625648 159.62969 
L 111.625648 157.649359 
L 129.624151 157.649359 
L 129.624151 157.672035 
L 147.622653 157.672035 
L 147.622653 158.885176 
L 165.621156 158.885176 
L 165.621156 159.93581 
L 183.619659 159.93581 
L 183.619659 161.523098 
L 201.618162 161.523098 
L 201.618162 162.970554 
L 219.616665 162.970554 
L 219.616665 164.497374 
L 237.615168 164.497374 
L 237.615168 165.952388 
L 255.61367 165.952388 
L 255.61367 167.222219 
L 273.612173 167.222219 
L 273.612173 168.813287 
L 291.610676 168.813287 
L 291.610676 170.188936 
L 309.609179 170.188936 
L 309.609179 171.640171 
L 327.607682 171.640171 
L 327.607682 172.611441 
L 345.606185 172.611441 
L 345.606185 173.352175 
L 363.604688 173.352175 
L 363.604688 173.809465 
L 381.60319 173.809465 
L 381.60319 173.964415 
L 399.601693 173.964415 
L 399.601693 174.028662 
L 417.600196 174.028662 
L 417.600196 174.04 
" clip-path="url(#p086f55c984)" style="fill: none; stroke: #ff7f0e; stroke-width: 3; stroke-linejoin: miter"/>
   </g>
   <g id="patch_65">
    <path d="M 57.620305 174.04 
L 57.620305 129.002661 
L 64.758097 129.002661 
L 64.758097 131.327906 
L 71.895889 131.327906 
L 71.895889 134.177285 
L 79.033681 134.177285 
L 79.033681 137.78904 
L 86.171473 137.78904 
L 86.171473 141.753393 
L 93.309265 141.753393 
L 93.309265 143.287674 
L 100.447057 143.287674 
L 100.447057 145.536682 
L 107.584849 145.536682 
L 107.584849 148.185937 
L 114.722641 148.185937 
L 114.722641 151.788162 
L 121.860433 151.788162 
L 121.860433 154.932961 
L 128.998225 154.932961 
L 128.998225 157.296326 
L 136.136017 157.296326 
L 136.136017 160.727016 
L 143.273809 160.727016 
L 143.273809 163.452509 
L 150.411601 163.452509 
L 150.411601 166.130353 
L 157.549392 166.130353 
L 157.549392 168.932083 
L 164.687184 168.932083 
L 164.687184 171.162032 
L 171.824976 171.162032 
L 171.824976 172.772551 
L 178.962768 172.772551 
L 178.962768 173.477748 
L 186.10056 173.477748 
L 186.10056 173.916114 
L 193.238352 173.916114 
L 193.238352 173.963762 
L 200.376144 173.963762 
L 200.376144 174.04 
" clip-path="url(#p086f55c984)" style="fill: none; stroke: #2ca02c; stroke-width: 3; stroke-linejoin: miter"/>
   </g>
   <g id="line2d_15">
    <path d="M 57.619804 174.04 
L 57.619804 26.88 
" clip-path="url(#p086f55c984)" style="fill: none; stroke-dasharray: 15,3; stroke-dashoffset: 0; stroke: #1f77b4; stroke-width: 3"/>
   </g>
   <g id="line2d_16">
    <path d="M 57.619804 174.04 
L 57.619804 26.88 
" clip-path="url(#p086f55c984)" style="fill: none; stroke-dasharray: 10,6; stroke-dashoffset: 0; stroke: #ff7f0e; stroke-width: 2"/>
   </g>
   <g id="line2d_17">
    <path d="M 193.883831 174.04 
L 193.883831 26.88 
" clip-path="url(#p086f55c984)" style="fill: none; stroke-dasharray: 5,6; stroke-dashoffset: 0; stroke: #2ca02c"/>
   </g>
   <g id="patch_66">
    <path d="M 54.02 174.04 
L 54.02 26.88 
" style="fill: none; stroke: #000000; stroke-width: 0.8; stroke-linejoin: miter; stroke-linecap: square"/>
   </g>
   <g id="patch_67">
    <path d="M 421.2 174.04 
L 421.2 26.88 
" style="fill: none; stroke: #000000; stroke-width: 0.8; stroke-linejoin: miter; stroke-linecap: square"/>
   </g>
   <g id="patch_68">
    <path d="M 54.02 174.04 
L 421.2 174.04 
" style="fill: none; stroke: #000000; stroke-width: 0.8; stroke-linejoin: miter; stroke-linecap: square"/>
   </g>
   <g id="patch_69">
    <path d="M 54.02 26.88 
L 421.2 26.88 
" style="fill: none; stroke: #000000; stroke-width: 0.8; stroke-linejoin: miter; stroke-linecap: square"/>
   </g>
   <g id="text_17">
    <!-- mdh -->
    <g transform="translate(224.154063 20.88) scale(0.12 -0.12)">
     <use xlink:href="#DejaVuSans-6d"/>
     <use xlink:href="#DejaVuSans-64" x="97.412109"/>
     <use xlink:href="#DejaVuSans-68" x="160.888672"/>
    </g>
   </g>
   <g id="legend_1">
    <g id="patch_70">
     <path d="M 321.467188 122.94875 
L 414.2 122.94875 
Q 416.2 122.94875 416.2 120.94875 
L 416.2 33.88 
Q 416.2 31.88 414.2 31.88 
L 321.467188 31.88 
Q 319.467188 31.88 319.467188 33.88 
L 319.467188 120.94875 
Q 319.467188 122.94875 321.467188 122.94875 
z
" style="fill: #ffffff; opacity: 0.8; stroke: #cccccc; stroke-linejoin: miter"/>
    </g>
    <g id="patch_71">
     <path d="M 323.467188 43.478437 
L 343.467188 43.478437 
L 343.467188 36.478437 
L 323.467188 36.478437 
z
" style="fill: #1f77b4; opacity: 0.25"/>
    </g>
    <g id="text_18">
     <!-- MaxEnt PCA -->
     <g transform="translate(351.467188 43.478437) scale(0.1 -0.1)">
      <defs>
       <path id="DejaVuSans-4d" d="M 628 4666 
L 1569 4666 
L 2759 1491 
L 3956 4666 
L 4897 4666 
L 4897 0 
L 4281 0 
L 4281 4097 
L 3078 897 
L 2444 897 
L 1241 4097 
L 1241 0 
L 628 0 
L 628 4666 
z
" transform="scale(0.015625)"/>
       <path id="DejaVuSans-45" d="M 628 4666 
L 3578 4666 
L 3578 4134 
L 1259 4134 
L 1259 2753 
L 3481 2753 
L 3481 2222 
L 1259 2222 
L 1259 531 
L 3634 531 
L 3634 0 
L 628 0 
L 628 4666 
z
" transform="scale(0.015625)"/>
       <path id="DejaVuSans-50" d="M 1259 4147 
L 1259 2394 
L 2053 2394 
Q 2494 2394 2734 2622 
Q 2975 2850 2975 3272 
Q 2975 3691 2734 3919 
Q 2494 4147 2053 4147 
L 1259 4147 
z
M 628 4666 
L 2053 4666 
Q 2838 4666 3239 4311 
Q 3641 3956 3641 3272 
Q 3641 2581 3239 2228 
Q 2838 1875 2053 1875 
L 1259 1875 
L 1259 0 
L 628 0 
L 628 4666 
z
" transform="scale(0.015625)"/>
       <path id="DejaVuSans-43" d="M 4122 4306 
L 4122 3641 
Q 3803 3938 3442 4084 
Q 3081 4231 2675 4231 
Q 1875 4231 1450 3742 
Q 1025 3253 1025 2328 
Q 1025 1406 1450 917 
Q 1875 428 2675 428 
Q 3081 428 3442 575 
Q 3803 722 4122 1019 
L 4122 359 
Q 3791 134 3420 21 
Q 3050 -91 2638 -91 
Q 1578 -91 968 557 
Q 359 1206 359 2328 
Q 359 3453 968 4101 
Q 1578 4750 2638 4750 
Q 3056 4750 3426 4639 
Q 3797 4528 4122 4306 
z
" transform="scale(0.015625)"/>
       <path id="DejaVuSans-41" d="M 2188 4044 
L 1331 1722 
L 3047 1722 
L 2188 4044 
z
M 1831 4666 
L 2547 4666 
L 4325 0 
L 3669 0 
L 3244 1197 
L 1141 1197 
L 716 0 
L 50 0 
L 1831 4666 
z
" transform="scale(0.015625)"/>
      </defs>
      <use xlink:href="#DejaVuSans-4d"/>
      <use xlink:href="#DejaVuSans-61" x="86.279297"/>
      <use xlink:href="#DejaVuSans-78" x="147.558594"/>
      <use xlink:href="#DejaVuSans-45" x="206.738281"/>
      <use xlink:href="#DejaVuSans-6e" x="269.921875"/>
      <use xlink:href="#DejaVuSans-74" x="333.300781"/>
      <use xlink:href="#DejaVuSans-20" x="372.509766"/>
      <use xlink:href="#DejaVuSans-50" x="404.296875"/>
      <use xlink:href="#DejaVuSans-43" x="464.599609"/>
      <use xlink:href="#DejaVuSans-41" x="534.423828"/>
     </g>
    </g>
    <g id="patch_72">
     <path d="M 323.467188 58.156562 
L 343.467188 58.156562 
L 343.467188 51.156562 
L 323.467188 51.156562 
z
" style="fill: #ff7f0e; opacity: 0.25"/>
    </g>
    <g id="text_19">
     <!-- MaxEnt GLC -->
     <g transform="translate(351.467188 58.156562) scale(0.1 -0.1)">
      <defs>
       <path id="DejaVuSans-47" d="M 3809 666 
L 3809 1919 
L 2778 1919 
L 2778 2438 
L 4434 2438 
L 4434 434 
Q 4069 175 3628 42 
Q 3188 -91 2688 -91 
Q 1594 -91 976 548 
Q 359 1188 359 2328 
Q 359 3472 976 4111 
Q 1594 4750 2688 4750 
Q 3144 4750 3555 4637 
Q 3966 4525 4313 4306 
L 4313 3634 
Q 3963 3931 3569 4081 
Q 3175 4231 2741 4231 
Q 1884 4231 1454 3753 
Q 1025 3275 1025 2328 
Q 1025 1384 1454 906 
Q 1884 428 2741 428 
Q 3075 428 3337 486 
Q 3600 544 3809 666 
z
" transform="scale(0.015625)"/>
       <path id="DejaVuSans-4c" d="M 628 4666 
L 1259 4666 
L 1259 531 
L 3531 531 
L 3531 0 
L 628 0 
L 628 4666 
z
" transform="scale(0.015625)"/>
      </defs>
      <use xlink:href="#DejaVuSans-4d"/>
      <use xlink:href="#DejaVuSans-61" x="86.279297"/>
      <use xlink:href="#DejaVuSans-78" x="147.558594"/>
      <use xlink:href="#DejaVuSans-45" x="206.738281"/>
      <use xlink:href="#DejaVuSans-6e" x="269.921875"/>
      <use xlink:href="#DejaVuSans-74" x="333.300781"/>
      <use xlink:href="#DejaVuSans-20" x="372.509766"/>
      <use xlink:href="#DejaVuSans-47" x="404.296875"/>
      <use xlink:href="#DejaVuSans-4c" x="481.787109"/>
      <use xlink:href="#DejaVuSans-43" x="537.5"/>
     </g>
    </g>
    <g id="patch_73">
     <path d="M 323.467188 72.834687 
L 343.467188 72.834687 
L 343.467188 65.834687 
L 323.467188 65.834687 
z
" style="fill: #2ca02c; opacity: 0.25"/>
    </g>
    <g id="text_20">
     <!-- MaxEnt CIT -->
     <g transform="translate(351.467188 72.834687) scale(0.1 -0.1)">
      <defs>
       <path id="DejaVuSans-49" d="M 628 4666 
L 1259 4666 
L 1259 0 
L 628 0 
L 628 4666 
z
" transform="scale(0.015625)"/>
       <path id="DejaVuSans-54" d="M -19 4666 
L 3928 4666 
L 3928 4134 
L 2272 4134 
L 2272 0 
L 1638 0 
L 1638 4134 
L -19 4134 
L -19 4666 
z
" transform="scale(0.015625)"/>
      </defs>
      <use xlink:href="#DejaVuSans-4d"/>
      <use xlink:href="#DejaVuSans-61" x="86.279297"/>
      <use xlink:href="#DejaVuSans-78" x="147.558594"/>
      <use xlink:href="#DejaVuSans-45" x="206.738281"/>
      <use xlink:href="#DejaVuSans-6e" x="269.921875"/>
      <use xlink:href="#DejaVuSans-74" x="333.300781"/>
      <use xlink:href="#DejaVuSans-20" x="372.509766"/>
      <use xlink:href="#DejaVuSans-43" x="404.296875"/>
      <use xlink:href="#DejaVuSans-49" x="474.121094"/>
      <use xlink:href="#DejaVuSans-54" x="503.613281"/>
     </g>
    </g>
    <g id="line2d_18">
     <path d="M 323.467188 84.012812 
L 333.467188 84.012812 
L 343.467188 84.012812 
" style="fill: none; stroke-dasharray: 15,3; stroke-dashoffset: 0; stroke: #1f77b4; stroke-width: 3"/>
    </g>
    <g id="text_21">
     <!-- FBA for PCA -->
     <g transform="translate(351.467188 87.512812) scale(0.1 -0.1)">
      <defs>
       <path id="DejaVuSans-46" d="M 628 4666 
L 3309 4666 
L 3309 4134 
L 1259 4134 
L 1259 2759 
L 3109 2759 
L 3109 2228 
L 1259 2228 
L 1259 0 
L 628 0 
L 628 4666 
z
" transform="scale(0.015625)"/>
       <path id="DejaVuSans-42" d="M 1259 2228 
L 1259 519 
L 2272 519 
Q 2781 519 3026 730 
Q 3272 941 3272 1375 
Q 3272 1813 3026 2020 
Q 2781 2228 2272 2228 
L 1259 2228 
z
M 1259 4147 
L 1259 2741 
L 2194 2741 
Q 2656 2741 2882 2914 
Q 3109 3088 3109 3444 
Q 3109 3797 2882 3972 
Q 2656 4147 2194 4147 
L 1259 4147 
z
M 628 4666 
L 2241 4666 
Q 2963 4666 3353 4366 
Q 3744 4066 3744 3513 
Q 3744 3084 3544 2831 
Q 3344 2578 2956 2516 
Q 3422 2416 3680 2098 
Q 3938 1781 3938 1306 
Q 3938 681 3513 340 
Q 3088 0 2303 0 
L 628 0 
L 628 4666 
z
" transform="scale(0.015625)"/>
       <path id="DejaVuSans-72" d="M 2631 2963 
Q 2534 3019 2420 3045 
Q 2306 3072 2169 3072 
Q 1681 3072 1420 2755 
Q 1159 2438 1159 1844 
L 1159 0 
L 581 0 
L 581 3500 
L 1159 3500 
L 1159 2956 
Q 1341 3275 1631 3429 
Q 1922 3584 2338 3584 
Q 2397 3584 2469 3576 
Q 2541 3569 2628 3553 
L 2631 2963 
z
" transform="scale(0.015625)"/>
      </defs>
      <use xlink:href="#DejaVuSans-46"/>
      <use xlink:href="#DejaVuSans-42" x="57.519531"/>
      <use xlink:href="#DejaVuSans-41" x="126.123047"/>
      <use xlink:href="#DejaVuSans-20" x="194.53125"/>
      <use xlink:href="#DejaVuSans-66" x="226.318359"/>
      <use xlink:href="#DejaVuSans-6f" x="261.523438"/>
      <use xlink:href="#DejaVuSans-72" x="322.705078"/>
      <use xlink:href="#DejaVuSans-20" x="363.818359"/>
      <use xlink:href="#DejaVuSans-50" x="395.605469"/>
      <use xlink:href="#DejaVuSans-43" x="455.908203"/>
      <use xlink:href="#DejaVuSans-41" x="525.732422"/>
     </g>
    </g>
    <g id="line2d_19">
     <path d="M 323.467188 98.690937 
L 333.467188 98.690937 
L 343.467188 98.690937 
" style="fill: none; stroke-dasharray: 10,6; stroke-dashoffset: 0; stroke: #ff7f0e; stroke-width: 2"/>
    </g>
    <g id="text_22">
     <!-- FBA for GLC -->
     <g transform="translate(351.467188 102.190937) scale(0.1 -0.1)">
      <use xlink:href="#DejaVuSans-46"/>
      <use xlink:href="#DejaVuSans-42" x="57.519531"/>
      <use xlink:href="#DejaVuSans-41" x="126.123047"/>
      <use xlink:href="#DejaVuSans-20" x="194.53125"/>
      <use xlink:href="#DejaVuSans-66" x="226.318359"/>
      <use xlink:href="#DejaVuSans-6f" x="261.523438"/>
      <use xlink:href="#DejaVuSans-72" x="322.705078"/>
      <use xlink:href="#DejaVuSans-20" x="363.818359"/>
      <use xlink:href="#DejaVuSans-47" x="395.605469"/>
      <use xlink:href="#DejaVuSans-4c" x="473.095703"/>
      <use xlink:href="#DejaVuSans-43" x="528.808594"/>
     </g>
    </g>
    <g id="line2d_20">
     <path d="M 323.467188 113.369062 
L 333.467188 113.369062 
L 343.467188 113.369062 
" style="fill: none; stroke-dasharray: 5,6; stroke-dashoffset: 0; stroke: #2ca02c"/>
    </g>
    <g id="text_23">
     <!-- FBA for CIT -->
     <g transform="translate(351.467188 116.869062) scale(0.1 -0.1)">
      <use xlink:href="#DejaVuSans-46"/>
      <use xlink:href="#DejaVuSans-42" x="57.519531"/>
      <use xlink:href="#DejaVuSans-41" x="126.123047"/>
      <use xlink:href="#DejaVuSans-20" x="194.53125"/>
      <use xlink:href="#DejaVuSans-66" x="226.318359"/>
      <use xlink:href="#DejaVuSans-6f" x="261.523438"/>
      <use xlink:href="#DejaVuSans-72" x="322.705078"/>
      <use xlink:href="#DejaVuSans-20" x="363.818359"/>
      <use xlink:href="#DejaVuSans-43" x="395.605469"/>
      <use xlink:href="#DejaVuSans-49" x="465.429688"/>
      <use xlink:href="#DejaVuSans-54" x="494.921875"/>
     </g>
    </g>
   </g>
  </g>
 </g>
 <defs>
  <clipPath id="p086f55c984">
   <rect x="54.02" y="26.88" width="367.18" height="147.16"/>
  </clipPath>
 </defs>
</svg>
