<?xml version="1.0" encoding="utf-8" standalone="no"?>
<!DOCTYPE svg PUBLIC "-//W3C//DTD SVG 1.1//EN"
  "http://www.w3.org/Graphics/SVG/1.1/DTD/svg11.dtd">
<svg xmlns:xlink="http://www.w3.org/1999/xlink" width="432pt" height="216pt" viewBox="0 0 432 216" xmlns="http://www.w3.org/2000/svg" version="1.1">
 <metadata>
  <rdf:RDF xmlns:dc="http://purl.org/dc/elements/1.1/" xmlns:cc="http://creativecommons.org/ns#" xmlns:rdf="http://www.w3.org/1999/02/22-rdf-syntax-ns#">
   <cc:Work>
    <dc:type rdf:resource="http://purl.org/dc/dcmitype/StillImage"/>
    <dc:date>2024-06-19T16:03:48.632043</dc:date>
    <dc:format>image/svg+xml</dc:format>
    <dc:creator>
     <cc:Agent>
      <dc:title>Matplotlib v3.9.0, https://matplotlib.org/</dc:title>
     </cc:Agent>
    </dc:creator>
   </cc:Work>
  </rdf:RDF>
 </metadata>
 <defs>
  <style type="text/css">*{stroke-linejoin: round; stroke-linecap: butt}</style>
 </defs>
 <g id="figure_1">
  <g id="patch_1">
   <path d="M 0 216 
L 432 216 
L 432 0 
L 0 0 
z
" style="fill: #ffffff"/>
  </g>
  <g id="axes_1">
   <g id="patch_2">
    <path d="M 54.02 174.04 
L 421.2 174.04 
L 421.2 26.88 
L 54.02 26.88 
z
" style="fill: #ffffff"/>
   </g>
   <g id="patch_3">
    <path d="M 63.889714 174.04 
L 69.538072 174.04 
L 69.538072 161.351024 
L 63.889714 161.351024 
z
" clip-path="url(#pa4f1f45524)" style="fill: #1f77b4; opacity: 0.25"/>
   </g>
   <g id="patch_4">
    <path d="M 69.538072 174.04 
L 75.186431 174.04 
L 75.186431 116.482101 
L 69.538072 116.482101 
z
" clip-path="url(#pa4f1f45524)" style="fill: #1f77b4; opacity: 0.25"/>
   </g>
   <g id="patch_5">
    <path d="M 75.186431 174.04 
L 80.834789 174.04 
L 80.834789 96.759619 
L 75.186431 96.759619 
z
" clip-path="url(#pa4f1f45524)" style="fill: #1f77b4; opacity: 0.25"/>
   </g>
   <g id="patch_6">
    <path d="M 80.834789 174.04 
L 86.483148 174.04 
L 86.483148 104.785313 
L 80.834789 104.785313 
z
" clip-path="url(#pa4f1f45524)" style="fill: #1f77b4; opacity: 0.25"/>
   </g>
   <g id="patch_7">
    <path d="M 86.483148 174.04 
L 92.131506 174.04 
L 92.131506 114.806407 
L 86.483148 114.806407 
z
" clip-path="url(#pa4f1f45524)" style="fill: #1f77b4; opacity: 0.25"/>
   </g>
   <g id="patch_8">
    <path d="M 92.131506 174.04 
L 97.779865 174.04 
L 97.779865 128.686008 
L 92.131506 128.686008 
z
" clip-path="url(#pa4f1f45524)" style="fill: #1f77b4; opacity: 0.25"/>
   </g>
   <g id="patch_9">
    <path d="M 97.779865 174.04 
L 103.428223 174.04 
L 103.428223 138.387396 
L 97.779865 138.387396 
z
" clip-path="url(#pa4f1f45524)" style="fill: #1f77b4; opacity: 0.25"/>
   </g>
   <g id="patch_10">
    <path d="M 103.428223 174.04 
L 109.076582 174.04 
L 109.076582 146.291823 
L 103.428223 146.291823 
z
" clip-path="url(#pa4f1f45524)" style="fill: #1f77b4; opacity: 0.25"/>
   </g>
   <g id="patch_11">
    <path d="M 109.076582 174.04 
L 114.72494 174.04 
L 114.72494 154.769514 
L 109.076582 154.769514 
z
" clip-path="url(#pa4f1f45524)" style="fill: #1f77b4; opacity: 0.25"/>
   </g>
   <g id="patch_12">
    <path d="M 114.72494 174.04 
L 120.373299 174.04 
L 120.373299 160.226545 
L 114.72494 160.226545 
z
" clip-path="url(#pa4f1f45524)" style="fill: #1f77b4; opacity: 0.25"/>
   </g>
   <g id="patch_13">
    <path d="M 120.373299 174.04 
L 126.021657 174.04 
L 126.021657 164.757535 
L 120.373299 164.757535 
z
" clip-path="url(#pa4f1f45524)" style="fill: #1f77b4; opacity: 0.25"/>
   </g>
   <g id="patch_14">
    <path d="M 126.021657 174.04 
L 131.670016 174.04 
L 131.670016 168.064826 
L 126.021657 168.064826 
z
" clip-path="url(#pa4f1f45524)" style="fill: #1f77b4; opacity: 0.25"/>
   </g>
   <g id="patch_15">
    <path d="M 131.670016 174.04 
L 137.318374 174.04 
L 137.318374 170.170469 
L 131.670016 170.170469 
z
" clip-path="url(#pa4f1f45524)" style="fill: #1f77b4; opacity: 0.25"/>
   </g>
   <g id="patch_16">
    <path d="M 137.318374 174.04 
L 142.966733 174.04 
L 142.966733 172.209965 
L 137.318374 172.209965 
z
" clip-path="url(#pa4f1f45524)" style="fill: #1f77b4; opacity: 0.25"/>
   </g>
   <g id="patch_17">
    <path d="M 142.966733 174.04 
L 148.615091 174.04 
L 148.615091 172.893472 
L 142.966733 172.893472 
z
" clip-path="url(#pa4f1f45524)" style="fill: #1f77b4; opacity: 0.25"/>
   </g>
   <g id="patch_18">
    <path d="M 148.615091 174.04 
L 154.26345 174.04 
L 154.26345 173.47776 
L 148.615091 173.47776 
z
" clip-path="url(#pa4f1f45524)" style="fill: #1f77b4; opacity: 0.25"/>
   </g>
   <g id="patch_19">
    <path d="M 154.26345 174.04 
L 159.911808 174.04 
L 159.911808 173.797465 
L 154.26345 173.797465 
z
" clip-path="url(#pa4f1f45524)" style="fill: #1f77b4; opacity: 0.25"/>
   </g>
   <g id="patch_20">
    <path d="M 159.911808 174.04 
L 165.560167 174.04 
L 165.560167 173.929757 
L 159.911808 173.929757 
z
" clip-path="url(#pa4f1f45524)" style="fill: #1f77b4; opacity: 0.25"/>
   </g>
   <g id="patch_21">
    <path d="M 165.560167 174.04 
L 171.208525 174.04 
L 171.208525 173.96283 
L 165.560167 173.96283 
z
" clip-path="url(#pa4f1f45524)" style="fill: #1f77b4; opacity: 0.25"/>
   </g>
   <g id="patch_22">
    <path d="M 171.208525 174.04 
L 176.856884 174.04 
L 176.856884 174.017951 
L 171.208525 174.017951 
z
" clip-path="url(#pa4f1f45524)" style="fill: #1f77b4; opacity: 0.25"/>
   </g>
   <g id="patch_23">
    <path d="M 106.826518 174.04 
L 122.365202 174.04 
L 122.365202 174.007941 
L 106.826518 174.007941 
z
" clip-path="url(#pa4f1f45524)" style="fill: #ff7f0e; opacity: 0.25"/>
   </g>
   <g id="patch_24">
    <path d="M 122.365202 174.04 
L 137.903886 174.04 
L 137.903886 173.935808 
L 122.365202 173.935808 
z
" clip-path="url(#pa4f1f45524)" style="fill: #ff7f0e; opacity: 0.25"/>
   </g>
   <g id="patch_25">
    <path d="M 137.903886 174.04 
L 153.44257 174.04 
L 153.44257 173.639263 
L 137.903886 173.639263 
z
" clip-path="url(#pa4f1f45524)" style="fill: #ff7f0e; opacity: 0.25"/>
   </g>
   <g id="patch_26">
    <path d="M 153.44257 174.04 
L 168.981254 174.04 
L 168.981254 173.274593 
L 153.44257 173.274593 
z
" clip-path="url(#pa4f1f45524)" style="fill: #ff7f0e; opacity: 0.25"/>
   </g>
   <g id="patch_27">
    <path d="M 168.981254 174.04 
L 184.519938 174.04 
L 184.519938 172.425031 
L 168.981254 172.425031 
z
" clip-path="url(#pa4f1f45524)" style="fill: #ff7f0e; opacity: 0.25"/>
   </g>
   <g id="patch_28">
    <path d="M 184.519938 174.04 
L 200.058621 174.04 
L 200.058621 170.970356 
L 184.519938 170.970356 
z
" clip-path="url(#pa4f1f45524)" style="fill: #ff7f0e; opacity: 0.25"/>
   </g>
   <g id="patch_29">
    <path d="M 200.058621 174.04 
L 215.597305 174.04 
L 215.597305 168.449721 
L 200.058621 168.449721 
z
" clip-path="url(#pa4f1f45524)" style="fill: #ff7f0e; opacity: 0.25"/>
   </g>
   <g id="patch_30">
    <path d="M 215.597305 174.04 
L 231.135989 174.04 
L 231.135989 164.534522 
L 215.597305 164.534522 
z
" clip-path="url(#pa4f1f45524)" style="fill: #ff7f0e; opacity: 0.25"/>
   </g>
   <g id="patch_31">
    <path d="M 231.135989 174.04 
L 246.674673 174.04 
L 246.674673 158.699794 
L 231.135989 158.699794 
z
" clip-path="url(#pa4f1f45524)" style="fill: #ff7f0e; opacity: 0.25"/>
   </g>
   <g id="patch_32">
    <path d="M 246.674673 174.04 
L 262.213357 174.04 
L 262.213357 153.185655 
L 246.674673 153.185655 
z
" clip-path="url(#pa4f1f45524)" style="fill: #ff7f0e; opacity: 0.25"/>
   </g>
   <g id="patch_33">
    <path d="M 262.213357 174.04 
L 277.752041 174.04 
L 277.752041 148.809609 
L 262.213357 148.809609 
z
" clip-path="url(#pa4f1f45524)" style="fill: #ff7f0e; opacity: 0.25"/>
   </g>
   <g id="patch_34">
    <path d="M 277.752041 174.04 
L 293.290725 174.04 
L 293.290725 149.166265 
L 277.752041 149.166265 
z
" clip-path="url(#pa4f1f45524)" style="fill: #ff7f0e; opacity: 0.25"/>
   </g>
   <g id="patch_35">
    <path d="M 293.290725 174.04 
L 308.829409 174.04 
L 308.829409 152.881095 
L 293.290725 152.881095 
z
" clip-path="url(#pa4f1f45524)" style="fill: #ff7f0e; opacity: 0.25"/>
   </g>
   <g id="patch_36">
    <path d="M 308.829409 174.04 
L 324.368093 174.04 
L 324.368093 158.671743 
L 308.829409 158.671743 
z
" clip-path="url(#pa4f1f45524)" style="fill: #ff7f0e; opacity: 0.25"/>
   </g>
   <g id="patch_37">
    <path d="M 324.368093 174.04 
L 339.906777 174.04 
L 339.906777 164.943274 
L 324.368093 164.943274 
z
" clip-path="url(#pa4f1f45524)" style="fill: #ff7f0e; opacity: 0.25"/>
   </g>
   <g id="patch_38">
    <path d="M 339.906777 174.04 
L 355.44546 174.04 
L 355.44546 169.599836 
L 339.906777 169.599836 
z
" clip-path="url(#pa4f1f45524)" style="fill: #ff7f0e; opacity: 0.25"/>
   </g>
   <g id="patch_39">
    <path d="M 355.44546 174.04 
L 370.984144 174.04 
L 370.984144 172.180581 
L 355.44546 172.180581 
z
" clip-path="url(#pa4f1f45524)" style="fill: #ff7f0e; opacity: 0.25"/>
   </g>
   <g id="patch_40">
    <path d="M 370.984144 174.04 
L 386.522828 174.04 
L 386.522828 173.294629 
L 370.984144 173.294629 
z
" clip-path="url(#pa4f1f45524)" style="fill: #ff7f0e; opacity: 0.25"/>
   </g>
   <g id="patch_41">
    <path d="M 386.522828 174.04 
L 402.061512 174.04 
L 402.061512 173.875698 
L 386.522828 173.875698 
z
" clip-path="url(#pa4f1f45524)" style="fill: #ff7f0e; opacity: 0.25"/>
   </g>
   <g id="patch_42">
    <path d="M 402.061512 174.04 
L 417.600196 174.04 
L 417.600196 173.959853 
L 402.061512 173.959853 
z
" clip-path="url(#pa4f1f45524)" style="fill: #ff7f0e; opacity: 0.25"/>
   </g>
   <g id="patch_43">
    <path d="M 79.120221 174.04 
L 83.14777 174.04 
L 83.14777 164.840809 
L 79.120221 164.840809 
z
" clip-path="url(#pa4f1f45524)" style="fill: #2ca02c; opacity: 0.25"/>
   </g>
   <g id="patch_44">
    <path d="M 83.14777 174.04 
L 87.175319 174.04 
L 87.175319 104.837346 
L 83.14777 104.837346 
z
" clip-path="url(#pa4f1f45524)" style="fill: #2ca02c; opacity: 0.25"/>
   </g>
   <g id="patch_45">
    <path d="M 87.175319 174.04 
L 91.202868 174.04 
L 91.202868 38.927848 
L 87.175319 38.927848 
z
" clip-path="url(#pa4f1f45524)" style="fill: #2ca02c; opacity: 0.25"/>
   </g>
   <g id="patch_46">
    <path d="M 91.202868 174.04 
L 95.230417 174.04 
L 95.230417 33.887619 
L 91.202868 33.887619 
z
" clip-path="url(#pa4f1f45524)" style="fill: #2ca02c; opacity: 0.25"/>
   </g>
   <g id="patch_47">
    <path d="M 95.230417 174.04 
L 99.257966 174.04 
L 99.257966 67.406688 
L 95.230417 67.406688 
z
" clip-path="url(#pa4f1f45524)" style="fill: #2ca02c; opacity: 0.25"/>
   </g>
   <g id="patch_48">
    <path d="M 99.257966 174.04 
L 103.285514 174.04 
L 103.285514 105.981447 
L 99.257966 105.981447 
z
" clip-path="url(#pa4f1f45524)" style="fill: #2ca02c; opacity: 0.25"/>
   </g>
   <g id="patch_49">
    <path d="M 103.285514 174.04 
L 107.313063 174.04 
L 107.313063 133.053352 
L 103.285514 133.053352 
z
" clip-path="url(#pa4f1f45524)" style="fill: #2ca02c; opacity: 0.25"/>
   </g>
   <g id="patch_50">
    <path d="M 107.313063 174.04 
L 111.340612 174.04 
L 111.340612 151.884637 
L 107.313063 151.884637 
z
" clip-path="url(#pa4f1f45524)" style="fill: #2ca02c; opacity: 0.25"/>
   </g>
   <g id="patch_51">
    <path d="M 111.340612 174.04 
L 115.368161 174.04 
L 115.368161 161.439427 
L 111.340612 161.439427 
z
" clip-path="url(#pa4f1f45524)" style="fill: #2ca02c; opacity: 0.25"/>
   </g>
   <g id="patch_52">
    <path d="M 115.368161 174.04 
L 119.39571 174.04 
L 119.39571 167.29908 
L 115.368161 167.29908 
z
" clip-path="url(#pa4f1f45524)" style="fill: #2ca02c; opacity: 0.25"/>
   </g>
   <g id="patch_53">
    <path d="M 119.39571 174.04 
L 123.423259 174.04 
L 123.423259 170.453089 
L 119.39571 170.453089 
z
" clip-path="url(#pa4f1f45524)" style="fill: #2ca02c; opacity: 0.25"/>
   </g>
   <g id="patch_54">
    <path d="M 123.423259 174.04 
L 127.450808 174.04 
L 127.450808 172.045554 
L 123.423259 172.045554 
z
" clip-path="url(#pa4f1f45524)" style="fill: #2ca02c; opacity: 0.25"/>
   </g>
   <g id="patch_55">
    <path d="M 127.450808 174.04 
L 131.478357 174.04 
L 131.478357 173.251498 
L 127.450808 173.251498 
z
" clip-path="url(#pa4f1f45524)" style="fill: #2ca02c; opacity: 0.25"/>
   </g>
   <g id="patch_56">
    <path d="M 131.478357 174.04 
L 135.505905 174.04 
L 135.505905 173.514332 
L 131.478357 173.514332 
z
" clip-path="url(#pa4f1f45524)" style="fill: #2ca02c; opacity: 0.25"/>
   </g>
   <g id="patch_57">
    <path d="M 135.505905 174.04 
L 139.533454 174.04 
L 139.533454 173.730783 
L 135.505905 173.730783 
z
" clip-path="url(#pa4f1f45524)" style="fill: #2ca02c; opacity: 0.25"/>
   </g>
   <g id="patch_58">
    <path d="M 139.533454 174.04 
L 143.561003 174.04 
L 143.561003 173.885392 
L 139.533454 173.885392 
z
" clip-path="url(#pa4f1f45524)" style="fill: #2ca02c; opacity: 0.25"/>
   </g>
   <g id="patch_59">
    <path d="M 143.561003 174.04 
L 147.588552 174.04 
L 147.588552 173.993618 
L 143.561003 173.993618 
z
" clip-path="url(#pa4f1f45524)" style="fill: #2ca02c; opacity: 0.25"/>
   </g>
   <g id="patch_60">
    <path d="M 147.588552 174.04 
L 151.616101 174.04 
L 151.616101 173.931774 
L 147.588552 173.931774 
z
" clip-path="url(#pa4f1f45524)" style="fill: #2ca02c; opacity: 0.25"/>
   </g>
   <g id="patch_61">
    <path d="M 151.616101 174.04 
L 155.64365 174.04 
L 155.64365 173.978157 
L 151.616101 173.978157 
z
" clip-path="url(#pa4f1f45524)" style="fill: #2ca02c; opacity: 0.25"/>
   </g>
   <g id="patch_62">
    <path d="M 155.64365 174.04 
L 159.671199 174.04 
L 159.671199 174.024539 
L 155.64365 174.024539 
z
" clip-path="url(#pa4f1f45524)" style="fill: #2ca02c; opacity: 0.25"/>
   </g>
   <g id="matplotlib.axis_1">
    <g id="xtick_1">
     <g id="line2d_1">
      <defs>
       <path id="m46c34483da" d="M 0 0 
L 0 3.5 
" style="stroke: #000000; stroke-width: 0.8"/>
      </defs>
      <g>
       <use xlink:href="#m46c34483da" x="57.619804" y="174.04" style="stroke: #000000; stroke-width: 0.8"/>
      </g>
     </g>
     <g id="text_1">
      <!-- 0 -->
      <g transform="translate(54.438554 188.638438) scale(0.1 -0.1)">
       <defs>
        <path id="DejaVuSans-30" d="M 2034 4250 
Q 1547 4250 1301 3770 
Q 1056 3291 1056 2328 
Q 1056 1369 1301 889 
Q 1547 409 2034 409 
Q 2525 409 2770 889 
Q 3016 1369 3016 2328 
Q 3016 3291 2770 3770 
Q 2525 4250 2034 4250 
z
M 2034 4750 
Q 2819 4750 3233 4129 
Q 3647 3509 3647 2328 
Q 3647 1150 3233 529 
Q 2819 -91 2034 -91 
Q 1250 -91 836 529 
Q 422 1150 422 2328 
Q 422 3509 836 4129 
Q 1250 4750 2034 4750 
z
" transform="scale(0.015625)"/>
       </defs>
       <use xlink:href="#DejaVuSans-30"/>
      </g>
     </g>
    </g>
    <g id="xtick_2">
     <g id="line2d_2">
      <g>
       <use xlink:href="#m46c34483da" x="118.3152" y="174.04" style="stroke: #000000; stroke-width: 0.8"/>
      </g>
     </g>
     <g id="text_2">
      <!-- 2 -->
      <g transform="translate(115.13395 188.638438) scale(0.1 -0.1)">
       <defs>
        <path id="DejaVuSans-32" d="M 1228 531 
L 3431 531 
L 3431 0 
L 469 0 
L 469 531 
Q 828 903 1448 1529 
Q 2069 2156 2228 2338 
Q 2531 2678 2651 2914 
Q 2772 3150 2772 3378 
Q 2772 3750 2511 3984 
Q 2250 4219 1831 4219 
Q 1534 4219 1204 4116 
Q 875 4013 500 3803 
L 500 4441 
Q 881 4594 1212 4672 
Q 1544 4750 1819 4750 
Q 2544 4750 2975 4387 
Q 3406 4025 3406 3419 
Q 3406 3131 3298 2873 
Q 3191 2616 2906 2266 
Q 2828 2175 2409 1742 
Q 1991 1309 1228 531 
z
" transform="scale(0.015625)"/>
       </defs>
       <use xlink:href="#DejaVuSans-32"/>
      </g>
     </g>
    </g>
    <g id="xtick_3">
     <g id="line2d_3">
      <g>
       <use xlink:href="#m46c34483da" x="179.010596" y="174.04" style="stroke: #000000; stroke-width: 0.8"/>
      </g>
     </g>
     <g id="text_3">
      <!-- 4 -->
      <g transform="translate(175.829346 188.638438) scale(0.1 -0.1)">
       <defs>
        <path id="DejaVuSans-34" d="M 2419 4116 
L 825 1625 
L 2419 1625 
L 2419 4116 
z
M 2253 4666 
L 3047 4666 
L 3047 1625 
L 3713 1625 
L 3713 1100 
L 3047 1100 
L 3047 0 
L 2419 0 
L 2419 1100 
L 313 1100 
L 313 1709 
L 2253 4666 
z
" transform="scale(0.015625)"/>
       </defs>
       <use xlink:href="#DejaVuSans-34"/>
      </g>
     </g>
    </g>
    <g id="xtick_4">
     <g id="line2d_4">
      <g>
       <use xlink:href="#m46c34483da" x="239.705992" y="174.04" style="stroke: #000000; stroke-width: 0.8"/>
      </g>
     </g>
     <g id="text_4">
      <!-- 6 -->
      <g transform="translate(236.524742 188.638438) scale(0.1 -0.1)">
       <defs>
        <path id="DejaVuSans-36" d="M 2113 2584 
Q 1688 2584 1439 2293 
Q 1191 2003 1191 1497 
Q 1191 994 1439 701 
Q 1688 409 2113 409 
Q 2538 409 2786 701 
Q 3034 994 3034 1497 
Q 3034 2003 2786 2293 
Q 2538 2584 2113 2584 
z
M 3366 4563 
L 3366 3988 
Q 3128 4100 2886 4159 
Q 2644 4219 2406 4219 
Q 1781 4219 1451 3797 
Q 1122 3375 1075 2522 
Q 1259 2794 1537 2939 
Q 1816 3084 2150 3084 
Q 2853 3084 3261 2657 
Q 3669 2231 3669 1497 
Q 3669 778 3244 343 
Q 2819 -91 2113 -91 
Q 1303 -91 875 529 
Q 447 1150 447 2328 
Q 447 3434 972 4092 
Q 1497 4750 2381 4750 
Q 2619 4750 2861 4703 
Q 3103 4656 3366 4563 
z
" transform="scale(0.015625)"/>
       </defs>
       <use xlink:href="#DejaVuSans-36"/>
      </g>
     </g>
    </g>
    <g id="xtick_5">
     <g id="line2d_5">
      <g>
       <use xlink:href="#m46c34483da" x="300.401388" y="174.04" style="stroke: #000000; stroke-width: 0.8"/>
      </g>
     </g>
     <g id="text_5">
      <!-- 8 -->
      <g transform="translate(297.220138 188.638438) scale(0.1 -0.1)">
       <defs>
        <path id="DejaVuSans-38" d="M 2034 2216 
Q 1584 2216 1326 1975 
Q 1069 1734 1069 1313 
Q 1069 891 1326 650 
Q 1584 409 2034 409 
Q 2484 409 2743 651 
Q 3003 894 3003 1313 
Q 3003 1734 2745 1975 
Q 2488 2216 2034 2216 
z
M 1403 2484 
Q 997 2584 770 2862 
Q 544 3141 544 3541 
Q 544 4100 942 4425 
Q 1341 4750 2034 4750 
Q 2731 4750 3128 4425 
Q 3525 4100 3525 3541 
Q 3525 3141 3298 2862 
Q 3072 2584 2669 2484 
Q 3125 2378 3379 2068 
Q 3634 1759 3634 1313 
Q 3634 634 3220 271 
Q 2806 -91 2034 -91 
Q 1263 -91 848 271 
Q 434 634 434 1313 
Q 434 1759 690 2068 
Q 947 2378 1403 2484 
z
M 1172 3481 
Q 1172 3119 1398 2916 
Q 1625 2713 2034 2713 
Q 2441 2713 2670 2916 
Q 2900 3119 2900 3481 
Q 2900 3844 2670 4047 
Q 2441 4250 2034 4250 
Q 1625 4250 1398 4047 
Q 1172 3844 1172 3481 
z
" transform="scale(0.015625)"/>
       </defs>
       <use xlink:href="#DejaVuSans-38"/>
      </g>
     </g>
    </g>
    <g id="xtick_6">
     <g id="line2d_6">
      <g>
       <use xlink:href="#m46c34483da" x="361.096784" y="174.04" style="stroke: #000000; stroke-width: 0.8"/>
      </g>
     </g>
     <g id="text_6">
      <!-- 10 -->
      <g transform="translate(354.734284 188.638438) scale(0.1 -0.1)">
       <defs>
        <path id="DejaVuSans-31" d="M 794 531 
L 1825 531 
L 1825 4091 
L 703 3866 
L 703 4441 
L 1819 4666 
L 2450 4666 
L 2450 531 
L 3481 531 
L 3481 0 
L 794 0 
L 794 531 
z
" transform="scale(0.015625)"/>
       </defs>
       <use xlink:href="#DejaVuSans-31"/>
       <use xlink:href="#DejaVuSans-30" x="63.623047"/>
      </g>
     </g>
    </g>
    <g id="text_7">
     <!-- flux value [mmol/gwd/h] -->
     <g transform="translate(176.431094 202.316563) scale(0.1 -0.1)">
      <defs>
       <path id="DejaVuSans-66" d="M 2375 4863 
L 2375 4384 
L 1825 4384 
Q 1516 4384 1395 4259 
Q 1275 4134 1275 3809 
L 1275 3500 
L 2222 3500 
L 2222 3053 
L 1275 3053 
L 1275 0 
L 697 0 
L 697 3053 
L 147 3053 
L 147 3500 
L 697 3500 
L 697 3744 
Q 697 4328 969 4595 
Q 1241 4863 1831 4863 
L 2375 4863 
z
" transform="scale(0.015625)"/>
       <path id="DejaVuSans-6c" d="M 603 4863 
L 1178 4863 
L 1178 0 
L 603 0 
L 603 4863 
z
" transform="scale(0.015625)"/>
       <path id="DejaVuSans-75" d="M 544 1381 
L 544 3500 
L 1119 3500 
L 1119 1403 
Q 1119 906 1312 657 
Q 1506 409 1894 409 
Q 2359 409 2629 706 
Q 2900 1003 2900 1516 
L 2900 3500 
L 3475 3500 
L 3475 0 
L 2900 0 
L 2900 538 
Q 2691 219 2414 64 
Q 2138 -91 1772 -91 
Q 1169 -91 856 284 
Q 544 659 544 1381 
z
M 1991 3584 
L 1991 3584 
z
" transform="scale(0.015625)"/>
       <path id="DejaVuSans-78" d="M 3513 3500 
L 2247 1797 
L 3578 0 
L 2900 0 
L 1881 1375 
L 863 0 
L 184 0 
L 1544 1831 
L 300 3500 
L 978 3500 
L 1906 2253 
L 2834 3500 
L 3513 3500 
z
" transform="scale(0.015625)"/>
       <path id="DejaVuSans-20" transform="scale(0.015625)"/>
       <path id="DejaVuSans-76" d="M 191 3500 
L 800 3500 
L 1894 563 
L 2988 3500 
L 3597 3500 
L 2284 0 
L 1503 0 
L 191 3500 
z
" transform="scale(0.015625)"/>
       <path id="DejaVuSans-61" d="M 2194 1759 
Q 1497 1759 1228 1600 
Q 959 1441 959 1056 
Q 959 750 1161 570 
Q 1363 391 1709 391 
Q 2188 391 2477 730 
Q 2766 1069 2766 1631 
L 2766 1759 
L 2194 1759 
z
M 3341 1997 
L 3341 0 
L 2766 0 
L 2766 531 
Q 2569 213 2275 61 
Q 1981 -91 1556 -91 
Q 1019 -91 701 211 
Q 384 513 384 1019 
Q 384 1609 779 1909 
Q 1175 2209 1959 2209 
L 2766 2209 
L 2766 2266 
Q 2766 2663 2505 2880 
Q 2244 3097 1772 3097 
Q 1472 3097 1187 3025 
Q 903 2953 641 2809 
L 641 3341 
Q 956 3463 1253 3523 
Q 1550 3584 1831 3584 
Q 2591 3584 2966 3190 
Q 3341 2797 3341 1997 
z
" transform="scale(0.015625)"/>
       <path id="DejaVuSans-65" d="M 3597 1894 
L 3597 1613 
L 953 1613 
Q 991 1019 1311 708 
Q 1631 397 2203 397 
Q 2534 397 2845 478 
Q 3156 559 3463 722 
L 3463 178 
Q 3153 47 2828 -22 
Q 2503 -91 2169 -91 
Q 1331 -91 842 396 
Q 353 884 353 1716 
Q 353 2575 817 3079 
Q 1281 3584 2069 3584 
Q 2775 3584 3186 3129 
Q 3597 2675 3597 1894 
z
M 3022 2063 
Q 3016 2534 2758 2815 
Q 2500 3097 2075 3097 
Q 1594 3097 1305 2825 
Q 1016 2553 972 2059 
L 3022 2063 
z
" transform="scale(0.015625)"/>
       <path id="DejaVuSans-5b" d="M 550 4863 
L 1875 4863 
L 1875 4416 
L 1125 4416 
L 1125 -397 
L 1875 -397 
L 1875 -844 
L 550 -844 
L 550 4863 
z
" transform="scale(0.015625)"/>
       <path id="DejaVuSans-6d" d="M 3328 2828 
Q 3544 3216 3844 3400 
Q 4144 3584 4550 3584 
Q 5097 3584 5394 3201 
Q 5691 2819 5691 2113 
L 5691 0 
L 5113 0 
L 5113 2094 
Q 5113 2597 4934 2840 
Q 4756 3084 4391 3084 
Q 3944 3084 3684 2787 
Q 3425 2491 3425 1978 
L 3425 0 
L 2847 0 
L 2847 2094 
Q 2847 2600 2669 2842 
Q 2491 3084 2119 3084 
Q 1678 3084 1418 2786 
Q 1159 2488 1159 1978 
L 1159 0 
L 581 0 
L 581 3500 
L 1159 3500 
L 1159 2956 
Q 1356 3278 1631 3431 
Q 1906 3584 2284 3584 
Q 2666 3584 2933 3390 
Q 3200 3197 3328 2828 
z
" transform="scale(0.015625)"/>
       <path id="DejaVuSans-6f" d="M 1959 3097 
Q 1497 3097 1228 2736 
Q 959 2375 959 1747 
Q 959 1119 1226 758 
Q 1494 397 1959 397 
Q 2419 397 2687 759 
Q 2956 1122 2956 1747 
Q 2956 2369 2687 2733 
Q 2419 3097 1959 3097 
z
M 1959 3584 
Q 2709 3584 3137 3096 
Q 3566 2609 3566 1747 
Q 3566 888 3137 398 
Q 2709 -91 1959 -91 
Q 1206 -91 779 398 
Q 353 888 353 1747 
Q 353 2609 779 3096 
Q 1206 3584 1959 3584 
z
" transform="scale(0.015625)"/>
       <path id="DejaVuSans-2f" d="M 1625 4666 
L 2156 4666 
L 531 -594 
L 0 -594 
L 1625 4666 
z
" transform="scale(0.015625)"/>
       <path id="DejaVuSans-67" d="M 2906 1791 
Q 2906 2416 2648 2759 
Q 2391 3103 1925 3103 
Q 1463 3103 1205 2759 
Q 947 2416 947 1791 
Q 947 1169 1205 825 
Q 1463 481 1925 481 
Q 2391 481 2648 825 
Q 2906 1169 2906 1791 
z
M 3481 434 
Q 3481 -459 3084 -895 
Q 2688 -1331 1869 -1331 
Q 1566 -1331 1297 -1286 
Q 1028 -1241 775 -1147 
L 775 -588 
Q 1028 -725 1275 -790 
Q 1522 -856 1778 -856 
Q 2344 -856 2625 -561 
Q 2906 -266 2906 331 
L 2906 616 
Q 2728 306 2450 153 
Q 2172 0 1784 0 
Q 1141 0 747 490 
Q 353 981 353 1791 
Q 353 2603 747 3093 
Q 1141 3584 1784 3584 
Q 2172 3584 2450 3431 
Q 2728 3278 2906 2969 
L 2906 3500 
L 3481 3500 
L 3481 434 
z
" transform="scale(0.015625)"/>
       <path id="DejaVuSans-77" d="M 269 3500 
L 844 3500 
L 1563 769 
L 2278 3500 
L 2956 3500 
L 3675 769 
L 4391 3500 
L 4966 3500 
L 4050 0 
L 3372 0 
L 2619 2869 
L 1863 0 
L 1184 0 
L 269 3500 
z
" transform="scale(0.015625)"/>
       <path id="DejaVuSans-64" d="M 2906 2969 
L 2906 4863 
L 3481 4863 
L 3481 0 
L 2906 0 
L 2906 525 
Q 2725 213 2448 61 
Q 2172 -91 1784 -91 
Q 1150 -91 751 415 
Q 353 922 353 1747 
Q 353 2572 751 3078 
Q 1150 3584 1784 3584 
Q 2172 3584 2448 3432 
Q 2725 3281 2906 2969 
z
M 947 1747 
Q 947 1113 1208 752 
Q 1469 391 1925 391 
Q 2381 391 2643 752 
Q 2906 1113 2906 1747 
Q 2906 2381 2643 2742 
Q 2381 3103 1925 3103 
Q 1469 3103 1208 2742 
Q 947 2381 947 1747 
z
" transform="scale(0.015625)"/>
       <path id="DejaVuSans-68" d="M 3513 2113 
L 3513 0 
L 2938 0 
L 2938 2094 
Q 2938 2591 2744 2837 
Q 2550 3084 2163 3084 
Q 1697 3084 1428 2787 
Q 1159 2491 1159 1978 
L 1159 0 
L 581 0 
L 581 4863 
L 1159 4863 
L 1159 2956 
Q 1366 3272 1645 3428 
Q 1925 3584 2291 3584 
Q 2894 3584 3203 3211 
Q 3513 2838 3513 2113 
z
" transform="scale(0.015625)"/>
       <path id="DejaVuSans-5d" d="M 1947 4863 
L 1947 -844 
L 622 -844 
L 622 -397 
L 1369 -397 
L 1369 4416 
L 622 4416 
L 622 4863 
L 1947 4863 
z
" transform="scale(0.015625)"/>
      </defs>
      <use xlink:href="#DejaVuSans-66"/>
      <use xlink:href="#DejaVuSans-6c" x="35.205078"/>
      <use xlink:href="#DejaVuSans-75" x="62.988281"/>
      <use xlink:href="#DejaVuSans-78" x="126.367188"/>
      <use xlink:href="#DejaVuSans-20" x="185.546875"/>
      <use xlink:href="#DejaVuSans-76" x="217.333984"/>
      <use xlink:href="#DejaVuSans-61" x="276.513672"/>
      <use xlink:href="#DejaVuSans-6c" x="337.792969"/>
      <use xlink:href="#DejaVuSans-75" x="365.576172"/>
      <use xlink:href="#DejaVuSans-65" x="428.955078"/>
      <use xlink:href="#DejaVuSans-20" x="490.478516"/>
      <use xlink:href="#DejaVuSans-5b" x="522.265625"/>
      <use xlink:href="#DejaVuSans-6d" x="561.279297"/>
      <use xlink:href="#DejaVuSans-6d" x="658.691406"/>
      <use xlink:href="#DejaVuSans-6f" x="756.103516"/>
      <use xlink:href="#DejaVuSans-6c" x="817.285156"/>
      <use xlink:href="#DejaVuSans-2f" x="845.068359"/>
      <use xlink:href="#DejaVuSans-67" x="878.759766"/>
      <use xlink:href="#DejaVuSans-77" x="942.236328"/>
      <use xlink:href="#DejaVuSans-64" x="1024.023438"/>
      <use xlink:href="#DejaVuSans-2f" x="1087.5"/>
      <use xlink:href="#DejaVuSans-68" x="1121.191406"/>
      <use xlink:href="#DejaVuSans-5d" x="1184.570312"/>
     </g>
    </g>
   </g>
   <g id="matplotlib.axis_2">
    <g id="ytick_1">
     <g id="line2d_7">
      <defs>
       <path id="mf2b95500c0" d="M 0 0 
L -3.5 0 
" style="stroke: #000000; stroke-width: 0.8"/>
      </defs>
      <g>
       <use xlink:href="#mf2b95500c0" x="54.02" y="174.04" style="stroke: #000000; stroke-width: 0.8"/>
      </g>
     </g>
     <g id="text_8">
      <!-- 0.0 -->
      <g transform="translate(31.116875 177.839219) scale(0.1 -0.1)">
       <defs>
        <path id="DejaVuSans-2e" d="M 684 794 
L 1344 794 
L 1344 0 
L 684 0 
L 684 794 
z
" transform="scale(0.015625)"/>
       </defs>
       <use xlink:href="#DejaVuSans-30"/>
       <use xlink:href="#DejaVuSans-2e" x="63.623047"/>
       <use xlink:href="#DejaVuSans-30" x="95.410156"/>
      </g>
     </g>
    </g>
    <g id="ytick_2">
     <g id="line2d_8">
      <g>
       <use xlink:href="#mf2b95500c0" x="54.02" y="133.002799" style="stroke: #000000; stroke-width: 0.8"/>
      </g>
     </g>
     <g id="text_9">
      <!-- 0.5 -->
      <g transform="translate(31.116875 136.802018) scale(0.1 -0.1)">
       <defs>
        <path id="DejaVuSans-35" d="M 691 4666 
L 3169 4666 
L 3169 4134 
L 1269 4134 
L 1269 2991 
Q 1406 3038 1543 3061 
Q 1681 3084 1819 3084 
Q 2600 3084 3056 2656 
Q 3513 2228 3513 1497 
Q 3513 744 3044 326 
Q 2575 -91 1722 -91 
Q 1428 -91 1123 -41 
Q 819 9 494 109 
L 494 744 
Q 775 591 1075 516 
Q 1375 441 1709 441 
Q 2250 441 2565 725 
Q 2881 1009 2881 1497 
Q 2881 1984 2565 2268 
Q 2250 2553 1709 2553 
Q 1456 2553 1204 2497 
Q 953 2441 691 2322 
L 691 4666 
z
" transform="scale(0.015625)"/>
       </defs>
       <use xlink:href="#DejaVuSans-30"/>
       <use xlink:href="#DejaVuSans-2e" x="63.623047"/>
       <use xlink:href="#DejaVuSans-35" x="95.410156"/>
      </g>
     </g>
    </g>
    <g id="ytick_3">
     <g id="line2d_9">
      <g>
       <use xlink:href="#mf2b95500c0" x="54.02" y="91.965598" style="stroke: #000000; stroke-width: 0.8"/>
      </g>
     </g>
     <g id="text_10">
      <!-- 1.0 -->
      <g transform="translate(31.116875 95.764817) scale(0.1 -0.1)">
       <use xlink:href="#DejaVuSans-31"/>
       <use xlink:href="#DejaVuSans-2e" x="63.623047"/>
       <use xlink:href="#DejaVuSans-30" x="95.410156"/>
      </g>
     </g>
    </g>
    <g id="ytick_4">
     <g id="line2d_10">
      <g>
       <use xlink:href="#mf2b95500c0" x="54.02" y="50.928397" style="stroke: #000000; stroke-width: 0.8"/>
      </g>
     </g>
     <g id="text_11">
      <!-- 1.5 -->
      <g transform="translate(31.116875 54.727616) scale(0.1 -0.1)">
       <use xlink:href="#DejaVuSans-31"/>
       <use xlink:href="#DejaVuSans-2e" x="63.623047"/>
       <use xlink:href="#DejaVuSans-35" x="95.410156"/>
      </g>
     </g>
    </g>
    <g id="text_12">
     <!-- density -->
     <g transform="translate(25.037188 118.792812) rotate(-90) scale(0.1 -0.1)">
      <defs>
       <path id="DejaVuSans-6e" d="M 3513 2113 
L 3513 0 
L 2938 0 
L 2938 2094 
Q 2938 2591 2744 2837 
Q 2550 3084 2163 3084 
Q 1697 3084 1428 2787 
Q 1159 2491 1159 1978 
L 1159 0 
L 581 0 
L 581 3500 
L 1159 3500 
L 1159 2956 
Q 1366 3272 1645 3428 
Q 1925 3584 2291 3584 
Q 2894 3584 3203 3211 
Q 3513 2838 3513 2113 
z
" transform="scale(0.015625)"/>
       <path id="DejaVuSans-73" d="M 2834 3397 
L 2834 2853 
Q 2591 2978 2328 3040 
Q 2066 3103 1784 3103 
Q 1356 3103 1142 2972 
Q 928 2841 928 2578 
Q 928 2378 1081 2264 
Q 1234 2150 1697 2047 
L 1894 2003 
Q 2506 1872 2764 1633 
Q 3022 1394 3022 966 
Q 3022 478 2636 193 
Q 2250 -91 1575 -91 
Q 1294 -91 989 -36 
Q 684 19 347 128 
L 347 722 
Q 666 556 975 473 
Q 1284 391 1588 391 
Q 1994 391 2212 530 
Q 2431 669 2431 922 
Q 2431 1156 2273 1281 
Q 2116 1406 1581 1522 
L 1381 1569 
Q 847 1681 609 1914 
Q 372 2147 372 2553 
Q 372 3047 722 3315 
Q 1072 3584 1716 3584 
Q 2034 3584 2315 3537 
Q 2597 3491 2834 3397 
z
" transform="scale(0.015625)"/>
       <path id="DejaVuSans-69" d="M 603 3500 
L 1178 3500 
L 1178 0 
L 603 0 
L 603 3500 
z
M 603 4863 
L 1178 4863 
L 1178 4134 
L 603 4134 
L 603 4863 
z
" transform="scale(0.015625)"/>
       <path id="DejaVuSans-74" d="M 1172 4494 
L 1172 3500 
L 2356 3500 
L 2356 3053 
L 1172 3053 
L 1172 1153 
Q 1172 725 1289 603 
Q 1406 481 1766 481 
L 2356 481 
L 2356 0 
L 1766 0 
Q 1100 0 847 248 
Q 594 497 594 1153 
L 594 3053 
L 172 3053 
L 172 3500 
L 594 3500 
L 594 4494 
L 1172 4494 
z
" transform="scale(0.015625)"/>
       <path id="DejaVuSans-79" d="M 2059 -325 
Q 1816 -950 1584 -1140 
Q 1353 -1331 966 -1331 
L 506 -1331 
L 506 -850 
L 844 -850 
Q 1081 -850 1212 -737 
Q 1344 -625 1503 -206 
L 1606 56 
L 191 3500 
L 800 3500 
L 1894 763 
L 2988 3500 
L 3597 3500 
L 2059 -325 
z
" transform="scale(0.015625)"/>
      </defs>
      <use xlink:href="#DejaVuSans-64"/>
      <use xlink:href="#DejaVuSans-65" x="63.476562"/>
      <use xlink:href="#DejaVuSans-6e" x="125"/>
      <use xlink:href="#DejaVuSans-73" x="188.378906"/>
      <use xlink:href="#DejaVuSans-69" x="240.478516"/>
      <use xlink:href="#DejaVuSans-74" x="268.261719"/>
      <use xlink:href="#DejaVuSans-79" x="307.470703"/>
     </g>
    </g>
   </g>
   <g id="patch_63">
    <path d="M 63.889714 174.04 
L 63.889714 161.351024 
L 69.538072 161.351024 
L 69.538072 116.482101 
L 75.186431 116.482101 
L 75.186431 96.759619 
L 80.834789 96.759619 
L 80.834789 104.785313 
L 86.483148 104.785313 
L 86.483148 114.806407 
L 92.131506 114.806407 
L 92.131506 128.686008 
L 97.779865 128.686008 
L 97.779865 138.387396 
L 103.428223 138.387396 
L 103.428223 146.291823 
L 109.076582 146.291823 
L 109.076582 154.769514 
L 114.72494 154.769514 
L 114.72494 160.226545 
L 120.373299 160.226545 
L 120.373299 164.757535 
L 126.021657 164.757535 
L 126.021657 168.064826 
L 131.670016 168.064826 
L 131.670016 170.170469 
L 137.318374 170.170469 
L 137.318374 172.209965 
L 142.966733 172.209965 
L 142.966733 172.893472 
L 148.615091 172.893472 
L 148.615091 173.47776 
L 154.26345 173.47776 
L 154.26345 173.797465 
L 159.911808 173.797465 
L 159.911808 173.929757 
L 165.560167 173.929757 
L 165.560167 173.96283 
L 171.208525 173.96283 
L 171.208525 174.017951 
L 176.856884 174.017951 
L 176.856884 174.04 
" clip-path="url(#pa4f1f45524)" style="fill: none; stroke: #1f77b4; stroke-width: 3; stroke-linejoin: miter"/>
   </g>
   <g id="patch_64">
    <path d="M 106.826518 174.04 
L 106.826518 174.007941 
L 122.365202 174.007941 
L 122.365202 173.935808 
L 137.903886 173.935808 
L 137.903886 173.639263 
L 153.44257 173.639263 
L 153.44257 173.274593 
L 168.981254 173.274593 
L 168.981254 172.425031 
L 184.519938 172.425031 
L 184.519938 170.970356 
L 200.058621 170.970356 
L 200.058621 168.449721 
L 215.597305 168.449721 
L 215.597305 164.534522 
L 231.135989 164.534522 
L 231.135989 158.699794 
L 246.674673 158.699794 
L 246.674673 153.185655 
L 262.213357 153.185655 
L 262.213357 148.809609 
L 277.752041 148.809609 
L 277.752041 149.166265 
L 293.290725 149.166265 
L 293.290725 152.881095 
L 308.829409 152.881095 
L 308.829409 158.671743 
L 324.368093 158.671743 
L 324.368093 164.943274 
L 339.906777 164.943274 
L 339.906777 169.599836 
L 355.44546 169.599836 
L 355.44546 172.180581 
L 370.984144 172.180581 
L 370.984144 173.294629 
L 386.522828 173.294629 
L 386.522828 173.875698 
L 402.061512 173.875698 
L 402.061512 173.959853 
L 417.600196 173.959853 
L 417.600196 174.04 
" clip-path="url(#pa4f1f45524)" style="fill: none; stroke: #ff7f0e; stroke-width: 3; stroke-linejoin: miter"/>
   </g>
   <g id="patch_65">
    <path d="M 79.120221 174.04 
L 79.120221 164.840809 
L 83.14777 164.840809 
L 83.14777 104.837346 
L 87.175319 104.837346 
L 87.175319 38.927848 
L 91.202868 38.927848 
L 91.202868 33.887619 
L 95.230417 33.887619 
L 95.230417 67.406688 
L 99.257966 67.406688 
L 99.257966 105.981447 
L 103.285514 105.981447 
L 103.285514 133.053352 
L 107.313063 133.053352 
L 107.313063 151.884637 
L 111.340612 151.884637 
L 111.340612 161.439427 
L 115.368161 161.439427 
L 115.368161 167.29908 
L 119.39571 167.29908 
L 119.39571 170.453089 
L 123.423259 170.453089 
L 123.423259 172.045554 
L 127.450808 172.045554 
L 127.450808 173.251498 
L 131.478357 173.251498 
L 131.478357 173.514332 
L 135.505905 173.514332 
L 135.505905 173.730783 
L 139.533454 173.730783 
L 139.533454 173.885392 
L 143.561003 173.885392 
L 143.561003 173.993618 
L 147.588552 173.993618 
L 147.588552 173.931774 
L 151.616101 173.931774 
L 151.616101 173.978157 
L 155.64365 173.978157 
L 155.64365 174.024539 
L 159.671199 174.024539 
L 159.671199 174.04 
" clip-path="url(#pa4f1f45524)" style="fill: none; stroke: #2ca02c; stroke-width: 3; stroke-linejoin: miter"/>
   </g>
   <g id="line2d_11">
    <path d="M 62.163986 174.04 
L 62.163986 26.88 
" clip-path="url(#pa4f1f45524)" style="fill: none; stroke-dasharray: 15,3; stroke-dashoffset: 0; stroke: #1f77b4; stroke-width: 3"/>
   </g>
   <g id="line2d_12">
    <path d="M 123.931352 174.04 
L 123.931352 26.88 
" clip-path="url(#pa4f1f45524)" style="fill: none; stroke-dasharray: 10,6; stroke-dashoffset: 0; stroke: #ff7f0e; stroke-width: 2"/>
   </g>
   <g id="line2d_13">
    <path d="M 78.707421 174.04 
L 78.707421 26.88 
" clip-path="url(#pa4f1f45524)" style="fill: none; stroke-dasharray: 5,6; stroke-dashoffset: 0; stroke: #2ca02c"/>
   </g>
   <g id="patch_66">
    <path d="M 54.02 174.04 
L 54.02 26.88 
" style="fill: none; stroke: #000000; stroke-width: 0.8; stroke-linejoin: miter; stroke-linecap: square"/>
   </g>
   <g id="patch_67">
    <path d="M 421.2 174.04 
L 421.2 26.88 
" style="fill: none; stroke: #000000; stroke-width: 0.8; stroke-linejoin: miter; stroke-linecap: square"/>
   </g>
   <g id="patch_68">
    <path d="M 54.02 174.04 
L 421.2 174.04 
" style="fill: none; stroke: #000000; stroke-width: 0.8; stroke-linejoin: miter; stroke-linecap: square"/>
   </g>
   <g id="patch_69">
    <path d="M 54.02 26.88 
L 421.2 26.88 
" style="fill: none; stroke: #000000; stroke-width: 0.8; stroke-linejoin: miter; stroke-linecap: square"/>
   </g>
   <g id="text_13">
    <!-- rpi -->
    <g transform="translate(229.6675 20.88) scale(0.12 -0.12)">
     <defs>
      <path id="DejaVuSans-72" d="M 2631 2963 
Q 2534 3019 2420 3045 
Q 2306 3072 2169 3072 
Q 1681 3072 1420 2755 
Q 1159 2438 1159 1844 
L 1159 0 
L 581 0 
L 581 3500 
L 1159 3500 
L 1159 2956 
Q 1341 3275 1631 3429 
Q 1922 3584 2338 3584 
Q 2397 3584 2469 3576 
Q 2541 3569 2628 3553 
L 2631 2963 
z
" transform="scale(0.015625)"/>
      <path id="DejaVuSans-70" d="M 1159 525 
L 1159 -1331 
L 581 -1331 
L 581 3500 
L 1159 3500 
L 1159 2969 
Q 1341 3281 1617 3432 
Q 1894 3584 2278 3584 
Q 2916 3584 3314 3078 
Q 3713 2572 3713 1747 
Q 3713 922 3314 415 
Q 2916 -91 2278 -91 
Q 1894 -91 1617 61 
Q 1341 213 1159 525 
z
M 3116 1747 
Q 3116 2381 2855 2742 
Q 2594 3103 2138 3103 
Q 1681 3103 1420 2742 
Q 1159 2381 1159 1747 
Q 1159 1113 1420 752 
Q 1681 391 2138 391 
Q 2594 391 2855 752 
Q 3116 1113 3116 1747 
z
" transform="scale(0.015625)"/>
     </defs>
     <use xlink:href="#DejaVuSans-72"/>
     <use xlink:href="#DejaVuSans-70" x="41.113281"/>
     <use xlink:href="#DejaVuSans-69" x="104.589844"/>
    </g>
   </g>
   <g id="legend_1">
    <g id="patch_70">
     <path d="M 321.467188 122.94875 
L 414.2 122.94875 
Q 416.2 122.94875 416.2 120.94875 
L 416.2 33.88 
Q 416.2 31.88 414.2 31.88 
L 321.467188 31.88 
Q 319.467188 31.88 319.467188 33.88 
L 319.467188 120.94875 
Q 319.467188 122.94875 321.467188 122.94875 
z
" style="fill: #ffffff; opacity: 0.8; stroke: #cccccc; stroke-linejoin: miter"/>
    </g>
    <g id="patch_71">
     <path d="M 323.467188 43.478437 
L 343.467188 43.478437 
L 343.467188 36.478437 
L 323.467188 36.478437 
z
" style="fill: #1f77b4; opacity: 0.25"/>
    </g>
    <g id="text_14">
     <!-- MaxEnt PCA -->
     <g transform="translate(351.467188 43.478437) scale(0.1 -0.1)">
      <defs>
       <path id="DejaVuSans-4d" d="M 628 4666 
L 1569 4666 
L 2759 1491 
L 3956 4666 
L 4897 4666 
L 4897 0 
L 4281 0 
L 4281 4097 
L 3078 897 
L 2444 897 
L 1241 4097 
L 1241 0 
L 628 0 
L 628 4666 
z
" transform="scale(0.015625)"/>
       <path id="DejaVuSans-45" d="M 628 4666 
L 3578 4666 
L 3578 4134 
L 1259 4134 
L 1259 2753 
L 3481 2753 
L 3481 2222 
L 1259 2222 
L 1259 531 
L 3634 531 
L 3634 0 
L 628 0 
L 628 4666 
z
" transform="scale(0.015625)"/>
       <path id="DejaVuSans-50" d="M 1259 4147 
L 1259 2394 
L 2053 2394 
Q 2494 2394 2734 2622 
Q 2975 2850 2975 3272 
Q 2975 3691 2734 3919 
Q 2494 4147 2053 4147 
L 1259 4147 
z
M 628 4666 
L 2053 4666 
Q 2838 4666 3239 4311 
Q 3641 3956 3641 3272 
Q 3641 2581 3239 2228 
Q 2838 1875 2053 1875 
L 1259 1875 
L 1259 0 
L 628 0 
L 628 4666 
z
" transform="scale(0.015625)"/>
       <path id="DejaVuSans-43" d="M 4122 4306 
L 4122 3641 
Q 3803 3938 3442 4084 
Q 3081 4231 2675 4231 
Q 1875 4231 1450 3742 
Q 1025 3253 1025 2328 
Q 1025 1406 1450 917 
Q 1875 428 2675 428 
Q 3081 428 3442 575 
Q 3803 722 4122 1019 
L 4122 359 
Q 3791 134 3420 21 
Q 3050 -91 2638 -91 
Q 1578 -91 968 557 
Q 359 1206 359 2328 
Q 359 3453 968 4101 
Q 1578 4750 2638 4750 
Q 3056 4750 3426 4639 
Q 3797 4528 4122 4306 
z
" transform="scale(0.015625)"/>
       <path id="DejaVuSans-41" d="M 2188 4044 
L 1331 1722 
L 3047 1722 
L 2188 4044 
z
M 1831 4666 
L 2547 4666 
L 4325 0 
L 3669 0 
L 3244 1197 
L 1141 1197 
L 716 0 
L 50 0 
L 1831 4666 
z
" transform="scale(0.015625)"/>
      </defs>
      <use xlink:href="#DejaVuSans-4d"/>
      <use xlink:href="#DejaVuSans-61" x="86.279297"/>
      <use xlink:href="#DejaVuSans-78" x="147.558594"/>
      <use xlink:href="#DejaVuSans-45" x="206.738281"/>
      <use xlink:href="#DejaVuSans-6e" x="269.921875"/>
      <use xlink:href="#DejaVuSans-74" x="333.300781"/>
      <use xlink:href="#DejaVuSans-20" x="372.509766"/>
      <use xlink:href="#DejaVuSans-50" x="404.296875"/>
      <use xlink:href="#DejaVuSans-43" x="464.599609"/>
      <use xlink:href="#DejaVuSans-41" x="534.423828"/>
     </g>
    </g>
    <g id="patch_72">
     <path d="M 323.467188 58.156562 
L 343.467188 58.156562 
L 343.467188 51.156562 
L 323.467188 51.156562 
z
" style="fill: #ff7f0e; opacity: 0.25"/>
    </g>
    <g id="text_15">
     <!-- MaxEnt GLC -->
     <g transform="translate(351.467188 58.156562) scale(0.1 -0.1)">
      <defs>
       <path id="DejaVuSans-47" d="M 3809 666 
L 3809 1919 
L 2778 1919 
L 2778 2438 
L 4434 2438 
L 4434 434 
Q 4069 175 3628 42 
Q 3188 -91 2688 -91 
Q 1594 -91 976 548 
Q 359 1188 359 2328 
Q 359 3472 976 4111 
Q 1594 4750 2688 4750 
Q 3144 4750 3555 4637 
Q 3966 4525 4313 4306 
L 4313 3634 
Q 3963 3931 3569 4081 
Q 3175 4231 2741 4231 
Q 1884 4231 1454 3753 
Q 1025 3275 1025 2328 
Q 1025 1384 1454 906 
Q 1884 428 2741 428 
Q 3075 428 3337 486 
Q 3600 544 3809 666 
z
" transform="scale(0.015625)"/>
       <path id="DejaVuSans-4c" d="M 628 4666 
L 1259 4666 
L 1259 531 
L 3531 531 
L 3531 0 
L 628 0 
L 628 4666 
z
" transform="scale(0.015625)"/>
      </defs>
      <use xlink:href="#DejaVuSans-4d"/>
      <use xlink:href="#DejaVuSans-61" x="86.279297"/>
      <use xlink:href="#DejaVuSans-78" x="147.558594"/>
      <use xlink:href="#DejaVuSans-45" x="206.738281"/>
      <use xlink:href="#DejaVuSans-6e" x="269.921875"/>
      <use xlink:href="#DejaVuSans-74" x="333.300781"/>
      <use xlink:href="#DejaVuSans-20" x="372.509766"/>
      <use xlink:href="#DejaVuSans-47" x="404.296875"/>
      <use xlink:href="#DejaVuSans-4c" x="481.787109"/>
      <use xlink:href="#DejaVuSans-43" x="537.5"/>
     </g>
    </g>
    <g id="patch_73">
     <path d="M 323.467188 72.834687 
L 343.467188 72.834687 
L 343.467188 65.834687 
L 323.467188 65.834687 
z
" style="fill: #2ca02c; opacity: 0.25"/>
    </g>
    <g id="text_16">
     <!-- MaxEnt CIT -->
     <g transform="translate(351.467188 72.834687) scale(0.1 -0.1)">
      <defs>
       <path id="DejaVuSans-49" d="M 628 4666 
L 1259 4666 
L 1259 0 
L 628 0 
L 628 4666 
z
" transform="scale(0.015625)"/>
       <path id="DejaVuSans-54" d="M -19 4666 
L 3928 4666 
L 3928 4134 
L 2272 4134 
L 2272 0 
L 1638 0 
L 1638 4134 
L -19 4134 
L -19 4666 
z
" transform="scale(0.015625)"/>
      </defs>
      <use xlink:href="#DejaVuSans-4d"/>
      <use xlink:href="#DejaVuSans-61" x="86.279297"/>
      <use xlink:href="#DejaVuSans-78" x="147.558594"/>
      <use xlink:href="#DejaVuSans-45" x="206.738281"/>
      <use xlink:href="#DejaVuSans-6e" x="269.921875"/>
      <use xlink:href="#DejaVuSans-74" x="333.300781"/>
      <use xlink:href="#DejaVuSans-20" x="372.509766"/>
      <use xlink:href="#DejaVuSans-43" x="404.296875"/>
      <use xlink:href="#DejaVuSans-49" x="474.121094"/>
      <use xlink:href="#DejaVuSans-54" x="503.613281"/>
     </g>
    </g>
    <g id="line2d_14">
     <path d="M 323.467188 84.012812 
L 333.467188 84.012812 
L 343.467188 84.012812 
" style="fill: none; stroke-dasharray: 15,3; stroke-dashoffset: 0; stroke: #1f77b4; stroke-width: 3"/>
    </g>
    <g id="text_17">
     <!-- FBA for PCA -->
     <g transform="translate(351.467188 87.512812) scale(0.1 -0.1)">
      <defs>
       <path id="DejaVuSans-46" d="M 628 4666 
L 3309 4666 
L 3309 4134 
L 1259 4134 
L 1259 2759 
L 3109 2759 
L 3109 2228 
L 1259 2228 
L 1259 0 
L 628 0 
L 628 4666 
z
" transform="scale(0.015625)"/>
       <path id="DejaVuSans-42" d="M 1259 2228 
L 1259 519 
L 2272 519 
Q 2781 519 3026 730 
Q 3272 941 3272 1375 
Q 3272 1813 3026 2020 
Q 2781 2228 2272 2228 
L 1259 2228 
z
M 1259 4147 
L 1259 2741 
L 2194 2741 
Q 2656 2741 2882 2914 
Q 3109 3088 3109 3444 
Q 3109 3797 2882 3972 
Q 2656 4147 2194 4147 
L 1259 4147 
z
M 628 4666 
L 2241 4666 
Q 2963 4666 3353 4366 
Q 3744 4066 3744 3513 
Q 3744 3084 3544 2831 
Q 3344 2578 2956 2516 
Q 3422 2416 3680 2098 
Q 3938 1781 3938 1306 
Q 3938 681 3513 340 
Q 3088 0 2303 0 
L 628 0 
L 628 4666 
z
" transform="scale(0.015625)"/>
      </defs>
      <use xlink:href="#DejaVuSans-46"/>
      <use xlink:href="#DejaVuSans-42" x="57.519531"/>
      <use xlink:href="#DejaVuSans-41" x="126.123047"/>
      <use xlink:href="#DejaVuSans-20" x="194.53125"/>
      <use xlink:href="#DejaVuSans-66" x="226.318359"/>
      <use xlink:href="#DejaVuSans-6f" x="261.523438"/>
      <use xlink:href="#DejaVuSans-72" x="322.705078"/>
      <use xlink:href="#DejaVuSans-20" x="363.818359"/>
      <use xlink:href="#DejaVuSans-50" x="395.605469"/>
      <use xlink:href="#DejaVuSans-43" x="455.908203"/>
      <use xlink:href="#DejaVuSans-41" x="525.732422"/>
     </g>
    </g>
    <g id="line2d_15">
     <path d="M 323.467188 98.690937 
L 333.467188 98.690937 
L 343.467188 98.690937 
" style="fill: none; stroke-dasharray: 10,6; stroke-dashoffset: 0; stroke: #ff7f0e; stroke-width: 2"/>
    </g>
    <g id="text_18">
     <!-- FBA for GLC -->
     <g transform="translate(351.467188 102.190937) scale(0.1 -0.1)">
      <use xlink:href="#DejaVuSans-46"/>
      <use xlink:href="#DejaVuSans-42" x="57.519531"/>
      <use xlink:href="#DejaVuSans-41" x="126.123047"/>
      <use xlink:href="#DejaVuSans-20" x="194.53125"/>
      <use xlink:href="#DejaVuSans-66" x="226.318359"/>
      <use xlink:href="#DejaVuSans-6f" x="261.523438"/>
      <use xlink:href="#DejaVuSans-72" x="322.705078"/>
      <use xlink:href="#DejaVuSans-20" x="363.818359"/>
      <use xlink:href="#DejaVuSans-47" x="395.605469"/>
      <use xlink:href="#DejaVuSans-4c" x="473.095703"/>
      <use xlink:href="#DejaVuSans-43" x="528.808594"/>
     </g>
    </g>
    <g id="line2d_16">
     <path d="M 323.467188 113.369062 
L 333.467188 113.369062 
L 343.467188 113.369062 
" style="fill: none; stroke-dasharray: 5,6; stroke-dashoffset: 0; stroke: #2ca02c"/>
    </g>
    <g id="text_19">
     <!-- FBA for CIT -->
     <g transform="translate(351.467188 116.869062) scale(0.1 -0.1)">
      <use xlink:href="#DejaVuSans-46"/>
      <use xlink:href="#DejaVuSans-42" x="57.519531"/>
      <use xlink:href="#DejaVuSans-41" x="126.123047"/>
      <use xlink:href="#DejaVuSans-20" x="194.53125"/>
      <use xlink:href="#DejaVuSans-66" x="226.318359"/>
      <use xlink:href="#DejaVuSans-6f" x="261.523438"/>
      <use xlink:href="#DejaVuSans-72" x="322.705078"/>
      <use xlink:href="#DejaVuSans-20" x="363.818359"/>
      <use xlink:href="#DejaVuSans-43" x="395.605469"/>
      <use xlink:href="#DejaVuSans-49" x="465.429688"/>
      <use xlink:href="#DejaVuSans-54" x="494.921875"/>
     </g>
    </g>
   </g>
  </g>
 </g>
 <defs>
  <clipPath id="pa4f1f45524">
   <rect x="54.02" y="26.88" width="367.18" height="147.16"/>
  </clipPath>
 </defs>
</svg>
