<?xml version="1.0" encoding="utf-8" standalone="no"?>
<!DOCTYPE svg PUBLIC "-//W3C//DTD SVG 1.1//EN"
  "http://www.w3.org/Graphics/SVG/1.1/DTD/svg11.dtd">
<svg xmlns:xlink="http://www.w3.org/1999/xlink" width="172.8pt" height="172.8pt" viewBox="0 0 172.8 172.8" xmlns="http://www.w3.org/2000/svg" version="1.1">
 <metadata>
  <rdf:RDF xmlns:dc="http://purl.org/dc/elements/1.1/" xmlns:cc="http://creativecommons.org/ns#" xmlns:rdf="http://www.w3.org/1999/02/22-rdf-syntax-ns#">
   <cc:Work>
    <dc:type rdf:resource="http://purl.org/dc/dcmitype/StillImage"/>
    <dc:date>2024-06-27T23:09:49.612709</dc:date>
    <dc:format>image/svg+xml</dc:format>
    <dc:creator>
     <cc:Agent>
      <dc:title>Matplotlib v3.9.0, https://matplotlib.org/</dc:title>
     </cc:Agent>
    </dc:creator>
   </cc:Work>
  </rdf:RDF>
 </metadata>
 <defs>
  <style type="text/css">*{stroke-linejoin: round; stroke-linecap: butt}</style>
 </defs>
 <g id="figure_1">
  <g id="patch_1">
   <path d="M 0 172.8 
L 172.8 172.8 
L 172.8 0 
L 0 0 
z
" style="fill: #ffffff"/>
  </g>
  <g id="axes_1">
   <g id="patch_2">
    <path d="M 14.4 165.6 
L 21.6 165.6 
L 21.6 90.53426 
L 14.4 90.53426 
z
" clip-path="url(#p78517e5087)" style="fill: #1f77b4; opacity: 0.25"/>
   </g>
   <g id="patch_3">
    <path d="M 21.6 165.6 
L 28.8 165.6 
L 28.8 79.205864 
L 21.6 79.205864 
z
" clip-path="url(#p78517e5087)" style="fill: #1f77b4; opacity: 0.25"/>
   </g>
   <g id="patch_4">
    <path d="M 28.8 165.6 
L 36 165.6 
L 36 65.539223 
L 28.8 65.539223 
z
" clip-path="url(#p78517e5087)" style="fill: #1f77b4; opacity: 0.25"/>
   </g>
   <g id="patch_5">
    <path d="M 36 165.6 
L 43.2 165.6 
L 43.2 46.389799 
L 36 46.389799 
z
" clip-path="url(#p78517e5087)" style="fill: #1f77b4; opacity: 0.25"/>
   </g>
   <g id="patch_6">
    <path d="M 43.2 165.6 
L 50.4 165.6 
L 50.4 35.464549 
L 43.2 35.464549 
z
" clip-path="url(#p78517e5087)" style="fill: #1f77b4; opacity: 0.25"/>
   </g>
   <g id="patch_7">
    <path d="M 50.4 165.6 
L 57.6 165.6 
L 57.6 23.370176 
L 50.4 23.370176 
z
" clip-path="url(#p78517e5087)" style="fill: #1f77b4; opacity: 0.25"/>
   </g>
   <g id="patch_8">
    <path d="M 57.6 165.6 
L 64.8 165.6 
L 64.8 14.742857 
L 57.6 14.742857 
z
" clip-path="url(#p78517e5087)" style="fill: #1f77b4; opacity: 0.25"/>
   </g>
   <g id="patch_9">
    <path d="M 64.8 165.6 
L 72 165.6 
L 72 15.065374 
L 64.8 15.065374 
z
" clip-path="url(#p78517e5087)" style="fill: #1f77b4; opacity: 0.25"/>
   </g>
   <g id="patch_10">
    <path d="M 72 165.6 
L 79.2 165.6 
L 79.2 22.120425 
L 72 22.120425 
z
" clip-path="url(#p78517e5087)" style="fill: #1f77b4; opacity: 0.25"/>
   </g>
   <g id="patch_11">
    <path d="M 79.2 165.6 
L 86.4 165.6 
L 86.4 37.157761 
L 79.2 37.157761 
z
" clip-path="url(#p78517e5087)" style="fill: #1f77b4; opacity: 0.25"/>
   </g>
   <g id="patch_12">
    <path d="M 86.4 165.6 
L 93.6 165.6 
L 93.6 55.581522 
L 86.4 55.581522 
z
" clip-path="url(#p78517e5087)" style="fill: #1f77b4; opacity: 0.25"/>
   </g>
   <g id="patch_13">
    <path d="M 93.6 165.6 
L 100.8 165.6 
L 100.8 74.3278 
L 93.6 74.3278 
z
" clip-path="url(#p78517e5087)" style="fill: #1f77b4; opacity: 0.25"/>
   </g>
   <g id="patch_14">
    <path d="M 100.8 165.6 
L 108 165.6 
L 108 95.815469 
L 100.8 95.815469 
z
" clip-path="url(#p78517e5087)" style="fill: #1f77b4; opacity: 0.25"/>
   </g>
   <g id="patch_15">
    <path d="M 108 165.6 
L 115.2 165.6 
L 115.2 116.537161 
L 108 116.537161 
z
" clip-path="url(#p78517e5087)" style="fill: #1f77b4; opacity: 0.25"/>
   </g>
   <g id="patch_16">
    <path d="M 115.2 165.6 
L 122.4 165.6 
L 122.4 133.428968 
L 115.2 133.428968 
z
" clip-path="url(#p78517e5087)" style="fill: #1f77b4; opacity: 0.25"/>
   </g>
   <g id="patch_17">
    <path d="M 122.4 165.6 
L 129.6 165.6 
L 129.6 147.418126 
L 122.4 147.418126 
z
" clip-path="url(#p78517e5087)" style="fill: #1f77b4; opacity: 0.25"/>
   </g>
   <g id="patch_18">
    <path d="M 129.6 165.6 
L 136.8 165.6 
L 136.8 156.045446 
L 129.6 156.045446 
z
" clip-path="url(#p78517e5087)" style="fill: #1f77b4; opacity: 0.25"/>
   </g>
   <g id="patch_19">
    <path d="M 136.8 165.6 
L 144 165.6 
L 144 161.28634 
L 136.8 161.28634 
z
" clip-path="url(#p78517e5087)" style="fill: #1f77b4; opacity: 0.25"/>
   </g>
   <g id="patch_20">
    <path d="M 144 165.6 
L 151.2 165.6 
L 151.2 164.108361 
L 144 164.108361 
z
" clip-path="url(#p78517e5087)" style="fill: #1f77b4; opacity: 0.25"/>
   </g>
   <g id="patch_21">
    <path d="M 151.2 165.6 
L 158.4 165.6 
L 158.4 165.277483 
L 151.2 165.277483 
z
" clip-path="url(#p78517e5087)" style="fill: #1f77b4; opacity: 0.25"/>
   </g>
   <g id="patch_22">
    <path d="M 14.4 165.6 
L 14.4 90.53426 
L 21.6 90.53426 
L 21.6 79.205864 
L 28.8 79.205864 
L 28.8 65.539223 
L 36 65.539223 
L 36 46.389799 
L 43.2 46.389799 
L 43.2 35.464549 
L 50.4 35.464549 
L 50.4 23.370176 
L 57.6 23.370176 
L 57.6 14.742857 
L 64.8 14.742857 
L 64.8 15.065374 
L 72 15.065374 
L 72 22.120425 
L 79.2 22.120425 
L 79.2 37.157761 
L 86.4 37.157761 
L 86.4 55.581522 
L 93.6 55.581522 
L 93.6 74.3278 
L 100.8 74.3278 
L 100.8 95.815469 
L 108 95.815469 
L 108 116.537161 
L 115.2 116.537161 
L 115.2 133.428968 
L 122.4 133.428968 
L 122.4 147.418126 
L 129.6 147.418126 
L 129.6 156.045446 
L 136.8 156.045446 
L 136.8 161.28634 
L 144 161.28634 
L 144 164.108361 
L 151.2 164.108361 
L 151.2 165.277483 
L 158.4 165.277483 
L 158.4 165.6 
" clip-path="url(#p78517e5087)" style="fill: none; stroke: #1f77b4; stroke-width: 3; stroke-linejoin: miter"/>
   </g>
  </g>
 </g>
 <defs>
  <clipPath id="p78517e5087">
   <rect x="7.2" y="7.2" width="158.4" height="158.4"/>
  </clipPath>
 </defs>
</svg>
