<?xml version="1.0" encoding="utf-8" standalone="no"?>
<!DOCTYPE svg PUBLIC "-//W3C//DTD SVG 1.1//EN"
  "http://www.w3.org/Graphics/SVG/1.1/DTD/svg11.dtd">
<svg xmlns:xlink="http://www.w3.org/1999/xlink" width="172.8pt" height="172.8pt" viewBox="0 0 172.8 172.8" xmlns="http://www.w3.org/2000/svg" version="1.1">
 <metadata>
  <rdf:RDF xmlns:dc="http://purl.org/dc/elements/1.1/" xmlns:cc="http://creativecommons.org/ns#" xmlns:rdf="http://www.w3.org/1999/02/22-rdf-syntax-ns#">
   <cc:Work>
    <dc:type rdf:resource="http://purl.org/dc/dcmitype/StillImage"/>
    <dc:date>2024-06-27T23:09:52.129864</dc:date>
    <dc:format>image/svg+xml</dc:format>
    <dc:creator>
     <cc:Agent>
      <dc:title>Matplotlib v3.9.0, https://matplotlib.org/</dc:title>
     </cc:Agent>
    </dc:creator>
   </cc:Work>
  </rdf:RDF>
 </metadata>
 <defs>
  <style type="text/css">*{stroke-linejoin: round; stroke-linecap: butt}</style>
 </defs>
 <g id="figure_1">
  <g id="patch_1">
   <path d="M 0 172.8 
L 172.8 172.8 
L 172.8 0 
L 0 0 
z
" style="fill: #ffffff"/>
  </g>
  <g id="axes_1">
   <g id="patch_2">
    <path d="M 14.4 165.6 
L 21.6 165.6 
L 21.6 14.742857 
L 14.4 14.742857 
z
" clip-path="url(#pcfcf0c1abf)" style="fill: #2ca02c; opacity: 0.25"/>
   </g>
   <g id="patch_3">
    <path d="M 21.6 165.6 
L 28.8 165.6 
L 28.8 38.108525 
L 21.6 38.108525 
z
" clip-path="url(#pcfcf0c1abf)" style="fill: #2ca02c; opacity: 0.25"/>
   </g>
   <g id="patch_4">
    <path d="M 28.8 165.6 
L 36 165.6 
L 36 67.446714 
L 28.8 67.446714 
z
" clip-path="url(#pcfcf0c1abf)" style="fill: #2ca02c; opacity: 0.25"/>
   </g>
   <g id="patch_5">
    <path d="M 36 165.6 
L 43.2 165.6 
L 43.2 93.754941 
L 36 93.754941 
z
" clip-path="url(#pcfcf0c1abf)" style="fill: #2ca02c; opacity: 0.25"/>
   </g>
   <g id="patch_6">
    <path d="M 43.2 165.6 
L 50.4 165.6 
L 50.4 116.30485 
L 43.2 116.30485 
z
" clip-path="url(#pcfcf0c1abf)" style="fill: #2ca02c; opacity: 0.25"/>
   </g>
   <g id="patch_7">
    <path d="M 50.4 165.6 
L 57.6 165.6 
L 57.6 133.639729 
L 50.4 133.639729 
z
" clip-path="url(#pcfcf0c1abf)" style="fill: #2ca02c; opacity: 0.25"/>
   </g>
   <g id="patch_8">
    <path d="M 57.6 165.6 
L 64.8 165.6 
L 64.8 144.579639 
L 57.6 144.579639 
z
" clip-path="url(#pcfcf0c1abf)" style="fill: #2ca02c; opacity: 0.25"/>
   </g>
   <g id="patch_9">
    <path d="M 64.8 165.6 
L 72 165.6 
L 72 152.416752 
L 64.8 152.416752 
z
" clip-path="url(#pcfcf0c1abf)" style="fill: #2ca02c; opacity: 0.25"/>
   </g>
   <g id="patch_10">
    <path d="M 72 165.6 
L 79.2 165.6 
L 79.2 157.85029 
L 72 157.85029 
z
" clip-path="url(#pcfcf0c1abf)" style="fill: #2ca02c; opacity: 0.25"/>
   </g>
   <g id="patch_11">
    <path d="M 79.2 165.6 
L 86.4 165.6 
L 86.4 160.909386 
L 79.2 160.909386 
z
" clip-path="url(#pcfcf0c1abf)" style="fill: #2ca02c; opacity: 0.25"/>
   </g>
   <g id="patch_12">
    <path d="M 86.4 165.6 
L 93.6 165.6 
L 93.6 162.919649 
L 86.4 162.919649 
z
" clip-path="url(#pcfcf0c1abf)" style="fill: #2ca02c; opacity: 0.25"/>
   </g>
   <g id="patch_13">
    <path d="M 93.6 165.6 
L 100.8 165.6 
L 100.8 164.026751 
L 93.6 164.026751 
z
" clip-path="url(#pcfcf0c1abf)" style="fill: #2ca02c; opacity: 0.25"/>
   </g>
   <g id="patch_14">
    <path d="M 100.8 165.6 
L 108 165.6 
L 108 164.711405 
L 100.8 164.711405 
z
" clip-path="url(#pcfcf0c1abf)" style="fill: #2ca02c; opacity: 0.25"/>
   </g>
   <g id="patch_15">
    <path d="M 108 165.6 
L 115.2 165.6 
L 115.2 165.046449 
L 108 165.046449 
z
" clip-path="url(#pcfcf0c1abf)" style="fill: #2ca02c; opacity: 0.25"/>
   </g>
   <g id="patch_16">
    <path d="M 115.2 165.6 
L 122.4 165.6 
L 122.4 165.264956 
L 115.2 165.264956 
z
" clip-path="url(#pcfcf0c1abf)" style="fill: #2ca02c; opacity: 0.25"/>
   </g>
   <g id="patch_17">
    <path d="M 122.4 165.6 
L 129.6 165.6 
L 129.6 165.39606 
L 122.4 165.39606 
z
" clip-path="url(#pcfcf0c1abf)" style="fill: #2ca02c; opacity: 0.25"/>
   </g>
   <g id="patch_18">
    <path d="M 129.6 165.6 
L 136.8 165.6 
L 136.8 165.541732 
L 129.6 165.541732 
z
" clip-path="url(#pcfcf0c1abf)" style="fill: #2ca02c; opacity: 0.25"/>
   </g>
   <g id="patch_19">
    <path d="M 136.8 165.6 
L 144 165.6 
L 144 165.512597 
L 136.8 165.512597 
z
" clip-path="url(#pcfcf0c1abf)" style="fill: #2ca02c; opacity: 0.25"/>
   </g>
   <g id="patch_20">
    <path d="M 144 165.6 
L 151.2 165.6 
L 151.2 165.570866 
L 144 165.570866 
z
" clip-path="url(#pcfcf0c1abf)" style="fill: #2ca02c; opacity: 0.25"/>
   </g>
   <g id="patch_21">
    <path d="M 151.2 165.6 
L 158.4 165.6 
L 158.4 165.570866 
L 151.2 165.570866 
z
" clip-path="url(#pcfcf0c1abf)" style="fill: #2ca02c; opacity: 0.25"/>
   </g>
   <g id="patch_22">
    <path d="M 14.4 165.6 
L 14.4 14.742857 
L 21.6 14.742857 
L 21.6 38.108525 
L 28.8 38.108525 
L 28.8 67.446714 
L 36 67.446714 
L 36 93.754941 
L 43.2 93.754941 
L 43.2 116.30485 
L 50.4 116.30485 
L 50.4 133.639729 
L 57.6 133.639729 
L 57.6 144.579639 
L 64.8 144.579639 
L 64.8 152.416752 
L 72 152.416752 
L 72 157.85029 
L 79.2 157.85029 
L 79.2 160.909386 
L 86.4 160.909386 
L 86.4 162.919649 
L 93.6 162.919649 
L 93.6 164.026751 
L 100.8 164.026751 
L 100.8 164.711405 
L 108 164.711405 
L 108 165.046449 
L 115.2 165.046449 
L 115.2 165.264956 
L 122.4 165.264956 
L 122.4 165.39606 
L 129.6 165.39606 
L 129.6 165.541732 
L 136.8 165.541732 
L 136.8 165.512597 
L 144 165.512597 
L 144 165.570866 
L 151.2 165.570866 
L 151.2 165.570866 
L 158.4 165.570866 
L 158.4 165.6 
" clip-path="url(#pcfcf0c1abf)" style="fill: none; stroke: #2ca02c; stroke-width: 3; stroke-linejoin: miter"/>
   </g>
  </g>
 </g>
 <defs>
  <clipPath id="pcfcf0c1abf">
   <rect x="7.2" y="7.2" width="158.4" height="158.4"/>
  </clipPath>
 </defs>
</svg>
