<?xml version="1.0" encoding="utf-8" standalone="no"?>
<!DOCTYPE svg PUBLIC "-//W3C//DTD SVG 1.1//EN"
  "http://www.w3.org/Graphics/SVG/1.1/DTD/svg11.dtd">
<svg xmlns:xlink="http://www.w3.org/1999/xlink" width="172.8pt" height="172.8pt" viewBox="0 0 172.8 172.8" xmlns="http://www.w3.org/2000/svg" version="1.1">
 <metadata>
  <rdf:RDF xmlns:dc="http://purl.org/dc/elements/1.1/" xmlns:cc="http://creativecommons.org/ns#" xmlns:rdf="http://www.w3.org/1999/02/22-rdf-syntax-ns#">
   <cc:Work>
    <dc:type rdf:resource="http://purl.org/dc/dcmitype/StillImage"/>
    <dc:date>2024-06-27T23:09:50.308171</dc:date>
    <dc:format>image/svg+xml</dc:format>
    <dc:creator>
     <cc:Agent>
      <dc:title>Matplotlib v3.9.0, https://matplotlib.org/</dc:title>
     </cc:Agent>
    </dc:creator>
   </cc:Work>
  </rdf:RDF>
 </metadata>
 <defs>
  <style type="text/css">*{stroke-linejoin: round; stroke-linecap: butt}</style>
 </defs>
 <g id="figure_1">
  <g id="patch_1">
   <path d="M 0 172.8 
L 172.8 172.8 
L 172.8 0 
L 0 0 
z
" style="fill: #ffffff"/>
  </g>
  <g id="axes_1">
   <g id="patch_2">
    <path d="M 14.4 165.6 
L 21.6 165.6 
L 21.6 164.673113 
L 14.4 164.673113 
z
" clip-path="url(#p93f258db60)" style="fill: #ff7f0e; opacity: 0.25"/>
   </g>
   <g id="patch_3">
    <path d="M 21.6 165.6 
L 28.8 165.6 
L 28.8 160.163932 
L 21.6 160.163932 
z
" clip-path="url(#p93f258db60)" style="fill: #ff7f0e; opacity: 0.25"/>
   </g>
   <g id="patch_4">
    <path d="M 28.8 165.6 
L 36 165.6 
L 36 143.479964 
L 28.8 143.479964 
z
" clip-path="url(#p93f258db60)" style="fill: #ff7f0e; opacity: 0.25"/>
   </g>
   <g id="patch_5">
    <path d="M 36 165.6 
L 43.2 165.6 
L 43.2 113.368658 
L 36 113.368658 
z
" clip-path="url(#p93f258db60)" style="fill: #ff7f0e; opacity: 0.25"/>
   </g>
   <g id="patch_6">
    <path d="M 43.2 165.6 
L 50.4 165.6 
L 50.4 74.013531 
L 43.2 74.013531 
z
" clip-path="url(#p93f258db60)" style="fill: #ff7f0e; opacity: 0.25"/>
   </g>
   <g id="patch_7">
    <path d="M 50.4 165.6 
L 57.6 165.6 
L 57.6 39.317892 
L 50.4 39.317892 
z
" clip-path="url(#p93f258db60)" style="fill: #ff7f0e; opacity: 0.25"/>
   </g>
   <g id="patch_8">
    <path d="M 57.6 165.6 
L 64.8 165.6 
L 64.8 14.742857 
L 57.6 14.742857 
z
" clip-path="url(#p93f258db60)" style="fill: #ff7f0e; opacity: 0.25"/>
   </g>
   <g id="patch_9">
    <path d="M 64.8 165.6 
L 72 165.6 
L 72 18.675865 
L 64.8 18.675865 
z
" clip-path="url(#p93f258db60)" style="fill: #ff7f0e; opacity: 0.25"/>
   </g>
   <g id="patch_10">
    <path d="M 72 165.6 
L 79.2 165.6 
L 79.2 34.207487 
L 72 34.207487 
z
" clip-path="url(#p93f258db60)" style="fill: #ff7f0e; opacity: 0.25"/>
   </g>
   <g id="patch_11">
    <path d="M 79.2 165.6 
L 86.4 165.6 
L 86.4 62.790682 
L 79.2 62.790682 
z
" clip-path="url(#p93f258db60)" style="fill: #ff7f0e; opacity: 0.25"/>
   </g>
   <g id="patch_12">
    <path d="M 86.4 165.6 
L 93.6 165.6 
L 93.6 95.106476 
L 86.4 95.106476 
z
" clip-path="url(#p93f258db60)" style="fill: #ff7f0e; opacity: 0.25"/>
   </g>
   <g id="patch_13">
    <path d="M 93.6 165.6 
L 100.8 165.6 
L 100.8 120.808806 
L 93.6 120.808806 
z
" clip-path="url(#p93f258db60)" style="fill: #ff7f0e; opacity: 0.25"/>
   </g>
   <g id="patch_14">
    <path d="M 100.8 165.6 
L 108 165.6 
L 108 138.043896 
L 100.8 138.043896 
z
" clip-path="url(#p93f258db60)" style="fill: #ff7f0e; opacity: 0.25"/>
   </g>
   <g id="patch_15">
    <path d="M 108 165.6 
L 115.2 165.6 
L 115.2 150.494245 
L 108 150.494245 
z
" clip-path="url(#p93f258db60)" style="fill: #ff7f0e; opacity: 0.25"/>
   </g>
   <g id="patch_16">
    <path d="M 115.2 165.6 
L 122.4 165.6 
L 122.4 158.209954 
L 115.2 158.209954 
z
" clip-path="url(#p93f258db60)" style="fill: #ff7f0e; opacity: 0.25"/>
   </g>
   <g id="patch_17">
    <path d="M 122.4 165.6 
L 129.6 165.6 
L 129.6 161.717094 
L 122.4 161.717094 
z
" clip-path="url(#p93f258db60)" style="fill: #ff7f0e; opacity: 0.25"/>
   </g>
   <g id="patch_18">
    <path d="M 129.6 165.6 
L 136.8 165.6 
L 136.8 164.172093 
L 129.6 164.172093 
z
" clip-path="url(#p93f258db60)" style="fill: #ff7f0e; opacity: 0.25"/>
   </g>
   <g id="patch_19">
    <path d="M 136.8 165.6 
L 144 165.6 
L 144 164.948674 
L 136.8 164.948674 
z
" clip-path="url(#p93f258db60)" style="fill: #ff7f0e; opacity: 0.25"/>
   </g>
   <g id="patch_20">
    <path d="M 144 165.6 
L 151.2 165.6 
L 151.2 165.499796 
L 144 165.499796 
z
" clip-path="url(#p93f258db60)" style="fill: #ff7f0e; opacity: 0.25"/>
   </g>
   <g id="patch_21">
    <path d="M 151.2 165.6 
L 158.4 165.6 
L 158.4 165.524847 
L 151.2 165.524847 
z
" clip-path="url(#p93f258db60)" style="fill: #ff7f0e; opacity: 0.25"/>
   </g>
   <g id="patch_22">
    <path d="M 14.4 165.6 
L 14.4 164.673113 
L 21.6 164.673113 
L 21.6 160.163932 
L 28.8 160.163932 
L 28.8 143.479964 
L 36 143.479964 
L 36 113.368658 
L 43.2 113.368658 
L 43.2 74.013531 
L 50.4 74.013531 
L 50.4 39.317892 
L 57.6 39.317892 
L 57.6 14.742857 
L 64.8 14.742857 
L 64.8 18.675865 
L 72 18.675865 
L 72 34.207487 
L 79.2 34.207487 
L 79.2 62.790682 
L 86.4 62.790682 
L 86.4 95.106476 
L 93.6 95.106476 
L 93.6 120.808806 
L 100.8 120.808806 
L 100.8 138.043896 
L 108 138.043896 
L 108 150.494245 
L 115.2 150.494245 
L 115.2 158.209954 
L 122.4 158.209954 
L 122.4 161.717094 
L 129.6 161.717094 
L 129.6 164.172093 
L 136.8 164.172093 
L 136.8 164.948674 
L 144 164.948674 
L 144 165.499796 
L 151.2 165.499796 
L 151.2 165.524847 
L 158.4 165.524847 
L 158.4 165.6 
" clip-path="url(#p93f258db60)" style="fill: none; stroke: #ff7f0e; stroke-width: 3; stroke-linejoin: miter"/>
   </g>
  </g>
 </g>
 <defs>
  <clipPath id="p93f258db60">
   <rect x="7.2" y="7.2" width="158.4" height="158.4"/>
  </clipPath>
 </defs>
</svg>
