<?xml version="1.0" encoding="utf-8" standalone="no"?>
<!DOCTYPE svg PUBLIC "-//W3C//DTD SVG 1.1//EN"
  "http://www.w3.org/Graphics/SVG/1.1/DTD/svg11.dtd">
<svg xmlns:xlink="http://www.w3.org/1999/xlink" width="172.8pt" height="172.8pt" viewBox="0 0 172.8 172.8" xmlns="http://www.w3.org/2000/svg" version="1.1">
 <metadata>
  <rdf:RDF xmlns:dc="http://purl.org/dc/elements/1.1/" xmlns:cc="http://creativecommons.org/ns#" xmlns:rdf="http://www.w3.org/1999/02/22-rdf-syntax-ns#">
   <cc:Work>
    <dc:type rdf:resource="http://purl.org/dc/dcmitype/StillImage"/>
    <dc:date>2024-06-27T23:09:48.418979</dc:date>
    <dc:format>image/svg+xml</dc:format>
    <dc:creator>
     <cc:Agent>
      <dc:title>Matplotlib v3.9.0, https://matplotlib.org/</dc:title>
     </cc:Agent>
    </dc:creator>
   </cc:Work>
  </rdf:RDF>
 </metadata>
 <defs>
  <style type="text/css">*{stroke-linejoin: round; stroke-linecap: butt}</style>
 </defs>
 <g id="figure_1">
  <g id="patch_1">
   <path d="M 0 172.8 
L 172.8 172.8 
L 172.8 0 
L 0 0 
z
" style="fill: #ffffff"/>
  </g>
  <g id="axes_1">
   <g id="patch_2">
    <path d="M 14.4 165.6 
L 21.6 165.6 
L 21.6 140.830161 
L 14.4 140.830161 
z
" clip-path="url(#p6228abf509)" style="fill: #1f77b4; opacity: 0.25"/>
   </g>
   <g id="patch_3">
    <path d="M 21.6 165.6 
L 28.8 165.6 
L 28.8 53.242633 
L 21.6 53.242633 
z
" clip-path="url(#p6228abf509)" style="fill: #1f77b4; opacity: 0.25"/>
   </g>
   <g id="patch_4">
    <path d="M 28.8 165.6 
L 36 165.6 
L 36 14.742857 
L 28.8 14.742857 
z
" clip-path="url(#p6228abf509)" style="fill: #1f77b4; opacity: 0.25"/>
   </g>
   <g id="patch_5">
    <path d="M 36 165.6 
L 43.2 165.6 
L 43.2 30.409619 
L 36 30.409619 
z
" clip-path="url(#p6228abf509)" style="fill: #1f77b4; opacity: 0.25"/>
   </g>
   <g id="patch_6">
    <path d="M 43.2 165.6 
L 50.4 165.6 
L 50.4 49.971551 
L 43.2 49.971551 
z
" clip-path="url(#p6228abf509)" style="fill: #1f77b4; opacity: 0.25"/>
   </g>
   <g id="patch_7">
    <path d="M 50.4 165.6 
L 57.6 165.6 
L 57.6 77.06558 
L 50.4 77.06558 
z
" clip-path="url(#p6228abf509)" style="fill: #1f77b4; opacity: 0.25"/>
   </g>
   <g id="patch_8">
    <path d="M 57.6 165.6 
L 64.8 165.6 
L 64.8 96.003424 
L 57.6 96.003424 
z
" clip-path="url(#p6228abf509)" style="fill: #1f77b4; opacity: 0.25"/>
   </g>
   <g id="patch_9">
    <path d="M 64.8 165.6 
L 72 165.6 
L 72 111.433462 
L 64.8 111.433462 
z
" clip-path="url(#p6228abf509)" style="fill: #1f77b4; opacity: 0.25"/>
   </g>
   <g id="patch_10">
    <path d="M 72 165.6 
L 79.2 165.6 
L 79.2 127.982556 
L 72 127.982556 
z
" clip-path="url(#p6228abf509)" style="fill: #1f77b4; opacity: 0.25"/>
   </g>
   <g id="patch_11">
    <path d="M 79.2 165.6 
L 86.4 165.6 
L 86.4 138.635093 
L 79.2 138.635093 
z
" clip-path="url(#p6228abf509)" style="fill: #1f77b4; opacity: 0.25"/>
   </g>
   <g id="patch_12">
    <path d="M 86.4 165.6 
L 93.6 165.6 
L 93.6 147.479927 
L 86.4 147.479927 
z
" clip-path="url(#p6228abf509)" style="fill: #1f77b4; opacity: 0.25"/>
   </g>
   <g id="patch_13">
    <path d="M 93.6 165.6 
L 100.8 165.6 
L 100.8 153.93601 
L 93.6 153.93601 
z
" clip-path="url(#p6228abf509)" style="fill: #1f77b4; opacity: 0.25"/>
   </g>
   <g id="patch_14">
    <path d="M 100.8 165.6 
L 108 165.6 
L 108 158.046383 
L 100.8 158.046383 
z
" clip-path="url(#p6228abf509)" style="fill: #1f77b4; opacity: 0.25"/>
   </g>
   <g id="patch_15">
    <path d="M 108 165.6 
L 115.2 165.6 
L 115.2 162.027634 
L 108 162.027634 
z
" clip-path="url(#p6228abf509)" style="fill: #1f77b4; opacity: 0.25"/>
   </g>
   <g id="patch_16">
    <path d="M 115.2 165.6 
L 122.4 165.6 
L 122.4 163.361891 
L 115.2 163.361891 
z
" clip-path="url(#p6228abf509)" style="fill: #1f77b4; opacity: 0.25"/>
   </g>
   <g id="patch_17">
    <path d="M 122.4 165.6 
L 129.6 165.6 
L 129.6 164.502466 
L 122.4 164.502466 
z
" clip-path="url(#p6228abf509)" style="fill: #1f77b4; opacity: 0.25"/>
   </g>
   <g id="patch_18">
    <path d="M 129.6 165.6 
L 136.8 165.6 
L 136.8 165.126554 
L 129.6 165.126554 
z
" clip-path="url(#p6228abf509)" style="fill: #1f77b4; opacity: 0.25"/>
   </g>
   <g id="patch_19">
    <path d="M 136.8 165.6 
L 144 165.6 
L 144 165.384797 
L 136.8 165.384797 
z
" clip-path="url(#p6228abf509)" style="fill: #1f77b4; opacity: 0.25"/>
   </g>
   <g id="patch_20">
    <path d="M 144 165.6 
L 151.2 165.6 
L 151.2 165.449358 
L 144 165.449358 
z
" clip-path="url(#p6228abf509)" style="fill: #1f77b4; opacity: 0.25"/>
   </g>
   <g id="patch_21">
    <path d="M 151.2 165.6 
L 158.4 165.6 
L 158.4 165.556959 
L 151.2 165.556959 
z
" clip-path="url(#p6228abf509)" style="fill: #1f77b4; opacity: 0.25"/>
   </g>
   <g id="patch_22">
    <path d="M 14.4 165.6 
L 14.4 140.830161 
L 21.6 140.830161 
L 21.6 53.242633 
L 28.8 53.242633 
L 28.8 14.742857 
L 36 14.742857 
L 36 30.409619 
L 43.2 30.409619 
L 43.2 49.971551 
L 50.4 49.971551 
L 50.4 77.06558 
L 57.6 77.06558 
L 57.6 96.003424 
L 64.8 96.003424 
L 64.8 111.433462 
L 72 111.433462 
L 72 127.982556 
L 79.2 127.982556 
L 79.2 138.635093 
L 86.4 138.635093 
L 86.4 147.479927 
L 93.6 147.479927 
L 93.6 153.93601 
L 100.8 153.93601 
L 100.8 158.046383 
L 108 158.046383 
L 108 162.027634 
L 115.2 162.027634 
L 115.2 163.361891 
L 122.4 163.361891 
L 122.4 164.502466 
L 129.6 164.502466 
L 129.6 165.126554 
L 136.8 165.126554 
L 136.8 165.384797 
L 144 165.384797 
L 144 165.449358 
L 151.2 165.449358 
L 151.2 165.556959 
L 158.4 165.556959 
L 158.4 165.6 
" clip-path="url(#p6228abf509)" style="fill: none; stroke: #1f77b4; stroke-width: 3; stroke-linejoin: miter"/>
   </g>
  </g>
 </g>
 <defs>
  <clipPath id="p6228abf509">
   <rect x="7.2" y="7.2" width="158.4" height="158.4"/>
  </clipPath>
 </defs>
</svg>
