<?xml version="1.0" encoding="utf-8" standalone="no"?>
<!DOCTYPE svg PUBLIC "-//W3C//DTD SVG 1.1//EN"
  "http://www.w3.org/Graphics/SVG/1.1/DTD/svg11.dtd">
<svg xmlns:xlink="http://www.w3.org/1999/xlink" width="172.8pt" height="172.8pt" viewBox="0 0 172.8 172.8" xmlns="http://www.w3.org/2000/svg" version="1.1">
 <metadata>
  <rdf:RDF xmlns:dc="http://purl.org/dc/elements/1.1/" xmlns:cc="http://creativecommons.org/ns#" xmlns:rdf="http://www.w3.org/1999/02/22-rdf-syntax-ns#">
   <cc:Work>
    <dc:type rdf:resource="http://purl.org/dc/dcmitype/StillImage"/>
    <dc:date>2024-06-27T23:09:49.019286</dc:date>
    <dc:format>image/svg+xml</dc:format>
    <dc:creator>
     <cc:Agent>
      <dc:title>Matplotlib v3.9.0, https://matplotlib.org/</dc:title>
     </cc:Agent>
    </dc:creator>
   </cc:Work>
  </rdf:RDF>
 </metadata>
 <defs>
  <style type="text/css">*{stroke-linejoin: round; stroke-linecap: butt}</style>
 </defs>
 <g id="figure_1">
  <g id="patch_1">
   <path d="M 0 172.8 
L 172.8 172.8 
L 172.8 0 
L 0 0 
z
" style="fill: #ffffff"/>
  </g>
  <g id="axes_1">
   <g id="patch_2">
    <path d="M 14.4 165.6 
L 21.6 165.6 
L 21.6 165.556966 
L 14.4 165.556966 
z
" clip-path="url(#pe94c0384ab)" style="fill: #1f77b4; opacity: 0.25"/>
   </g>
   <g id="patch_3">
    <path d="M 21.6 165.6 
L 28.8 165.6 
L 28.8 165.44938 
L 21.6 165.44938 
z
" clip-path="url(#pe94c0384ab)" style="fill: #1f77b4; opacity: 0.25"/>
   </g>
   <g id="patch_4">
    <path d="M 28.8 165.6 
L 36 165.6 
L 36 165.384828 
L 28.8 165.384828 
z
" clip-path="url(#pe94c0384ab)" style="fill: #1f77b4; opacity: 0.25"/>
   </g>
   <g id="patch_5">
    <path d="M 36 165.6 
L 43.2 165.6 
L 43.2 165.126621 
L 36 165.126621 
z
" clip-path="url(#pe94c0384ab)" style="fill: #1f77b4; opacity: 0.25"/>
   </g>
   <g id="patch_6">
    <path d="M 43.2 165.6 
L 50.4 165.6 
L 50.4 164.502622 
L 43.2 164.502622 
z
" clip-path="url(#pe94c0384ab)" style="fill: #1f77b4; opacity: 0.25"/>
   </g>
   <g id="patch_7">
    <path d="M 50.4 165.6 
L 57.6 165.6 
L 57.6 163.319176 
L 50.4 163.319176 
z
" clip-path="url(#pe94c0384ab)" style="fill: #1f77b4; opacity: 0.25"/>
   </g>
   <g id="patch_8">
    <path d="M 57.6 165.6 
L 64.8 165.6 
L 64.8 162.028144 
L 57.6 162.028144 
z
" clip-path="url(#pe94c0384ab)" style="fill: #1f77b4; opacity: 0.25"/>
   </g>
   <g id="patch_9">
    <path d="M 64.8 165.6 
L 72 165.6 
L 72 157.961391 
L 64.8 157.961391 
z
" clip-path="url(#pe94c0384ab)" style="fill: #1f77b4; opacity: 0.25"/>
   </g>
   <g id="patch_10">
    <path d="M 72 165.6 
L 79.2 165.6 
L 79.2 153.765536 
L 72 153.765536 
z
" clip-path="url(#pe94c0384ab)" style="fill: #1f77b4; opacity: 0.25"/>
   </g>
   <g id="patch_11">
    <path d="M 79.2 165.6 
L 86.4 165.6 
L 86.4 147.525546 
L 79.2 147.525546 
z
" clip-path="url(#pe94c0384ab)" style="fill: #1f77b4; opacity: 0.25"/>
   </g>
   <g id="patch_12">
    <path d="M 86.4 165.6 
L 93.6 165.6 
L 93.6 138.466801 
L 86.4 138.466801 
z
" clip-path="url(#pe94c0384ab)" style="fill: #1f77b4; opacity: 0.25"/>
   </g>
   <g id="patch_13">
    <path d="M 93.6 165.6 
L 100.8 165.6 
L 100.8 127.923369 
L 93.6 127.923369 
z
" clip-path="url(#pe94c0384ab)" style="fill: #1f77b4; opacity: 0.25"/>
   </g>
   <g id="patch_14">
    <path d="M 100.8 165.6 
L 108 165.6 
L 108 111.312085 
L 100.8 111.312085 
z
" clip-path="url(#pe94c0384ab)" style="fill: #1f77b4; opacity: 0.25"/>
   </g>
   <g id="patch_15">
    <path d="M 108 165.6 
L 115.2 165.6 
L 115.2 95.905764 
L 108 95.905764 
z
" clip-path="url(#pe94c0384ab)" style="fill: #1f77b4; opacity: 0.25"/>
   </g>
   <g id="patch_16">
    <path d="M 115.2 165.6 
L 122.4 165.6 
L 122.4 76.75545 
L 115.2 76.75545 
z
" clip-path="url(#pe94c0384ab)" style="fill: #1f77b4; opacity: 0.25"/>
   </g>
   <g id="patch_17">
    <path d="M 122.4 165.6 
L 129.6 165.6 
L 129.6 50.052595 
L 122.4 50.052595 
z
" clip-path="url(#pe94c0384ab)" style="fill: #1f77b4; opacity: 0.25"/>
   </g>
   <g id="patch_18">
    <path d="M 129.6 165.6 
L 136.8 165.6 
L 136.8 30.493453 
L 129.6 30.493453 
z
" clip-path="url(#pe94c0384ab)" style="fill: #1f77b4; opacity: 0.25"/>
   </g>
   <g id="patch_19">
    <path d="M 136.8 165.6 
L 144 165.6 
L 144 14.742857 
L 136.8 14.742857 
z
" clip-path="url(#pe94c0384ab)" style="fill: #1f77b4; opacity: 0.25"/>
   </g>
   <g id="patch_20">
    <path d="M 144 165.6 
L 151.2 165.6 
L 151.2 53.925692 
L 144 53.925692 
z
" clip-path="url(#pe94c0384ab)" style="fill: #1f77b4; opacity: 0.25"/>
   </g>
   <g id="patch_21">
    <path d="M 151.2 165.6 
L 158.4 165.6 
L 158.4 141.113418 
L 151.2 141.113418 
z
" clip-path="url(#pe94c0384ab)" style="fill: #1f77b4; opacity: 0.25"/>
   </g>
   <g id="patch_22">
    <path d="M 14.4 165.6 
L 14.4 165.556966 
L 21.6 165.556966 
L 21.6 165.44938 
L 28.8 165.44938 
L 28.8 165.384828 
L 36 165.384828 
L 36 165.126621 
L 43.2 165.126621 
L 43.2 164.502622 
L 50.4 164.502622 
L 50.4 163.319176 
L 57.6 163.319176 
L 57.6 162.028144 
L 64.8 162.028144 
L 64.8 157.961391 
L 72 157.961391 
L 72 153.765536 
L 79.2 153.765536 
L 79.2 147.525546 
L 86.4 147.525546 
L 86.4 138.466801 
L 93.6 138.466801 
L 93.6 127.923369 
L 100.8 127.923369 
L 100.8 111.312085 
L 108 111.312085 
L 108 95.905764 
L 115.2 95.905764 
L 115.2 76.75545 
L 122.4 76.75545 
L 122.4 50.052595 
L 129.6 50.052595 
L 129.6 30.493453 
L 136.8 30.493453 
L 136.8 14.742857 
L 144 14.742857 
L 144 53.925692 
L 151.2 53.925692 
L 151.2 141.113418 
L 158.4 141.113418 
L 158.4 165.6 
" clip-path="url(#pe94c0384ab)" style="fill: none; stroke: #1f77b4; stroke-width: 3; stroke-linejoin: miter"/>
   </g>
  </g>
 </g>
 <defs>
  <clipPath id="pe94c0384ab">
   <rect x="7.2" y="7.2" width="158.4" height="158.4"/>
  </clipPath>
 </defs>
</svg>
