<?xml version="1.0" encoding="utf-8" standalone="no"?>
<!DOCTYPE svg PUBLIC "-//W3C//DTD SVG 1.1//EN"
  "http://www.w3.org/Graphics/SVG/1.1/DTD/svg11.dtd">
<svg xmlns:xlink="http://www.w3.org/1999/xlink" width="172.8pt" height="172.8pt" viewBox="0 0 172.8 172.8" xmlns="http://www.w3.org/2000/svg" version="1.1">
 <metadata>
  <rdf:RDF xmlns:dc="http://purl.org/dc/elements/1.1/" xmlns:cc="http://creativecommons.org/ns#" xmlns:rdf="http://www.w3.org/1999/02/22-rdf-syntax-ns#">
   <cc:Work>
    <dc:type rdf:resource="http://purl.org/dc/dcmitype/StillImage"/>
    <dc:date>2024-06-27T23:09:47.847299</dc:date>
    <dc:format>image/svg+xml</dc:format>
    <dc:creator>
     <cc:Agent>
      <dc:title>Matplotlib v3.9.0, https://matplotlib.org/</dc:title>
     </cc:Agent>
    </dc:creator>
   </cc:Work>
  </rdf:RDF>
 </metadata>
 <defs>
  <style type="text/css">*{stroke-linejoin: round; stroke-linecap: butt}</style>
 </defs>
 <g id="figure_1">
  <g id="patch_1">
   <path d="M 0 172.8 
L 172.8 172.8 
L 172.8 0 
L 0 0 
z
" style="fill: #ffffff"/>
  </g>
  <g id="axes_1">
   <g id="patch_2">
    <path d="M 14.4 165.6 
L 21.6 165.6 
L 21.6 165.50132 
L 14.4 165.50132 
z
" clip-path="url(#p35512969e0)" style="fill: #ff7f0e; opacity: 0.25"/>
   </g>
   <g id="patch_3">
    <path d="M 21.6 165.6 
L 28.8 165.6 
L 28.8 165.52599 
L 21.6 165.52599 
z
" clip-path="url(#p35512969e0)" style="fill: #ff7f0e; opacity: 0.25"/>
   </g>
   <g id="patch_4">
    <path d="M 28.8 165.6 
L 36 165.6 
L 36 164.93391 
L 28.8 164.93391 
z
" clip-path="url(#p35512969e0)" style="fill: #ff7f0e; opacity: 0.25"/>
   </g>
   <g id="patch_5">
    <path d="M 36 165.6 
L 43.2 165.6 
L 43.2 163.675739 
L 36 163.675739 
z
" clip-path="url(#p35512969e0)" style="fill: #ff7f0e; opacity: 0.25"/>
   </g>
   <g id="patch_6">
    <path d="M 43.2 165.6 
L 50.4 165.6 
L 50.4 161.381427 
L 43.2 161.381427 
z
" clip-path="url(#p35512969e0)" style="fill: #ff7f0e; opacity: 0.25"/>
   </g>
   <g id="patch_7">
    <path d="M 50.4 165.6 
L 57.6 165.6 
L 57.6 155.435954 
L 50.4 155.435954 
z
" clip-path="url(#p35512969e0)" style="fill: #ff7f0e; opacity: 0.25"/>
   </g>
   <g id="patch_8">
    <path d="M 57.6 165.6 
L 64.8 165.6 
L 64.8 145.345918 
L 57.6 145.345918 
z
" clip-path="url(#p35512969e0)" style="fill: #ff7f0e; opacity: 0.25"/>
   </g>
   <g id="patch_9">
    <path d="M 64.8 165.6 
L 72 165.6 
L 72 126.424016 
L 64.8 126.424016 
z
" clip-path="url(#p35512969e0)" style="fill: #ff7f0e; opacity: 0.25"/>
   </g>
   <g id="patch_10">
    <path d="M 72 165.6 
L 79.2 165.6 
L 79.2 104.936433 
L 72 104.936433 
z
" clip-path="url(#p35512969e0)" style="fill: #ff7f0e; opacity: 0.25"/>
   </g>
   <g id="patch_11">
    <path d="M 79.2 165.6 
L 86.4 165.6 
L 86.4 73.950894 
L 79.2 73.950894 
z
" clip-path="url(#p35512969e0)" style="fill: #ff7f0e; opacity: 0.25"/>
   </g>
   <g id="patch_12">
    <path d="M 86.4 165.6 
L 93.6 165.6 
L 93.6 50.465039 
L 86.4 50.465039 
z
" clip-path="url(#p35512969e0)" style="fill: #ff7f0e; opacity: 0.25"/>
   </g>
   <g id="patch_13">
    <path d="M 93.6 165.6 
L 100.8 165.6 
L 100.8 25.745684 
L 93.6 25.745684 
z
" clip-path="url(#p35512969e0)" style="fill: #ff7f0e; opacity: 0.25"/>
   </g>
   <g id="patch_14">
    <path d="M 100.8 165.6 
L 108 165.6 
L 108 14.742857 
L 100.8 14.742857 
z
" clip-path="url(#p35512969e0)" style="fill: #ff7f0e; opacity: 0.25"/>
   </g>
   <g id="patch_15">
    <path d="M 108 165.6 
L 115.2 165.6 
L 115.2 17.160519 
L 108 17.160519 
z
" clip-path="url(#p35512969e0)" style="fill: #ff7f0e; opacity: 0.25"/>
   </g>
   <g id="patch_16">
    <path d="M 115.2 165.6 
L 122.4 165.6 
L 122.4 36.822521 
L 115.2 36.822521 
z
" clip-path="url(#p35512969e0)" style="fill: #ff7f0e; opacity: 0.25"/>
   </g>
   <g id="patch_17">
    <path d="M 122.4 165.6 
L 129.6 165.6 
L 129.6 107.058054 
L 122.4 107.058054 
z
" clip-path="url(#p35512969e0)" style="fill: #ff7f0e; opacity: 0.25"/>
   </g>
   <g id="patch_18">
    <path d="M 129.6 165.6 
L 136.8 165.6 
L 136.8 151.636771 
L 129.6 151.636771 
z
" clip-path="url(#p35512969e0)" style="fill: #ff7f0e; opacity: 0.25"/>
   </g>
   <g id="patch_19">
    <path d="M 136.8 165.6 
L 144 165.6 
L 144 163.552389 
L 136.8 163.552389 
z
" clip-path="url(#p35512969e0)" style="fill: #ff7f0e; opacity: 0.25"/>
   </g>
   <g id="patch_20">
    <path d="M 144 165.6 
L 151.2 165.6 
L 151.2 165.3533 
L 144 165.3533 
z
" clip-path="url(#p35512969e0)" style="fill: #ff7f0e; opacity: 0.25"/>
   </g>
   <g id="patch_21">
    <path d="M 151.2 165.6 
L 158.4 165.6 
L 158.4 165.55066 
L 151.2 165.55066 
z
" clip-path="url(#p35512969e0)" style="fill: #ff7f0e; opacity: 0.25"/>
   </g>
   <g id="patch_22">
    <path d="M 14.4 165.6 
L 14.4 165.50132 
L 21.6 165.50132 
L 21.6 165.52599 
L 28.8 165.52599 
L 28.8 164.93391 
L 36 164.93391 
L 36 163.675739 
L 43.2 163.675739 
L 43.2 161.381427 
L 50.4 161.381427 
L 50.4 155.435954 
L 57.6 155.435954 
L 57.6 145.345918 
L 64.8 145.345918 
L 64.8 126.424016 
L 72 126.424016 
L 72 104.936433 
L 79.2 104.936433 
L 79.2 73.950894 
L 86.4 73.950894 
L 86.4 50.465039 
L 93.6 50.465039 
L 93.6 25.745684 
L 100.8 25.745684 
L 100.8 14.742857 
L 108 14.742857 
L 108 17.160519 
L 115.2 17.160519 
L 115.2 36.822521 
L 122.4 36.822521 
L 122.4 107.058054 
L 129.6 107.058054 
L 129.6 151.636771 
L 136.8 151.636771 
L 136.8 163.552389 
L 144 163.552389 
L 144 165.3533 
L 151.2 165.3533 
L 151.2 165.55066 
L 158.4 165.55066 
L 158.4 165.6 
" clip-path="url(#p35512969e0)" style="fill: none; stroke: #ff7f0e; stroke-width: 3; stroke-linejoin: miter"/>
   </g>
  </g>
 </g>
 <defs>
  <clipPath id="p35512969e0">
   <rect x="7.2" y="7.2" width="158.4" height="158.4"/>
  </clipPath>
 </defs>
</svg>
