<?xml version="1.0" encoding="utf-8" standalone="no"?>
<!DOCTYPE svg PUBLIC "-//W3C//DTD SVG 1.1//EN"
  "http://www.w3.org/Graphics/SVG/1.1/DTD/svg11.dtd">
<svg xmlns:xlink="http://www.w3.org/1999/xlink" width="172.8pt" height="172.8pt" viewBox="0 0 172.8 172.8" xmlns="http://www.w3.org/2000/svg" version="1.1">
 <metadata>
  <rdf:RDF xmlns:dc="http://purl.org/dc/elements/1.1/" xmlns:cc="http://creativecommons.org/ns#" xmlns:rdf="http://www.w3.org/1999/02/22-rdf-syntax-ns#">
   <cc:Work>
    <dc:type rdf:resource="http://purl.org/dc/dcmitype/StillImage"/>
    <dc:date>2024-06-27T23:09:50.898387</dc:date>
    <dc:format>image/svg+xml</dc:format>
    <dc:creator>
     <cc:Agent>
      <dc:title>Matplotlib v3.9.0, https://matplotlib.org/</dc:title>
     </cc:Agent>
    </dc:creator>
   </cc:Work>
  </rdf:RDF>
 </metadata>
 <defs>
  <style type="text/css">*{stroke-linejoin: round; stroke-linecap: butt}</style>
 </defs>
 <g id="figure_1">
  <g id="patch_1">
   <path d="M 0 172.8 
L 172.8 172.8 
L 172.8 0 
L 0 0 
z
" style="fill: #ffffff"/>
  </g>
  <g id="axes_1">
   <g id="patch_2">
    <path d="M 14.4 165.6 
L 21.6 165.6 
L 21.6 133.81427 
L 14.4 133.81427 
z
" clip-path="url(#pb96d8613db)" style="fill: #ff7f0e; opacity: 0.25"/>
   </g>
   <g id="patch_3">
    <path d="M 21.6 165.6 
L 28.8 165.6 
L 28.8 110.566994 
L 21.6 110.566994 
z
" clip-path="url(#pb96d8613db)" style="fill: #ff7f0e; opacity: 0.25"/>
   </g>
   <g id="patch_4">
    <path d="M 28.8 165.6 
L 36 165.6 
L 36 80.882524 
L 28.8 80.882524 
z
" clip-path="url(#pb96d8613db)" style="fill: #ff7f0e; opacity: 0.25"/>
   </g>
   <g id="patch_5">
    <path d="M 36 165.6 
L 43.2 165.6 
L 43.2 55.167101 
L 36 55.167101 
z
" clip-path="url(#pb96d8613db)" style="fill: #ff7f0e; opacity: 0.25"/>
   </g>
   <g id="patch_6">
    <path d="M 43.2 165.6 
L 50.4 165.6 
L 50.4 35.088393 
L 43.2 35.088393 
z
" clip-path="url(#pb96d8613db)" style="fill: #ff7f0e; opacity: 0.25"/>
   </g>
   <g id="patch_7">
    <path d="M 50.4 165.6 
L 57.6 165.6 
L 57.6 16.744057 
L 50.4 16.744057 
z
" clip-path="url(#pb96d8613db)" style="fill: #ff7f0e; opacity: 0.25"/>
   </g>
   <g id="patch_8">
    <path d="M 57.6 165.6 
L 64.8 165.6 
L 64.8 15.143097 
L 57.6 15.143097 
z
" clip-path="url(#pb96d8613db)" style="fill: #ff7f0e; opacity: 0.25"/>
   </g>
   <g id="patch_9">
    <path d="M 64.8 165.6 
L 72 165.6 
L 72 14.742857 
L 64.8 14.742857 
z
" clip-path="url(#pb96d8613db)" style="fill: #ff7f0e; opacity: 0.25"/>
   </g>
   <g id="patch_10">
    <path d="M 72 165.6 
L 79.2 165.6 
L 79.2 32.019886 
L 72 32.019886 
z
" clip-path="url(#pb96d8613db)" style="fill: #ff7f0e; opacity: 0.25"/>
   </g>
   <g id="patch_11">
    <path d="M 79.2 165.6 
L 86.4 165.6 
L 86.4 50.764461 
L 79.2 50.764461 
z
" clip-path="url(#pb96d8613db)" style="fill: #ff7f0e; opacity: 0.25"/>
   </g>
   <g id="patch_12">
    <path d="M 86.4 165.6 
L 93.6 165.6 
L 93.6 79.281564 
L 86.4 79.281564 
z
" clip-path="url(#pb96d8613db)" style="fill: #ff7f0e; opacity: 0.25"/>
   </g>
   <g id="patch_13">
    <path d="M 93.6 165.6 
L 100.8 165.6 
L 100.8 107.6319 
L 93.6 107.6319 
z
" clip-path="url(#pb96d8613db)" style="fill: #ff7f0e; opacity: 0.25"/>
   </g>
   <g id="patch_14">
    <path d="M 100.8 165.6 
L 108 165.6 
L 108 127.944083 
L 100.8 127.944083 
z
" clip-path="url(#pb96d8613db)" style="fill: #ff7f0e; opacity: 0.25"/>
   </g>
   <g id="patch_15">
    <path d="M 108 165.6 
L 115.2 165.6 
L 115.2 144.987638 
L 108 144.987638 
z
" clip-path="url(#pb96d8613db)" style="fill: #ff7f0e; opacity: 0.25"/>
   </g>
   <g id="patch_16">
    <path d="M 115.2 165.6 
L 122.4 165.6 
L 122.4 154.093099 
L 115.2 154.093099 
z
" clip-path="url(#pb96d8613db)" style="fill: #ff7f0e; opacity: 0.25"/>
   </g>
   <g id="patch_17">
    <path d="M 122.4 165.6 
L 129.6 165.6 
L 129.6 160.263466 
L 122.4 160.263466 
z
" clip-path="url(#pb96d8613db)" style="fill: #ff7f0e; opacity: 0.25"/>
   </g>
   <g id="patch_18">
    <path d="M 129.6 165.6 
L 136.8 165.6 
L 136.8 163.565446 
L 129.6 163.565446 
z
" clip-path="url(#pb96d8613db)" style="fill: #ff7f0e; opacity: 0.25"/>
   </g>
   <g id="patch_19">
    <path d="M 136.8 165.6 
L 144 165.6 
L 144 164.666107 
L 136.8 164.666107 
z
" clip-path="url(#pb96d8613db)" style="fill: #ff7f0e; opacity: 0.25"/>
   </g>
   <g id="patch_20">
    <path d="M 144 165.6 
L 151.2 165.6 
L 151.2 165.166407 
L 144 165.166407 
z
" clip-path="url(#pb96d8613db)" style="fill: #ff7f0e; opacity: 0.25"/>
   </g>
   <g id="patch_21">
    <path d="M 151.2 165.6 
L 158.4 165.6 
L 158.4 165.333173 
L 151.2 165.333173 
z
" clip-path="url(#pb96d8613db)" style="fill: #ff7f0e; opacity: 0.25"/>
   </g>
   <g id="patch_22">
    <path d="M 14.4 165.6 
L 14.4 133.81427 
L 21.6 133.81427 
L 21.6 110.566994 
L 28.8 110.566994 
L 28.8 80.882524 
L 36 80.882524 
L 36 55.167101 
L 43.2 55.167101 
L 43.2 35.088393 
L 50.4 35.088393 
L 50.4 16.744057 
L 57.6 16.744057 
L 57.6 15.143097 
L 64.8 15.143097 
L 64.8 14.742857 
L 72 14.742857 
L 72 32.019886 
L 79.2 32.019886 
L 79.2 50.764461 
L 86.4 50.764461 
L 86.4 79.281564 
L 93.6 79.281564 
L 93.6 107.6319 
L 100.8 107.6319 
L 100.8 127.944083 
L 108 127.944083 
L 108 144.987638 
L 115.2 144.987638 
L 115.2 154.093099 
L 122.4 154.093099 
L 122.4 160.263466 
L 129.6 160.263466 
L 129.6 163.565446 
L 136.8 163.565446 
L 136.8 164.666107 
L 144 164.666107 
L 144 165.166407 
L 151.2 165.166407 
L 151.2 165.333173 
L 158.4 165.333173 
L 158.4 165.6 
" clip-path="url(#pb96d8613db)" style="fill: none; stroke: #ff7f0e; stroke-width: 3; stroke-linejoin: miter"/>
   </g>
  </g>
 </g>
 <defs>
  <clipPath id="pb96d8613db">
   <rect x="7.2" y="7.2" width="158.4" height="158.4"/>
  </clipPath>
 </defs>
</svg>
