<?xml version="1.0" encoding="utf-8" standalone="no"?>
<!DOCTYPE svg PUBLIC "-//W3C//DTD SVG 1.1//EN"
  "http://www.w3.org/Graphics/SVG/1.1/DTD/svg11.dtd">
<svg xmlns:xlink="http://www.w3.org/1999/xlink" width="172.8pt" height="172.8pt" viewBox="0 0 172.8 172.8" xmlns="http://www.w3.org/2000/svg" version="1.1">
 <metadata>
  <rdf:RDF xmlns:dc="http://purl.org/dc/elements/1.1/" xmlns:cc="http://creativecommons.org/ns#" xmlns:rdf="http://www.w3.org/1999/02/22-rdf-syntax-ns#">
   <cc:Work>
    <dc:type rdf:resource="http://purl.org/dc/dcmitype/StillImage"/>
    <dc:date>2024-06-27T23:09:52.099038</dc:date>
    <dc:format>image/svg+xml</dc:format>
    <dc:creator>
     <cc:Agent>
      <dc:title>Matplotlib v3.9.0, https://matplotlib.org/</dc:title>
     </cc:Agent>
    </dc:creator>
   </cc:Work>
  </rdf:RDF>
 </metadata>
 <defs>
  <style type="text/css">*{stroke-linejoin: round; stroke-linecap: butt}</style>
 </defs>
 <g id="figure_1">
  <g id="patch_1">
   <path d="M 0 172.8 
L 172.8 172.8 
L 172.8 0 
L 0 0 
z
" style="fill: #ffffff"/>
  </g>
  <g id="axes_1">
   <g id="patch_2">
    <path d="M 14.4 165.6 
L 21.6 165.6 
L 21.6 14.742857 
L 14.4 14.742857 
z
" clip-path="url(#p75e4d10699)" style="fill: #ff7f0e; opacity: 0.25"/>
   </g>
   <g id="patch_3">
    <path d="M 21.6 165.6 
L 28.8 165.6 
L 28.8 46.546668 
L 21.6 46.546668 
z
" clip-path="url(#p75e4d10699)" style="fill: #ff7f0e; opacity: 0.25"/>
   </g>
   <g id="patch_4">
    <path d="M 28.8 165.6 
L 36 165.6 
L 36 75.848075 
L 28.8 75.848075 
z
" clip-path="url(#p75e4d10699)" style="fill: #ff7f0e; opacity: 0.25"/>
   </g>
   <g id="patch_5">
    <path d="M 36 165.6 
L 43.2 165.6 
L 43.2 100.522943 
L 36 100.522943 
z
" clip-path="url(#p75e4d10699)" style="fill: #ff7f0e; opacity: 0.25"/>
   </g>
   <g id="patch_6">
    <path d="M 43.2 165.6 
L 50.4 165.6 
L 50.4 118.258005 
L 43.2 118.258005 
z
" clip-path="url(#p75e4d10699)" style="fill: #ff7f0e; opacity: 0.25"/>
   </g>
   <g id="patch_7">
    <path d="M 50.4 165.6 
L 57.6 165.6 
L 57.6 129.591568 
L 50.4 129.591568 
z
" clip-path="url(#p75e4d10699)" style="fill: #ff7f0e; opacity: 0.25"/>
   </g>
   <g id="patch_8">
    <path d="M 57.6 165.6 
L 64.8 165.6 
L 64.8 141.856258 
L 57.6 141.856258 
z
" clip-path="url(#p75e4d10699)" style="fill: #ff7f0e; opacity: 0.25"/>
   </g>
   <g id="patch_9">
    <path d="M 64.8 165.6 
L 72 165.6 
L 72 149.829034 
L 64.8 149.829034 
z
" clip-path="url(#p75e4d10699)" style="fill: #ff7f0e; opacity: 0.25"/>
   </g>
   <g id="patch_10">
    <path d="M 72 165.6 
L 79.2 165.6 
L 79.2 153.946362 
L 72 153.946362 
z
" clip-path="url(#p75e4d10699)" style="fill: #ff7f0e; opacity: 0.25"/>
   </g>
   <g id="patch_11">
    <path d="M 79.2 165.6 
L 86.4 165.6 
L 86.4 157.278051 
L 79.2 157.278051 
z
" clip-path="url(#p75e4d10699)" style="fill: #ff7f0e; opacity: 0.25"/>
   </g>
   <g id="patch_12">
    <path d="M 86.4 165.6 
L 93.6 165.6 
L 93.6 160.784327 
L 86.4 160.784327 
z
" clip-path="url(#p75e4d10699)" style="fill: #ff7f0e; opacity: 0.25"/>
   </g>
   <g id="patch_13">
    <path d="M 93.6 165.6 
L 100.8 165.6 
L 100.8 162.268311 
L 93.6 162.268311 
z
" clip-path="url(#p75e4d10699)" style="fill: #ff7f0e; opacity: 0.25"/>
   </g>
   <g id="patch_14">
    <path d="M 100.8 165.6 
L 108 165.6 
L 108 163.43222 
L 100.8 163.43222 
z
" clip-path="url(#p75e4d10699)" style="fill: #ff7f0e; opacity: 0.25"/>
   </g>
   <g id="patch_15">
    <path d="M 108 165.6 
L 115.2 165.6 
L 115.2 163.67955 
L 108 163.67955 
z
" clip-path="url(#p75e4d10699)" style="fill: #ff7f0e; opacity: 0.25"/>
   </g>
   <g id="patch_16">
    <path d="M 115.2 165.6 
L 122.4 165.6 
L 122.4 164.727068 
L 115.2 164.727068 
z
" clip-path="url(#p75e4d10699)" style="fill: #ff7f0e; opacity: 0.25"/>
   </g>
   <g id="patch_17">
    <path d="M 122.4 165.6 
L 129.6 165.6 
L 129.6 165.047143 
L 122.4 165.047143 
z
" clip-path="url(#p75e4d10699)" style="fill: #ff7f0e; opacity: 0.25"/>
   </g>
   <g id="patch_18">
    <path d="M 129.6 165.6 
L 136.8 165.6 
L 136.8 165.294474 
L 129.6 165.294474 
z
" clip-path="url(#p75e4d10699)" style="fill: #ff7f0e; opacity: 0.25"/>
   </g>
   <g id="patch_19">
    <path d="M 136.8 165.6 
L 144 165.6 
L 144 165.352669 
L 136.8 165.352669 
z
" clip-path="url(#p75e4d10699)" style="fill: #ff7f0e; opacity: 0.25"/>
   </g>
   <g id="patch_20">
    <path d="M 144 165.6 
L 151.2 165.6 
L 151.2 165.498158 
L 144 165.498158 
z
" clip-path="url(#p75e4d10699)" style="fill: #ff7f0e; opacity: 0.25"/>
   </g>
   <g id="patch_21">
    <path d="M 151.2 165.6 
L 158.4 165.6 
L 158.4 165.541805 
L 151.2 165.541805 
z
" clip-path="url(#p75e4d10699)" style="fill: #ff7f0e; opacity: 0.25"/>
   </g>
   <g id="patch_22">
    <path d="M 14.4 165.6 
L 14.4 14.742857 
L 21.6 14.742857 
L 21.6 46.546668 
L 28.8 46.546668 
L 28.8 75.848075 
L 36 75.848075 
L 36 100.522943 
L 43.2 100.522943 
L 43.2 118.258005 
L 50.4 118.258005 
L 50.4 129.591568 
L 57.6 129.591568 
L 57.6 141.856258 
L 64.8 141.856258 
L 64.8 149.829034 
L 72 149.829034 
L 72 153.946362 
L 79.2 153.946362 
L 79.2 157.278051 
L 86.4 157.278051 
L 86.4 160.784327 
L 93.6 160.784327 
L 93.6 162.268311 
L 100.8 162.268311 
L 100.8 163.43222 
L 108 163.43222 
L 108 163.67955 
L 115.2 163.67955 
L 115.2 164.727068 
L 122.4 164.727068 
L 122.4 165.047143 
L 129.6 165.047143 
L 129.6 165.294474 
L 136.8 165.294474 
L 136.8 165.352669 
L 144 165.352669 
L 144 165.498158 
L 151.2 165.498158 
L 151.2 165.541805 
L 158.4 165.541805 
L 158.4 165.6 
" clip-path="url(#p75e4d10699)" style="fill: none; stroke: #ff7f0e; stroke-width: 3; stroke-linejoin: miter"/>
   </g>
  </g>
 </g>
 <defs>
  <clipPath id="p75e4d10699">
   <rect x="7.2" y="7.2" width="158.4" height="158.4"/>
  </clipPath>
 </defs>
</svg>
