<?xml version="1.0" encoding="utf-8" standalone="no"?>
<!DOCTYPE svg PUBLIC "-//W3C//DTD SVG 1.1//EN"
  "http://www.w3.org/Graphics/SVG/1.1/DTD/svg11.dtd">
<svg xmlns:xlink="http://www.w3.org/1999/xlink" width="172.8pt" height="172.8pt" viewBox="0 0 172.8 172.8" xmlns="http://www.w3.org/2000/svg" version="1.1">
 <metadata>
  <rdf:RDF xmlns:dc="http://purl.org/dc/elements/1.1/" xmlns:cc="http://creativecommons.org/ns#" xmlns:rdf="http://www.w3.org/1999/02/22-rdf-syntax-ns#">
   <cc:Work>
    <dc:type rdf:resource="http://purl.org/dc/dcmitype/StillImage"/>
    <dc:date>2024-06-27T23:09:46.608056</dc:date>
    <dc:format>image/svg+xml</dc:format>
    <dc:creator>
     <cc:Agent>
      <dc:title>Matplotlib v3.9.0, https://matplotlib.org/</dc:title>
     </cc:Agent>
    </dc:creator>
   </cc:Work>
  </rdf:RDF>
 </metadata>
 <defs>
  <style type="text/css">*{stroke-linejoin: round; stroke-linecap: butt}</style>
 </defs>
 <g id="figure_1">
  <g id="patch_1">
   <path d="M 0 172.8 
L 172.8 172.8 
L 172.8 0 
L 0 0 
z
" style="fill: #ffffff"/>
  </g>
  <g id="axes_1">
   <g id="patch_2">
    <path d="M 14.4 165.6 
L 21.6 165.6 
L 21.6 14.742857 
L 14.4 14.742857 
z
" clip-path="url(#p13812a236e)" style="fill: #1f77b4; opacity: 0.25"/>
   </g>
   <g id="patch_3">
    <path d="M 21.6 165.6 
L 28.8 165.6 
L 28.8 43.732391 
L 21.6 43.732391 
z
" clip-path="url(#p13812a236e)" style="fill: #1f77b4; opacity: 0.25"/>
   </g>
   <g id="patch_4">
    <path d="M 28.8 165.6 
L 36 165.6 
L 36 63.029694 
L 28.8 63.029694 
z
" clip-path="url(#p13812a236e)" style="fill: #1f77b4; opacity: 0.25"/>
   </g>
   <g id="patch_5">
    <path d="M 36 165.6 
L 43.2 165.6 
L 43.2 83.564674 
L 36 83.564674 
z
" clip-path="url(#p13812a236e)" style="fill: #1f77b4; opacity: 0.25"/>
   </g>
   <g id="patch_6">
    <path d="M 43.2 165.6 
L 50.4 165.6 
L 50.4 98.748008 
L 43.2 98.748008 
z
" clip-path="url(#p13812a236e)" style="fill: #1f77b4; opacity: 0.25"/>
   </g>
   <g id="patch_7">
    <path d="M 50.4 165.6 
L 57.6 165.6 
L 57.6 114.140526 
L 50.4 114.140526 
z
" clip-path="url(#p13812a236e)" style="fill: #1f77b4; opacity: 0.25"/>
   </g>
   <g id="patch_8">
    <path d="M 57.6 165.6 
L 64.8 165.6 
L 64.8 126.918234 
L 57.6 126.918234 
z
" clip-path="url(#p13812a236e)" style="fill: #1f77b4; opacity: 0.25"/>
   </g>
   <g id="patch_9">
    <path d="M 64.8 165.6 
L 72 165.6 
L 72 137.098564 
L 64.8 137.098564 
z
" clip-path="url(#p13812a236e)" style="fill: #1f77b4; opacity: 0.25"/>
   </g>
   <g id="patch_10">
    <path d="M 72 165.6 
L 79.2 165.6 
L 79.2 146.023784 
L 72 146.023784 
z
" clip-path="url(#p13812a236e)" style="fill: #1f77b4; opacity: 0.25"/>
   </g>
   <g id="patch_11">
    <path d="M 79.2 165.6 
L 86.4 165.6 
L 86.4 151.950688 
L 79.2 151.950688 
z
" clip-path="url(#p13812a236e)" style="fill: #1f77b4; opacity: 0.25"/>
   </g>
   <g id="patch_12">
    <path d="M 86.4 165.6 
L 93.6 165.6 
L 93.6 156.727076 
L 86.4 156.727076 
z
" clip-path="url(#p13812a236e)" style="fill: #1f77b4; opacity: 0.25"/>
   </g>
   <g id="patch_13">
    <path d="M 93.6 165.6 
L 100.8 165.6 
L 100.8 159.952009 
L 93.6 159.952009 
z
" clip-path="url(#p13812a236e)" style="fill: #1f77b4; opacity: 0.25"/>
   </g>
   <g id="patch_14">
    <path d="M 100.8 165.6 
L 108 165.6 
L 108 162.723708 
L 100.8 162.723708 
z
" clip-path="url(#p13812a236e)" style="fill: #1f77b4; opacity: 0.25"/>
   </g>
   <g id="patch_15">
    <path d="M 108 165.6 
L 115.2 165.6 
L 115.2 163.66504 
L 108 163.66504 
z
" clip-path="url(#p13812a236e)" style="fill: #1f77b4; opacity: 0.25"/>
   </g>
   <g id="patch_16">
    <path d="M 115.2 165.6 
L 122.4 165.6 
L 122.4 164.641236 
L 115.2 164.641236 
z
" clip-path="url(#p13812a236e)" style="fill: #1f77b4; opacity: 0.25"/>
   </g>
   <g id="patch_17">
    <path d="M 122.4 165.6 
L 129.6 165.6 
L 129.6 165.077038 
L 122.4 165.077038 
z
" clip-path="url(#p13812a236e)" style="fill: #1f77b4; opacity: 0.25"/>
   </g>
   <g id="patch_18">
    <path d="M 129.6 165.6 
L 136.8 165.6 
L 136.8 165.390815 
L 129.6 165.390815 
z
" clip-path="url(#p13812a236e)" style="fill: #1f77b4; opacity: 0.25"/>
   </g>
   <g id="patch_19">
    <path d="M 136.8 165.6 
L 144 165.6 
L 144 165.51284 
L 136.8 165.51284 
z
" clip-path="url(#p13812a236e)" style="fill: #1f77b4; opacity: 0.25"/>
   </g>
   <g id="patch_20">
    <path d="M 144 165.6 
L 151.2 165.6 
L 151.2 165.51284 
L 144 165.51284 
z
" clip-path="url(#p13812a236e)" style="fill: #1f77b4; opacity: 0.25"/>
   </g>
   <g id="patch_21">
    <path d="M 151.2 165.6 
L 158.4 165.6 
L 158.4 165.565136 
L 151.2 165.565136 
z
" clip-path="url(#p13812a236e)" style="fill: #1f77b4; opacity: 0.25"/>
   </g>
   <g id="patch_22">
    <path d="M 14.4 165.6 
L 14.4 14.742857 
L 21.6 14.742857 
L 21.6 43.732391 
L 28.8 43.732391 
L 28.8 63.029694 
L 36 63.029694 
L 36 83.564674 
L 43.2 83.564674 
L 43.2 98.748008 
L 50.4 98.748008 
L 50.4 114.140526 
L 57.6 114.140526 
L 57.6 126.918234 
L 64.8 126.918234 
L 64.8 137.098564 
L 72 137.098564 
L 72 146.023784 
L 79.2 146.023784 
L 79.2 151.950688 
L 86.4 151.950688 
L 86.4 156.727076 
L 93.6 156.727076 
L 93.6 159.952009 
L 100.8 159.952009 
L 100.8 162.723708 
L 108 162.723708 
L 108 163.66504 
L 115.2 163.66504 
L 115.2 164.641236 
L 122.4 164.641236 
L 122.4 165.077038 
L 129.6 165.077038 
L 129.6 165.390815 
L 136.8 165.390815 
L 136.8 165.51284 
L 144 165.51284 
L 144 165.51284 
L 151.2 165.51284 
L 151.2 165.565136 
L 158.4 165.565136 
L 158.4 165.6 
" clip-path="url(#p13812a236e)" style="fill: none; stroke: #1f77b4; stroke-width: 3; stroke-linejoin: miter"/>
   </g>
  </g>
 </g>
 <defs>
  <clipPath id="p13812a236e">
   <rect x="7.2" y="7.2" width="158.4" height="158.4"/>
  </clipPath>
 </defs>
</svg>
