<?xml version="1.0" encoding="utf-8" standalone="no"?>
<!DOCTYPE svg PUBLIC "-//W3C//DTD SVG 1.1//EN"
  "http://www.w3.org/Graphics/SVG/1.1/DTD/svg11.dtd">
<svg xmlns:xlink="http://www.w3.org/1999/xlink" width="172.8pt" height="172.8pt" viewBox="0 0 172.8 172.8" xmlns="http://www.w3.org/2000/svg" version="1.1">
 <metadata>
  <rdf:RDF xmlns:dc="http://purl.org/dc/elements/1.1/" xmlns:cc="http://creativecommons.org/ns#" xmlns:rdf="http://www.w3.org/1999/02/22-rdf-syntax-ns#">
   <cc:Work>
    <dc:type rdf:resource="http://purl.org/dc/dcmitype/StillImage"/>
    <dc:date>2024-06-27T23:09:49.672138</dc:date>
    <dc:format>image/svg+xml</dc:format>
    <dc:creator>
     <cc:Agent>
      <dc:title>Matplotlib v3.9.0, https://matplotlib.org/</dc:title>
     </cc:Agent>
    </dc:creator>
   </cc:Work>
  </rdf:RDF>
 </metadata>
 <defs>
  <style type="text/css">*{stroke-linejoin: round; stroke-linecap: butt}</style>
 </defs>
 <g id="figure_1">
  <g id="patch_1">
   <path d="M 0 172.8 
L 172.8 172.8 
L 172.8 0 
L 0 0 
z
" style="fill: #ffffff"/>
  </g>
  <g id="axes_1">
   <g id="patch_2">
    <path d="M 14.4 165.6 
L 21.6 165.6 
L 21.6 165.448667 
L 14.4 165.448667 
z
" clip-path="url(#p74844ef1e1)" style="fill: #2ca02c; opacity: 0.25"/>
   </g>
   <g id="patch_3">
    <path d="M 21.6 165.6 
L 28.8 165.6 
L 28.8 165.318953 
L 21.6 165.318953 
z
" clip-path="url(#p74844ef1e1)" style="fill: #2ca02c; opacity: 0.25"/>
   </g>
   <g id="patch_4">
    <path d="M 28.8 165.6 
L 36 165.6 
L 36 165.059526 
L 28.8 165.059526 
z
" clip-path="url(#p74844ef1e1)" style="fill: #2ca02c; opacity: 0.25"/>
   </g>
   <g id="patch_5">
    <path d="M 36 165.6 
L 43.2 165.6 
L 43.2 164.648766 
L 36 164.648766 
z
" clip-path="url(#p74844ef1e1)" style="fill: #2ca02c; opacity: 0.25"/>
   </g>
   <g id="patch_6">
    <path d="M 43.2 165.6 
L 50.4 165.6 
L 50.4 162.962486 
L 43.2 162.962486 
z
" clip-path="url(#p74844ef1e1)" style="fill: #2ca02c; opacity: 0.25"/>
   </g>
   <g id="patch_7">
    <path d="M 50.4 165.6 
L 57.6 165.6 
L 57.6 160.670876 
L 50.4 160.670876 
z
" clip-path="url(#p74844ef1e1)" style="fill: #2ca02c; opacity: 0.25"/>
   </g>
   <g id="patch_8">
    <path d="M 57.6 165.6 
L 64.8 165.6 
L 64.8 155.222896 
L 57.6 155.222896 
z
" clip-path="url(#p74844ef1e1)" style="fill: #2ca02c; opacity: 0.25"/>
   </g>
   <g id="patch_9">
    <path d="M 64.8 165.6 
L 72 165.6 
L 72 147.050927 
L 64.8 147.050927 
z
" clip-path="url(#p74844ef1e1)" style="fill: #2ca02c; opacity: 0.25"/>
   </g>
   <g id="patch_10">
    <path d="M 72 165.6 
L 79.2 165.6 
L 79.2 133.279646 
L 72 133.279646 
z
" clip-path="url(#p74844ef1e1)" style="fill: #2ca02c; opacity: 0.25"/>
   </g>
   <g id="patch_11">
    <path d="M 79.2 165.6 
L 86.4 165.6 
L 86.4 104.591279 
L 79.2 104.591279 
z
" clip-path="url(#p74844ef1e1)" style="fill: #2ca02c; opacity: 0.25"/>
   </g>
   <g id="patch_12">
    <path d="M 86.4 165.6 
L 93.6 165.6 
L 93.6 68.855128 
L 86.4 68.855128 
z
" clip-path="url(#p74844ef1e1)" style="fill: #2ca02c; opacity: 0.25"/>
   </g>
   <g id="patch_13">
    <path d="M 93.6 165.6 
L 100.8 165.6 
L 100.8 41.096376 
L 93.6 41.096376 
z
" clip-path="url(#p74844ef1e1)" style="fill: #2ca02c; opacity: 0.25"/>
   </g>
   <g id="patch_14">
    <path d="M 100.8 165.6 
L 108 165.6 
L 108 14.742857 
L 100.8 14.742857 
z
" clip-path="url(#p74844ef1e1)" style="fill: #2ca02c; opacity: 0.25"/>
   </g>
   <g id="patch_15">
    <path d="M 108 165.6 
L 115.2 165.6 
L 115.2 23.066159 
L 108 23.066159 
z
" clip-path="url(#p74844ef1e1)" style="fill: #2ca02c; opacity: 0.25"/>
   </g>
   <g id="patch_16">
    <path d="M 115.2 165.6 
L 122.4 165.6 
L 122.4 56.164795 
L 115.2 56.164795 
z
" clip-path="url(#p74844ef1e1)" style="fill: #2ca02c; opacity: 0.25"/>
   </g>
   <g id="patch_17">
    <path d="M 122.4 165.6 
L 129.6 165.6 
L 129.6 100.029677 
L 122.4 100.029677 
z
" clip-path="url(#p74844ef1e1)" style="fill: #2ca02c; opacity: 0.25"/>
   </g>
   <g id="patch_18">
    <path d="M 129.6 165.6 
L 136.8 165.6 
L 136.8 134.836212 
L 129.6 134.836212 
z
" clip-path="url(#p74844ef1e1)" style="fill: #2ca02c; opacity: 0.25"/>
   </g>
   <g id="patch_19">
    <path d="M 136.8 165.6 
L 144 165.6 
L 144 155.914703 
L 136.8 155.914703 
z
" clip-path="url(#p74844ef1e1)" style="fill: #2ca02c; opacity: 0.25"/>
   </g>
   <g id="patch_20">
    <path d="M 144 165.6 
L 151.2 165.6 
L 151.2 163.200295 
L 144 163.200295 
z
" clip-path="url(#p74844ef1e1)" style="fill: #2ca02c; opacity: 0.25"/>
   </g>
   <g id="patch_21">
    <path d="M 151.2 165.6 
L 158.4 165.6 
L 158.4 165.081145 
L 151.2 165.081145 
z
" clip-path="url(#p74844ef1e1)" style="fill: #2ca02c; opacity: 0.25"/>
   </g>
   <g id="patch_22">
    <path d="M 14.4 165.6 
L 14.4 165.448667 
L 21.6 165.448667 
L 21.6 165.318953 
L 28.8 165.318953 
L 28.8 165.059526 
L 36 165.059526 
L 36 164.648766 
L 43.2 164.648766 
L 43.2 162.962486 
L 50.4 162.962486 
L 50.4 160.670876 
L 57.6 160.670876 
L 57.6 155.222896 
L 64.8 155.222896 
L 64.8 147.050927 
L 72 147.050927 
L 72 133.279646 
L 79.2 133.279646 
L 79.2 104.591279 
L 86.4 104.591279 
L 86.4 68.855128 
L 93.6 68.855128 
L 93.6 41.096376 
L 100.8 41.096376 
L 100.8 14.742857 
L 108 14.742857 
L 108 23.066159 
L 115.2 23.066159 
L 115.2 56.164795 
L 122.4 56.164795 
L 122.4 100.029677 
L 129.6 100.029677 
L 129.6 134.836212 
L 136.8 134.836212 
L 136.8 155.914703 
L 144 155.914703 
L 144 163.200295 
L 151.2 163.200295 
L 151.2 165.081145 
L 158.4 165.081145 
L 158.4 165.6 
" clip-path="url(#p74844ef1e1)" style="fill: none; stroke: #2ca02c; stroke-width: 3; stroke-linejoin: miter"/>
   </g>
  </g>
 </g>
 <defs>
  <clipPath id="p74844ef1e1">
   <rect x="7.2" y="7.2" width="158.4" height="158.4"/>
  </clipPath>
 </defs>
</svg>
