<?xml version="1.0" encoding="utf-8" standalone="no"?>
<!DOCTYPE svg PUBLIC "-//W3C//DTD SVG 1.1//EN"
  "http://www.w3.org/Graphics/SVG/1.1/DTD/svg11.dtd">
<svg xmlns:xlink="http://www.w3.org/1999/xlink" width="172.8pt" height="172.8pt" viewBox="0 0 172.8 172.8" xmlns="http://www.w3.org/2000/svg" version="1.1">
 <metadata>
  <rdf:RDF xmlns:dc="http://purl.org/dc/elements/1.1/" xmlns:cc="http://creativecommons.org/ns#" xmlns:rdf="http://www.w3.org/1999/02/22-rdf-syntax-ns#">
   <cc:Work>
    <dc:type rdf:resource="http://purl.org/dc/dcmitype/StillImage"/>
    <dc:date>2024-06-27T23:09:47.243232</dc:date>
    <dc:format>image/svg+xml</dc:format>
    <dc:creator>
     <cc:Agent>
      <dc:title>Matplotlib v3.9.0, https://matplotlib.org/</dc:title>
     </cc:Agent>
    </dc:creator>
   </cc:Work>
  </rdf:RDF>
 </metadata>
 <defs>
  <style type="text/css">*{stroke-linejoin: round; stroke-linecap: butt}</style>
 </defs>
 <g id="figure_1">
  <g id="patch_1">
   <path d="M 0 172.8 
L 172.8 172.8 
L 172.8 0 
L 0 0 
z
" style="fill: #ffffff"/>
  </g>
  <g id="axes_1">
   <g id="patch_2">
    <path d="M 14.4 165.6 
L 21.6 165.6 
L 21.6 165.268914 
L 14.4 165.268914 
z
" clip-path="url(#p23cbcf130e)" style="fill: #ff7f0e; opacity: 0.25"/>
   </g>
   <g id="patch_3">
    <path d="M 21.6 165.6 
L 28.8 165.6 
L 28.8 164.086462 
L 21.6 164.086462 
z
" clip-path="url(#p23cbcf130e)" style="fill: #ff7f0e; opacity: 0.25"/>
   </g>
   <g id="patch_4">
    <path d="M 28.8 165.6 
L 36 165.6 
L 36 160.49181 
L 28.8 160.49181 
z
" clip-path="url(#p23cbcf130e)" style="fill: #ff7f0e; opacity: 0.25"/>
   </g>
   <g id="patch_5">
    <path d="M 36 165.6 
L 43.2 165.6 
L 43.2 152.427492 
L 36 152.427492 
z
" clip-path="url(#p23cbcf130e)" style="fill: #ff7f0e; opacity: 0.25"/>
   </g>
   <g id="patch_6">
    <path d="M 43.2 165.6 
L 50.4 165.6 
L 50.4 135.400193 
L 43.2 135.400193 
z
" clip-path="url(#p23cbcf130e)" style="fill: #ff7f0e; opacity: 0.25"/>
   </g>
   <g id="patch_7">
    <path d="M 50.4 165.6 
L 57.6 165.6 
L 57.6 107.636235 
L 50.4 107.636235 
z
" clip-path="url(#p23cbcf130e)" style="fill: #ff7f0e; opacity: 0.25"/>
   </g>
   <g id="patch_8">
    <path d="M 57.6 165.6 
L 64.8 165.6 
L 64.8 69.395758 
L 57.6 69.395758 
z
" clip-path="url(#p23cbcf130e)" style="fill: #ff7f0e; opacity: 0.25"/>
   </g>
   <g id="patch_9">
    <path d="M 64.8 165.6 
L 72 165.6 
L 72 34.229655 
L 64.8 34.229655 
z
" clip-path="url(#p23cbcf130e)" style="fill: #ff7f0e; opacity: 0.25"/>
   </g>
   <g id="patch_10">
    <path d="M 72 165.6 
L 79.2 165.6 
L 79.2 14.742857 
L 72 14.742857 
z
" clip-path="url(#p23cbcf130e)" style="fill: #ff7f0e; opacity: 0.25"/>
   </g>
   <g id="patch_11">
    <path d="M 79.2 165.6 
L 86.4 165.6 
L 86.4 19.28347 
L 79.2 19.28347 
z
" clip-path="url(#p23cbcf130e)" style="fill: #ff7f0e; opacity: 0.25"/>
   </g>
   <g id="patch_12">
    <path d="M 86.4 165.6 
L 93.6 165.6 
L 93.6 51.777233 
L 86.4 51.777233 
z
" clip-path="url(#p23cbcf130e)" style="fill: #ff7f0e; opacity: 0.25"/>
   </g>
   <g id="patch_13">
    <path d="M 93.6 165.6 
L 100.8 165.6 
L 100.8 80.960133 
L 93.6 80.960133 
z
" clip-path="url(#p23cbcf130e)" style="fill: #ff7f0e; opacity: 0.25"/>
   </g>
   <g id="patch_14">
    <path d="M 100.8 165.6 
L 108 165.6 
L 108 112.649829 
L 100.8 112.649829 
z
" clip-path="url(#p23cbcf130e)" style="fill: #ff7f0e; opacity: 0.25"/>
   </g>
   <g id="patch_15">
    <path d="M 108 165.6 
L 115.2 165.6 
L 115.2 135.163702 
L 108 135.163702 
z
" clip-path="url(#p23cbcf130e)" style="fill: #ff7f0e; opacity: 0.25"/>
   </g>
   <g id="patch_16">
    <path d="M 115.2 165.6 
L 122.4 165.6 
L 122.4 149.849748 
L 115.2 149.849748 
z
" clip-path="url(#p23cbcf130e)" style="fill: #ff7f0e; opacity: 0.25"/>
   </g>
   <g id="patch_17">
    <path d="M 122.4 165.6 
L 129.6 165.6 
L 129.6 157.039052 
L 122.4 157.039052 
z
" clip-path="url(#p23cbcf130e)" style="fill: #ff7f0e; opacity: 0.25"/>
   </g>
   <g id="patch_18">
    <path d="M 129.6 165.6 
L 136.8 165.6 
L 136.8 161.579665 
L 129.6 161.579665 
z
" clip-path="url(#p23cbcf130e)" style="fill: #ff7f0e; opacity: 0.25"/>
   </g>
   <g id="patch_19">
    <path d="M 136.8 165.6 
L 144 165.6 
L 144 163.684429 
L 136.8 163.684429 
z
" clip-path="url(#p23cbcf130e)" style="fill: #ff7f0e; opacity: 0.25"/>
   </g>
   <g id="patch_20">
    <path d="M 144 165.6 
L 151.2 165.6 
L 151.2 164.937827 
L 144 164.937827 
z
" clip-path="url(#p23cbcf130e)" style="fill: #ff7f0e; opacity: 0.25"/>
   </g>
   <g id="patch_21">
    <path d="M 151.2 165.6 
L 158.4 165.6 
L 158.4 165.434457 
L 151.2 165.434457 
z
" clip-path="url(#p23cbcf130e)" style="fill: #ff7f0e; opacity: 0.25"/>
   </g>
   <g id="patch_22">
    <path d="M 14.4 165.6 
L 14.4 165.268914 
L 21.6 165.268914 
L 21.6 164.086462 
L 28.8 164.086462 
L 28.8 160.49181 
L 36 160.49181 
L 36 152.427492 
L 43.2 152.427492 
L 43.2 135.400193 
L 50.4 135.400193 
L 50.4 107.636235 
L 57.6 107.636235 
L 57.6 69.395758 
L 64.8 69.395758 
L 64.8 34.229655 
L 72 34.229655 
L 72 14.742857 
L 79.2 14.742857 
L 79.2 19.28347 
L 86.4 19.28347 
L 86.4 51.777233 
L 93.6 51.777233 
L 93.6 80.960133 
L 100.8 80.960133 
L 100.8 112.649829 
L 108 112.649829 
L 108 135.163702 
L 115.2 135.163702 
L 115.2 149.849748 
L 122.4 149.849748 
L 122.4 157.039052 
L 129.6 157.039052 
L 129.6 161.579665 
L 136.8 161.579665 
L 136.8 163.684429 
L 144 163.684429 
L 144 164.937827 
L 151.2 164.937827 
L 151.2 165.434457 
L 158.4 165.434457 
L 158.4 165.6 
" clip-path="url(#p23cbcf130e)" style="fill: none; stroke: #ff7f0e; stroke-width: 3; stroke-linejoin: miter"/>
   </g>
  </g>
 </g>
 <defs>
  <clipPath id="p23cbcf130e">
   <rect x="7.2" y="7.2" width="158.4" height="158.4"/>
  </clipPath>
 </defs>
</svg>
