<?xml version="1.0" encoding="utf-8" standalone="no"?>
<!DOCTYPE svg PUBLIC "-//W3C//DTD SVG 1.1//EN"
  "http://www.w3.org/Graphics/SVG/1.1/DTD/svg11.dtd">
<svg xmlns:xlink="http://www.w3.org/1999/xlink" width="172.8pt" height="172.8pt" viewBox="0 0 172.8 172.8" xmlns="http://www.w3.org/2000/svg" version="1.1">
 <metadata>
  <rdf:RDF xmlns:dc="http://purl.org/dc/elements/1.1/" xmlns:cc="http://creativecommons.org/ns#" xmlns:rdf="http://www.w3.org/1999/02/22-rdf-syntax-ns#">
   <cc:Work>
    <dc:type rdf:resource="http://purl.org/dc/dcmitype/StillImage"/>
    <dc:date>2024-06-27T23:09:51.491946</dc:date>
    <dc:format>image/svg+xml</dc:format>
    <dc:creator>
     <cc:Agent>
      <dc:title>Matplotlib v3.9.0, https://matplotlib.org/</dc:title>
     </cc:Agent>
    </dc:creator>
   </cc:Work>
  </rdf:RDF>
 </metadata>
 <defs>
  <style type="text/css">*{stroke-linejoin: round; stroke-linecap: butt}</style>
 </defs>
 <g id="figure_1">
  <g id="patch_1">
   <path d="M 0 172.8 
L 172.8 172.8 
L 172.8 0 
L 0 0 
z
" style="fill: #ffffff"/>
  </g>
  <g id="axes_1">
   <g id="patch_2">
    <path d="M 14.4 165.6 
L 21.6 165.6 
L 21.6 165.563331 
L 14.4 165.563331 
z
" clip-path="url(#p1df3a40da8)" style="fill: #ff7f0e; opacity: 0.25"/>
   </g>
   <g id="patch_3">
    <path d="M 21.6 165.6 
L 28.8 165.6 
L 28.8 165.563331 
L 21.6 165.563331 
z
" clip-path="url(#p1df3a40da8)" style="fill: #ff7f0e; opacity: 0.25"/>
   </g>
   <g id="patch_4">
    <path d="M 28.8 165.6 
L 36 165.6 
L 36 165.416654 
L 28.8 165.416654 
z
" clip-path="url(#p1df3a40da8)" style="fill: #ff7f0e; opacity: 0.25"/>
   </g>
   <g id="patch_5">
    <path d="M 36 165.6 
L 43.2 165.6 
L 43.2 165.196639 
L 36 165.196639 
z
" clip-path="url(#p1df3a40da8)" style="fill: #ff7f0e; opacity: 0.25"/>
   </g>
   <g id="patch_6">
    <path d="M 43.2 165.6 
L 50.4 165.6 
L 50.4 164.829947 
L 43.2 164.829947 
z
" clip-path="url(#p1df3a40da8)" style="fill: #ff7f0e; opacity: 0.25"/>
   </g>
   <g id="patch_7">
    <path d="M 50.4 165.6 
L 57.6 165.6 
L 57.6 163.821543 
L 50.4 163.821543 
z
" clip-path="url(#p1df3a40da8)" style="fill: #ff7f0e; opacity: 0.25"/>
   </g>
   <g id="patch_8">
    <path d="M 57.6 165.6 
L 64.8 165.6 
L 64.8 162.024752 
L 57.6 162.024752 
z
" clip-path="url(#p1df3a40da8)" style="fill: #ff7f0e; opacity: 0.25"/>
   </g>
   <g id="patch_9">
    <path d="M 64.8 165.6 
L 72 165.6 
L 72 156.799389 
L 64.8 156.799389 
z
" clip-path="url(#p1df3a40da8)" style="fill: #ff7f0e; opacity: 0.25"/>
   </g>
   <g id="patch_10">
    <path d="M 72 165.6 
L 79.2 165.6 
L 79.2 148.310466 
L 72 148.310466 
z
" clip-path="url(#p1df3a40da8)" style="fill: #ff7f0e; opacity: 0.25"/>
   </g>
   <g id="patch_11">
    <path d="M 79.2 165.6 
L 86.4 165.6 
L 86.4 131.314286 
L 79.2 131.314286 
z
" clip-path="url(#p1df3a40da8)" style="fill: #ff7f0e; opacity: 0.25"/>
   </g>
   <g id="patch_12">
    <path d="M 86.4 165.6 
L 93.6 165.6 
L 93.6 100.108785 
L 86.4 100.108785 
z
" clip-path="url(#p1df3a40da8)" style="fill: #ff7f0e; opacity: 0.25"/>
   </g>
   <g id="patch_13">
    <path d="M 93.6 165.6 
L 100.8 165.6 
L 100.8 57.389152 
L 93.6 57.389152 
z
" clip-path="url(#p1df3a40da8)" style="fill: #ff7f0e; opacity: 0.25"/>
   </g>
   <g id="patch_14">
    <path d="M 100.8 165.6 
L 108 165.6 
L 108 15.622918 
L 100.8 15.622918 
z
" clip-path="url(#p1df3a40da8)" style="fill: #ff7f0e; opacity: 0.25"/>
   </g>
   <g id="patch_15">
    <path d="M 108 165.6 
L 115.2 165.6 
L 115.2 14.742857 
L 108 14.742857 
z
" clip-path="url(#p1df3a40da8)" style="fill: #ff7f0e; opacity: 0.25"/>
   </g>
   <g id="patch_16">
    <path d="M 115.2 165.6 
L 122.4 165.6 
L 122.4 55.940718 
L 115.2 55.940718 
z
" clip-path="url(#p1df3a40da8)" style="fill: #ff7f0e; opacity: 0.25"/>
   </g>
   <g id="patch_17">
    <path d="M 122.4 165.6 
L 129.6 165.6 
L 129.6 111.091215 
L 122.4 111.091215 
z
" clip-path="url(#p1df3a40da8)" style="fill: #ff7f0e; opacity: 0.25"/>
   </g>
   <g id="patch_18">
    <path d="M 129.6 165.6 
L 136.8 165.6 
L 136.8 145.81696 
L 129.6 145.81696 
z
" clip-path="url(#p1df3a40da8)" style="fill: #ff7f0e; opacity: 0.25"/>
   </g>
   <g id="patch_19">
    <path d="M 136.8 165.6 
L 144 165.6 
L 144 159.622918 
L 136.8 159.622918 
z
" clip-path="url(#p1df3a40da8)" style="fill: #ff7f0e; opacity: 0.25"/>
   </g>
   <g id="patch_20">
    <path d="M 144 165.6 
L 151.2 165.6 
L 151.2 164.041558 
L 144 164.041558 
z
" clip-path="url(#p1df3a40da8)" style="fill: #ff7f0e; opacity: 0.25"/>
   </g>
   <g id="patch_21">
    <path d="M 151.2 165.6 
L 158.4 165.6 
L 158.4 165.398319 
L 151.2 165.398319 
z
" clip-path="url(#p1df3a40da8)" style="fill: #ff7f0e; opacity: 0.25"/>
   </g>
   <g id="patch_22">
    <path d="M 14.4 165.6 
L 14.4 165.563331 
L 21.6 165.563331 
L 21.6 165.563331 
L 28.8 165.563331 
L 28.8 165.416654 
L 36 165.416654 
L 36 165.196639 
L 43.2 165.196639 
L 43.2 164.829947 
L 50.4 164.829947 
L 50.4 163.821543 
L 57.6 163.821543 
L 57.6 162.024752 
L 64.8 162.024752 
L 64.8 156.799389 
L 72 156.799389 
L 72 148.310466 
L 79.2 148.310466 
L 79.2 131.314286 
L 86.4 131.314286 
L 86.4 100.108785 
L 93.6 100.108785 
L 93.6 57.389152 
L 100.8 57.389152 
L 100.8 15.622918 
L 108 15.622918 
L 108 14.742857 
L 115.2 14.742857 
L 115.2 55.940718 
L 122.4 55.940718 
L 122.4 111.091215 
L 129.6 111.091215 
L 129.6 145.81696 
L 136.8 145.81696 
L 136.8 159.622918 
L 144 159.622918 
L 144 164.041558 
L 151.2 164.041558 
L 151.2 165.398319 
L 158.4 165.398319 
L 158.4 165.6 
" clip-path="url(#p1df3a40da8)" style="fill: none; stroke: #ff7f0e; stroke-width: 3; stroke-linejoin: miter"/>
   </g>
  </g>
 </g>
 <defs>
  <clipPath id="p1df3a40da8">
   <rect x="7.2" y="7.2" width="158.4" height="158.4"/>
  </clipPath>
 </defs>
</svg>
