<?xml version="1.0" encoding="utf-8" standalone="no"?>
<!DOCTYPE svg PUBLIC "-//W3C//DTD SVG 1.1//EN"
  "http://www.w3.org/Graphics/SVG/1.1/DTD/svg11.dtd">
<svg xmlns:xlink="http://www.w3.org/1999/xlink" width="172.8pt" height="172.8pt" viewBox="0 0 172.8 172.8" xmlns="http://www.w3.org/2000/svg" version="1.1">
 <metadata>
  <rdf:RDF xmlns:dc="http://purl.org/dc/elements/1.1/" xmlns:cc="http://creativecommons.org/ns#" xmlns:rdf="http://www.w3.org/1999/02/22-rdf-syntax-ns#">
   <cc:Work>
    <dc:type rdf:resource="http://purl.org/dc/dcmitype/StillImage"/>
    <dc:date>2024-06-27T23:09:49.080490</dc:date>
    <dc:format>image/svg+xml</dc:format>
    <dc:creator>
     <cc:Agent>
      <dc:title>Matplotlib v3.9.0, https://matplotlib.org/</dc:title>
     </cc:Agent>
    </dc:creator>
   </cc:Work>
  </rdf:RDF>
 </metadata>
 <defs>
  <style type="text/css">*{stroke-linejoin: round; stroke-linecap: butt}</style>
 </defs>
 <g id="figure_1">
  <g id="patch_1">
   <path d="M 0 172.8 
L 172.8 172.8 
L 172.8 0 
L 0 0 
z
" style="fill: #ffffff"/>
  </g>
  <g id="axes_1">
   <g id="patch_2">
    <path d="M 14.4 165.6 
L 21.6 165.6 
L 21.6 165.583556 
L 14.4 165.583556 
z
" clip-path="url(#p13693e3438)" style="fill: #2ca02c; opacity: 0.25"/>
   </g>
   <g id="patch_3">
    <path d="M 21.6 165.6 
L 28.8 165.6 
L 28.8 165.534224 
L 21.6 165.534224 
z
" clip-path="url(#p13693e3438)" style="fill: #2ca02c; opacity: 0.25"/>
   </g>
   <g id="patch_4">
    <path d="M 28.8 165.6 
L 36 165.6 
L 36 165.484892 
L 28.8 165.484892 
z
" clip-path="url(#p13693e3438)" style="fill: #2ca02c; opacity: 0.25"/>
   </g>
   <g id="patch_5">
    <path d="M 36 165.6 
L 43.2 165.6 
L 43.2 165.534224 
L 36 165.534224 
z
" clip-path="url(#p13693e3438)" style="fill: #2ca02c; opacity: 0.25"/>
   </g>
   <g id="patch_6">
    <path d="M 43.2 165.6 
L 50.4 165.6 
L 50.4 165.386228 
L 43.2 165.386228 
z
" clip-path="url(#p13693e3438)" style="fill: #2ca02c; opacity: 0.25"/>
   </g>
   <g id="patch_7">
    <path d="M 50.4 165.6 
L 57.6 165.6 
L 57.6 165.238232 
L 50.4 165.238232 
z
" clip-path="url(#p13693e3438)" style="fill: #2ca02c; opacity: 0.25"/>
   </g>
   <g id="patch_8">
    <path d="M 57.6 165.6 
L 64.8 165.6 
L 64.8 165.073792 
L 57.6 165.073792 
z
" clip-path="url(#p13693e3438)" style="fill: #2ca02c; opacity: 0.25"/>
   </g>
   <g id="patch_9">
    <path d="M 64.8 165.6 
L 72 165.6 
L 72 164.613361 
L 64.8 164.613361 
z
" clip-path="url(#p13693e3438)" style="fill: #2ca02c; opacity: 0.25"/>
   </g>
   <g id="patch_10">
    <path d="M 72 165.6 
L 79.2 165.6 
L 79.2 163.347174 
L 72 163.347174 
z
" clip-path="url(#p13693e3438)" style="fill: #2ca02c; opacity: 0.25"/>
   </g>
   <g id="patch_11">
    <path d="M 79.2 165.6 
L 86.4 165.6 
L 86.4 161.472559 
L 79.2 161.472559 
z
" clip-path="url(#p13693e3438)" style="fill: #2ca02c; opacity: 0.25"/>
   </g>
   <g id="patch_12">
    <path d="M 86.4 165.6 
L 93.6 165.6 
L 93.6 157.821994 
L 86.4 157.821994 
z
" clip-path="url(#p13693e3438)" style="fill: #2ca02c; opacity: 0.25"/>
   </g>
   <g id="patch_13">
    <path d="M 93.6 165.6 
L 100.8 165.6 
L 100.8 151.129291 
L 93.6 151.129291 
z
" clip-path="url(#p13693e3438)" style="fill: #2ca02c; opacity: 0.25"/>
   </g>
   <g id="patch_14">
    <path d="M 100.8 165.6 
L 108 165.6 
L 108 140.440699 
L 100.8 140.440699 
z
" clip-path="url(#p13693e3438)" style="fill: #2ca02c; opacity: 0.25"/>
   </g>
   <g id="patch_15">
    <path d="M 108 165.6 
L 115.2 165.6 
L 115.2 119.047071 
L 108 119.047071 
z
" clip-path="url(#p13693e3438)" style="fill: #2ca02c; opacity: 0.25"/>
   </g>
   <g id="patch_16">
    <path d="M 115.2 165.6 
L 122.4 165.6 
L 122.4 87.474615 
L 115.2 87.474615 
z
" clip-path="url(#p13693e3438)" style="fill: #2ca02c; opacity: 0.25"/>
   </g>
   <g id="patch_17">
    <path d="M 122.4 165.6 
L 129.6 165.6 
L 129.6 47.762384 
L 122.4 47.762384 
z
" clip-path="url(#p13693e3438)" style="fill: #2ca02c; opacity: 0.25"/>
   </g>
   <g id="patch_18">
    <path d="M 129.6 165.6 
L 136.8 165.6 
L 136.8 14.742857 
L 129.6 14.742857 
z
" clip-path="url(#p13693e3438)" style="fill: #2ca02c; opacity: 0.25"/>
   </g>
   <g id="patch_19">
    <path d="M 136.8 165.6 
L 144 165.6 
L 144 28.210483 
L 136.8 28.210483 
z
" clip-path="url(#p13693e3438)" style="fill: #2ca02c; opacity: 0.25"/>
   </g>
   <g id="patch_20">
    <path d="M 144 165.6 
L 151.2 165.6 
L 151.2 103.030627 
L 144 103.030627 
z
" clip-path="url(#p13693e3438)" style="fill: #2ca02c; opacity: 0.25"/>
   </g>
   <g id="patch_21">
    <path d="M 151.2 165.6 
L 158.4 165.6 
L 158.4 157.31223 
L 151.2 157.31223 
z
" clip-path="url(#p13693e3438)" style="fill: #2ca02c; opacity: 0.25"/>
   </g>
   <g id="patch_22">
    <path d="M 14.4 165.6 
L 14.4 165.583556 
L 21.6 165.583556 
L 21.6 165.534224 
L 28.8 165.534224 
L 28.8 165.484892 
L 36 165.484892 
L 36 165.534224 
L 43.2 165.534224 
L 43.2 165.386228 
L 50.4 165.386228 
L 50.4 165.238232 
L 57.6 165.238232 
L 57.6 165.073792 
L 64.8 165.073792 
L 64.8 164.613361 
L 72 164.613361 
L 72 163.347174 
L 79.2 163.347174 
L 79.2 161.472559 
L 86.4 161.472559 
L 86.4 157.821994 
L 93.6 157.821994 
L 93.6 151.129291 
L 100.8 151.129291 
L 100.8 140.440699 
L 108 140.440699 
L 108 119.047071 
L 115.2 119.047071 
L 115.2 87.474615 
L 122.4 87.474615 
L 122.4 47.762384 
L 129.6 47.762384 
L 129.6 14.742857 
L 136.8 14.742857 
L 136.8 28.210483 
L 144 28.210483 
L 144 103.030627 
L 151.2 103.030627 
L 151.2 157.31223 
L 158.4 157.31223 
L 158.4 165.6 
" clip-path="url(#p13693e3438)" style="fill: none; stroke: #2ca02c; stroke-width: 3; stroke-linejoin: miter"/>
   </g>
  </g>
 </g>
 <defs>
  <clipPath id="p13693e3438">
   <rect x="7.2" y="7.2" width="158.4" height="158.4"/>
  </clipPath>
 </defs>
</svg>
