<?xml version="1.0" encoding="utf-8" standalone="no"?>
<!DOCTYPE svg PUBLIC "-//W3C//DTD SVG 1.1//EN"
  "http://www.w3.org/Graphics/SVG/1.1/DTD/svg11.dtd">
<svg xmlns:xlink="http://www.w3.org/1999/xlink" width="172.8pt" height="172.8pt" viewBox="0 0 172.8 172.8" xmlns="http://www.w3.org/2000/svg" version="1.1">
 <metadata>
  <rdf:RDF xmlns:dc="http://purl.org/dc/elements/1.1/" xmlns:cc="http://creativecommons.org/ns#" xmlns:rdf="http://www.w3.org/1999/02/22-rdf-syntax-ns#">
   <cc:Work>
    <dc:type rdf:resource="http://purl.org/dc/dcmitype/StillImage"/>
    <dc:date>2024-06-27T23:09:46.649247</dc:date>
    <dc:format>image/svg+xml</dc:format>
    <dc:creator>
     <cc:Agent>
      <dc:title>Matplotlib v3.9.0, https://matplotlib.org/</dc:title>
     </cc:Agent>
    </dc:creator>
   </cc:Work>
  </rdf:RDF>
 </metadata>
 <defs>
  <style type="text/css">*{stroke-linejoin: round; stroke-linecap: butt}</style>
 </defs>
 <g id="figure_1">
  <g id="patch_1">
   <path d="M 0 172.8 
L 172.8 172.8 
L 172.8 0 
L 0 0 
z
" style="fill: #ffffff"/>
  </g>
  <g id="axes_1">
   <g id="patch_2">
    <path d="M 14.4 165.6 
L 21.6 165.6 
L 21.6 165.297588 
L 14.4 165.297588 
z
" clip-path="url(#pa80f9ccabc)" style="fill: #ff7f0e; opacity: 0.25"/>
   </g>
   <g id="patch_3">
    <path d="M 21.6 165.6 
L 28.8 165.6 
L 28.8 164.157727 
L 21.6 164.157727 
z
" clip-path="url(#pa80f9ccabc)" style="fill: #ff7f0e; opacity: 0.25"/>
   </g>
   <g id="patch_4">
    <path d="M 28.8 165.6 
L 36 165.6 
L 36 162.622403 
L 28.8 162.622403 
z
" clip-path="url(#pa80f9ccabc)" style="fill: #ff7f0e; opacity: 0.25"/>
   </g>
   <g id="patch_5">
    <path d="M 36 165.6 
L 43.2 165.6 
L 43.2 160.086794 
L 36 160.086794 
z
" clip-path="url(#pa80f9ccabc)" style="fill: #ff7f0e; opacity: 0.25"/>
   </g>
   <g id="patch_6">
    <path d="M 43.2 165.6 
L 50.4 165.6 
L 50.4 153.992026 
L 43.2 153.992026 
z
" clip-path="url(#pa80f9ccabc)" style="fill: #ff7f0e; opacity: 0.25"/>
   </g>
   <g id="patch_7">
    <path d="M 50.4 165.6 
L 57.6 165.6 
L 57.6 143.268025 
L 50.4 143.268025 
z
" clip-path="url(#pa80f9ccabc)" style="fill: #ff7f0e; opacity: 0.25"/>
   </g>
   <g id="patch_8">
    <path d="M 57.6 165.6 
L 64.8 165.6 
L 64.8 123.65776 
L 57.6 123.65776 
z
" clip-path="url(#pa80f9ccabc)" style="fill: #ff7f0e; opacity: 0.25"/>
   </g>
   <g id="patch_9">
    <path d="M 64.8 165.6 
L 72 165.6 
L 72 98.580813 
L 64.8 98.580813 
z
" clip-path="url(#pa80f9ccabc)" style="fill: #ff7f0e; opacity: 0.25"/>
   </g>
   <g id="patch_10">
    <path d="M 72 165.6 
L 79.2 165.6 
L 79.2 63.687102 
L 72 63.687102 
z
" clip-path="url(#pa80f9ccabc)" style="fill: #ff7f0e; opacity: 0.25"/>
   </g>
   <g id="patch_11">
    <path d="M 79.2 165.6 
L 86.4 165.6 
L 86.4 38.098381 
L 79.2 38.098381 
z
" clip-path="url(#pa80f9ccabc)" style="fill: #ff7f0e; opacity: 0.25"/>
   </g>
   <g id="patch_12">
    <path d="M 86.4 165.6 
L 93.6 165.6 
L 93.6 14.742857 
L 86.4 14.742857 
z
" clip-path="url(#pa80f9ccabc)" style="fill: #ff7f0e; opacity: 0.25"/>
   </g>
   <g id="patch_13">
    <path d="M 93.6 165.6 
L 100.8 165.6 
L 100.8 28.095517 
L 93.6 28.095517 
z
" clip-path="url(#pa80f9ccabc)" style="fill: #ff7f0e; opacity: 0.25"/>
   </g>
   <g id="patch_14">
    <path d="M 100.8 165.6 
L 108 165.6 
L 108 54.963674 
L 100.8 54.963674 
z
" clip-path="url(#pa80f9ccabc)" style="fill: #ff7f0e; opacity: 0.25"/>
   </g>
   <g id="patch_15">
    <path d="M 108 165.6 
L 115.2 165.6 
L 115.2 92.53257 
L 108 92.53257 
z
" clip-path="url(#pa80f9ccabc)" style="fill: #ff7f0e; opacity: 0.25"/>
   </g>
   <g id="patch_16">
    <path d="M 115.2 165.6 
L 122.4 165.6 
L 122.4 122.727261 
L 115.2 122.727261 
z
" clip-path="url(#pa80f9ccabc)" style="fill: #ff7f0e; opacity: 0.25"/>
   </g>
   <g id="patch_17">
    <path d="M 122.4 165.6 
L 129.6 165.6 
L 129.6 144.500936 
L 122.4 144.500936 
z
" clip-path="url(#pa80f9ccabc)" style="fill: #ff7f0e; opacity: 0.25"/>
   </g>
   <g id="patch_18">
    <path d="M 129.6 165.6 
L 136.8 165.6 
L 136.8 157.504659 
L 129.6 157.504659 
z
" clip-path="url(#pa80f9ccabc)" style="fill: #ff7f0e; opacity: 0.25"/>
   </g>
   <g id="patch_19">
    <path d="M 136.8 165.6 
L 144 165.6 
L 144 162.599141 
L 136.8 162.599141 
z
" clip-path="url(#pa80f9ccabc)" style="fill: #ff7f0e; opacity: 0.25"/>
   </g>
   <g id="patch_20">
    <path d="M 144 165.6 
L 151.2 165.6 
L 151.2 164.878863 
L 144 164.878863 
z
" clip-path="url(#pa80f9ccabc)" style="fill: #ff7f0e; opacity: 0.25"/>
   </g>
   <g id="patch_21">
    <path d="M 151.2 165.6 
L 158.4 165.6 
L 158.4 165.50695 
L 151.2 165.50695 
z
" clip-path="url(#pa80f9ccabc)" style="fill: #ff7f0e; opacity: 0.25"/>
   </g>
   <g id="patch_22">
    <path d="M 14.4 165.6 
L 14.4 165.297588 
L 21.6 165.297588 
L 21.6 164.157727 
L 28.8 164.157727 
L 28.8 162.622403 
L 36 162.622403 
L 36 160.086794 
L 43.2 160.086794 
L 43.2 153.992026 
L 50.4 153.992026 
L 50.4 143.268025 
L 57.6 143.268025 
L 57.6 123.65776 
L 64.8 123.65776 
L 64.8 98.580813 
L 72 98.580813 
L 72 63.687102 
L 79.2 63.687102 
L 79.2 38.098381 
L 86.4 38.098381 
L 86.4 14.742857 
L 93.6 14.742857 
L 93.6 28.095517 
L 100.8 28.095517 
L 100.8 54.963674 
L 108 54.963674 
L 108 92.53257 
L 115.2 92.53257 
L 115.2 122.727261 
L 122.4 122.727261 
L 122.4 144.500936 
L 129.6 144.500936 
L 129.6 157.504659 
L 136.8 157.504659 
L 136.8 162.599141 
L 144 162.599141 
L 144 164.878863 
L 151.2 164.878863 
L 151.2 165.50695 
L 158.4 165.50695 
L 158.4 165.6 
" clip-path="url(#pa80f9ccabc)" style="fill: none; stroke: #ff7f0e; stroke-width: 3; stroke-linejoin: miter"/>
   </g>
  </g>
 </g>
 <defs>
  <clipPath id="pa80f9ccabc">
   <rect x="7.2" y="7.2" width="158.4" height="158.4"/>
  </clipPath>
 </defs>
</svg>
