<?xml version="1.0" encoding="utf-8" standalone="no"?>
<!DOCTYPE svg PUBLIC "-//W3C//DTD SVG 1.1//EN"
  "http://www.w3.org/Graphics/SVG/1.1/DTD/svg11.dtd">
<svg xmlns:xlink="http://www.w3.org/1999/xlink" width="172.8pt" height="172.8pt" viewBox="0 0 172.8 172.8" xmlns="http://www.w3.org/2000/svg" version="1.1">
 <metadata>
  <rdf:RDF xmlns:dc="http://purl.org/dc/elements/1.1/" xmlns:cc="http://creativecommons.org/ns#" xmlns:rdf="http://www.w3.org/1999/02/22-rdf-syntax-ns#">
   <cc:Work>
    <dc:type rdf:resource="http://purl.org/dc/dcmitype/StillImage"/>
    <dc:date>2024-06-27T23:09:47.882693</dc:date>
    <dc:format>image/svg+xml</dc:format>
    <dc:creator>
     <cc:Agent>
      <dc:title>Matplotlib v3.9.0, https://matplotlib.org/</dc:title>
     </cc:Agent>
    </dc:creator>
   </cc:Work>
  </rdf:RDF>
 </metadata>
 <defs>
  <style type="text/css">*{stroke-linejoin: round; stroke-linecap: butt}</style>
 </defs>
 <g id="figure_1">
  <g id="patch_1">
   <path d="M 0 172.8 
L 172.8 172.8 
L 172.8 0 
L 0 0 
z
" style="fill: #ffffff"/>
  </g>
  <g id="axes_1">
   <g id="patch_2">
    <path d="M 14.4 165.6 
L 21.6 165.6 
L 21.6 165.524972 
L 14.4 165.524972 
z
" clip-path="url(#pf2ac7fc7c9)" style="fill: #2ca02c; opacity: 0.25"/>
   </g>
   <g id="patch_3">
    <path d="M 21.6 165.6 
L 28.8 165.6 
L 28.8 165.12482 
L 21.6 165.12482 
z
" clip-path="url(#pf2ac7fc7c9)" style="fill: #2ca02c; opacity: 0.25"/>
   </g>
   <g id="patch_4">
    <path d="M 28.8 165.6 
L 36 165.6 
L 36 163.874346 
L 28.8 163.874346 
z
" clip-path="url(#pf2ac7fc7c9)" style="fill: #2ca02c; opacity: 0.25"/>
   </g>
   <g id="patch_5">
    <path d="M 36 165.6 
L 43.2 165.6 
L 43.2 161.948617 
L 36 161.948617 
z
" clip-path="url(#pf2ac7fc7c9)" style="fill: #2ca02c; opacity: 0.25"/>
   </g>
   <g id="patch_6">
    <path d="M 43.2 165.6 
L 50.4 165.6 
L 50.4 156.721637 
L 43.2 156.721637 
z
" clip-path="url(#pf2ac7fc7c9)" style="fill: #2ca02c; opacity: 0.25"/>
   </g>
   <g id="patch_7">
    <path d="M 50.4 165.6 
L 57.6 165.6 
L 57.6 146.967942 
L 50.4 146.967942 
z
" clip-path="url(#pf2ac7fc7c9)" style="fill: #2ca02c; opacity: 0.25"/>
   </g>
   <g id="patch_8">
    <path d="M 57.6 165.6 
L 64.8 165.6 
L 64.8 131.362031 
L 57.6 131.362031 
z
" clip-path="url(#pf2ac7fc7c9)" style="fill: #2ca02c; opacity: 0.25"/>
   </g>
   <g id="patch_9">
    <path d="M 64.8 165.6 
L 72 165.6 
L 72 110.229026 
L 64.8 110.229026 
z
" clip-path="url(#pf2ac7fc7c9)" style="fill: #2ca02c; opacity: 0.25"/>
   </g>
   <g id="patch_10">
    <path d="M 72 165.6 
L 79.2 165.6 
L 79.2 79.767488 
L 72 79.767488 
z
" clip-path="url(#pf2ac7fc7c9)" style="fill: #2ca02c; opacity: 0.25"/>
   </g>
   <g id="patch_11">
    <path d="M 79.2 165.6 
L 86.4 165.6 
L 86.4 50.931565 
L 79.2 50.931565 
z
" clip-path="url(#pf2ac7fc7c9)" style="fill: #2ca02c; opacity: 0.25"/>
   </g>
   <g id="patch_12">
    <path d="M 86.4 165.6 
L 93.6 165.6 
L 93.6 27.297613 
L 86.4 27.297613 
z
" clip-path="url(#pf2ac7fc7c9)" style="fill: #2ca02c; opacity: 0.25"/>
   </g>
   <g id="patch_13">
    <path d="M 93.6 165.6 
L 100.8 165.6 
L 100.8 14.742857 
L 93.6 14.742857 
z
" clip-path="url(#pf2ac7fc7c9)" style="fill: #2ca02c; opacity: 0.25"/>
   </g>
   <g id="patch_14">
    <path d="M 100.8 165.6 
L 108 165.6 
L 108 22.920955 
L 100.8 22.920955 
z
" clip-path="url(#pf2ac7fc7c9)" style="fill: #2ca02c; opacity: 0.25"/>
   </g>
   <g id="patch_15">
    <path d="M 108 165.6 
L 115.2 165.6 
L 115.2 51.031603 
L 108 51.031603 
z
" clip-path="url(#pf2ac7fc7c9)" style="fill: #2ca02c; opacity: 0.25"/>
   </g>
   <g id="patch_16">
    <path d="M 115.2 165.6 
L 122.4 165.6 
L 122.4 95.048276 
L 115.2 95.048276 
z
" clip-path="url(#pf2ac7fc7c9)" style="fill: #2ca02c; opacity: 0.25"/>
   </g>
   <g id="patch_17">
    <path d="M 122.4 165.6 
L 129.6 165.6 
L 129.6 127.285487 
L 122.4 127.285487 
z
" clip-path="url(#pf2ac7fc7c9)" style="fill: #2ca02c; opacity: 0.25"/>
   </g>
   <g id="patch_18">
    <path d="M 129.6 165.6 
L 136.8 165.6 
L 136.8 149.44388 
L 129.6 149.44388 
z
" clip-path="url(#pf2ac7fc7c9)" style="fill: #2ca02c; opacity: 0.25"/>
   </g>
   <g id="patch_19">
    <path d="M 136.8 165.6 
L 144 165.6 
L 144 161.173323 
L 136.8 161.173323 
z
" clip-path="url(#pf2ac7fc7c9)" style="fill: #2ca02c; opacity: 0.25"/>
   </g>
   <g id="patch_20">
    <path d="M 144 165.6 
L 151.2 165.6 
L 151.2 164.774687 
L 144 164.774687 
z
" clip-path="url(#pf2ac7fc7c9)" style="fill: #2ca02c; opacity: 0.25"/>
   </g>
   <g id="patch_21">
    <path d="M 151.2 165.6 
L 158.4 165.6 
L 158.4 165.449943 
L 151.2 165.449943 
z
" clip-path="url(#pf2ac7fc7c9)" style="fill: #2ca02c; opacity: 0.25"/>
   </g>
   <g id="patch_22">
    <path d="M 14.4 165.6 
L 14.4 165.524972 
L 21.6 165.524972 
L 21.6 165.12482 
L 28.8 165.12482 
L 28.8 163.874346 
L 36 163.874346 
L 36 161.948617 
L 43.2 161.948617 
L 43.2 156.721637 
L 50.4 156.721637 
L 50.4 146.967942 
L 57.6 146.967942 
L 57.6 131.362031 
L 64.8 131.362031 
L 64.8 110.229026 
L 72 110.229026 
L 72 79.767488 
L 79.2 79.767488 
L 79.2 50.931565 
L 86.4 50.931565 
L 86.4 27.297613 
L 93.6 27.297613 
L 93.6 14.742857 
L 100.8 14.742857 
L 100.8 22.920955 
L 108 22.920955 
L 108 51.031603 
L 115.2 51.031603 
L 115.2 95.048276 
L 122.4 95.048276 
L 122.4 127.285487 
L 129.6 127.285487 
L 129.6 149.44388 
L 136.8 149.44388 
L 136.8 161.173323 
L 144 161.173323 
L 144 164.774687 
L 151.2 164.774687 
L 151.2 165.449943 
L 158.4 165.449943 
L 158.4 165.6 
" clip-path="url(#pf2ac7fc7c9)" style="fill: none; stroke: #2ca02c; stroke-width: 3; stroke-linejoin: miter"/>
   </g>
  </g>
 </g>
 <defs>
  <clipPath id="pf2ac7fc7c9">
   <rect x="7.2" y="7.2" width="158.4" height="158.4"/>
  </clipPath>
 </defs>
</svg>
