<?xml version="1.0" encoding="utf-8" standalone="no"?>
<!DOCTYPE svg PUBLIC "-//W3C//DTD SVG 1.1//EN"
  "http://www.w3.org/Graphics/SVG/1.1/DTD/svg11.dtd">
<svg xmlns:xlink="http://www.w3.org/1999/xlink" width="172.8pt" height="172.8pt" viewBox="0 0 172.8 172.8" xmlns="http://www.w3.org/2000/svg" version="1.1">
 <metadata>
  <rdf:RDF xmlns:dc="http://purl.org/dc/elements/1.1/" xmlns:cc="http://creativecommons.org/ns#" xmlns:rdf="http://www.w3.org/1999/02/22-rdf-syntax-ns#">
   <cc:Work>
    <dc:type rdf:resource="http://purl.org/dc/dcmitype/StillImage"/>
    <dc:date>2024-06-27T23:09:48.450452</dc:date>
    <dc:format>image/svg+xml</dc:format>
    <dc:creator>
     <cc:Agent>
      <dc:title>Matplotlib v3.9.0, https://matplotlib.org/</dc:title>
     </cc:Agent>
    </dc:creator>
   </cc:Work>
  </rdf:RDF>
 </metadata>
 <defs>
  <style type="text/css">*{stroke-linejoin: round; stroke-linecap: butt}</style>
 </defs>
 <g id="figure_1">
  <g id="patch_1">
   <path d="M 0 172.8 
L 172.8 172.8 
L 172.8 0 
L 0 0 
z
" style="fill: #ffffff"/>
  </g>
  <g id="axes_1">
   <g id="patch_2">
    <path d="M 14.4 165.6 
L 21.6 165.6 
L 21.6 165.408314 
L 14.4 165.408314 
z
" clip-path="url(#p240cfda800)" style="fill: #ff7f0e; opacity: 0.25"/>
   </g>
   <g id="patch_3">
    <path d="M 21.6 165.6 
L 28.8 165.6 
L 28.8 164.977019 
L 21.6 164.977019 
z
" clip-path="url(#p240cfda800)" style="fill: #ff7f0e; opacity: 0.25"/>
   </g>
   <g id="patch_4">
    <path d="M 28.8 165.6 
L 36 165.6 
L 36 163.203921 
L 28.8 163.203921 
z
" clip-path="url(#p240cfda800)" style="fill: #ff7f0e; opacity: 0.25"/>
   </g>
   <g id="patch_5">
    <path d="M 36 165.6 
L 43.2 165.6 
L 43.2 161.023489 
L 36 161.023489 
z
" clip-path="url(#p240cfda800)" style="fill: #ff7f0e; opacity: 0.25"/>
   </g>
   <g id="patch_6">
    <path d="M 43.2 165.6 
L 50.4 165.6 
L 50.4 155.943801 
L 43.2 155.943801 
z
" clip-path="url(#p240cfda800)" style="fill: #ff7f0e; opacity: 0.25"/>
   </g>
   <g id="patch_7">
    <path d="M 50.4 165.6 
L 57.6 165.6 
L 57.6 147.246034 
L 50.4 147.246034 
z
" clip-path="url(#p240cfda800)" style="fill: #ff7f0e; opacity: 0.25"/>
   </g>
   <g id="patch_8">
    <path d="M 57.6 165.6 
L 64.8 165.6 
L 64.8 132.174696 
L 57.6 132.174696 
z
" clip-path="url(#p240cfda800)" style="fill: #ff7f0e; opacity: 0.25"/>
   </g>
   <g id="patch_9">
    <path d="M 64.8 165.6 
L 72 165.6 
L 72 108.765003 
L 64.8 108.765003 
z
" clip-path="url(#p240cfda800)" style="fill: #ff7f0e; opacity: 0.25"/>
   </g>
   <g id="patch_10">
    <path d="M 72 165.6 
L 79.2 165.6 
L 79.2 73.87809 
L 72 73.87809 
z
" clip-path="url(#p240cfda800)" style="fill: #ff7f0e; opacity: 0.25"/>
   </g>
   <g id="patch_11">
    <path d="M 79.2 165.6 
L 86.4 165.6 
L 86.4 40.908041 
L 79.2 40.908041 
z
" clip-path="url(#p240cfda800)" style="fill: #ff7f0e; opacity: 0.25"/>
   </g>
   <g id="patch_12">
    <path d="M 86.4 165.6 
L 93.6 165.6 
L 93.6 14.742857 
L 86.4 14.742857 
z
" clip-path="url(#p240cfda800)" style="fill: #ff7f0e; opacity: 0.25"/>
   </g>
   <g id="patch_13">
    <path d="M 93.6 165.6 
L 100.8 165.6 
L 100.8 16.875368 
L 93.6 16.875368 
z
" clip-path="url(#p240cfda800)" style="fill: #ff7f0e; opacity: 0.25"/>
   </g>
   <g id="patch_14">
    <path d="M 100.8 165.6 
L 108 165.6 
L 108 39.087021 
L 100.8 39.087021 
z
" clip-path="url(#p240cfda800)" style="fill: #ff7f0e; opacity: 0.25"/>
   </g>
   <g id="patch_15">
    <path d="M 108 165.6 
L 115.2 165.6 
L 115.2 73.710365 
L 108 73.710365 
z
" clip-path="url(#p240cfda800)" style="fill: #ff7f0e; opacity: 0.25"/>
   </g>
   <g id="patch_16">
    <path d="M 115.2 165.6 
L 122.4 165.6 
L 122.4 111.209003 
L 115.2 111.209003 
z
" clip-path="url(#p240cfda800)" style="fill: #ff7f0e; opacity: 0.25"/>
   </g>
   <g id="patch_17">
    <path d="M 122.4 165.6 
L 129.6 165.6 
L 129.6 139.051443 
L 122.4 139.051443 
z
" clip-path="url(#p240cfda800)" style="fill: #ff7f0e; opacity: 0.25"/>
   </g>
   <g id="patch_18">
    <path d="M 129.6 165.6 
L 136.8 165.6 
L 136.8 154.482193 
L 129.6 154.482193 
z
" clip-path="url(#p240cfda800)" style="fill: #ff7f0e; opacity: 0.25"/>
   </g>
   <g id="patch_19">
    <path d="M 136.8 165.6 
L 144 165.6 
L 144 161.143293 
L 136.8 161.143293 
z
" clip-path="url(#p240cfda800)" style="fill: #ff7f0e; opacity: 0.25"/>
   </g>
   <g id="patch_20">
    <path d="M 144 165.6 
L 151.2 165.6 
L 151.2 164.617608 
L 144 164.617608 
z
" clip-path="url(#p240cfda800)" style="fill: #ff7f0e; opacity: 0.25"/>
   </g>
   <g id="patch_21">
    <path d="M 151.2 165.6 
L 158.4 165.6 
L 158.4 165.120784 
L 151.2 165.120784 
z
" clip-path="url(#p240cfda800)" style="fill: #ff7f0e; opacity: 0.25"/>
   </g>
   <g id="patch_22">
    <path d="M 14.4 165.6 
L 14.4 165.408314 
L 21.6 165.408314 
L 21.6 164.977019 
L 28.8 164.977019 
L 28.8 163.203921 
L 36 163.203921 
L 36 161.023489 
L 43.2 161.023489 
L 43.2 155.943801 
L 50.4 155.943801 
L 50.4 147.246034 
L 57.6 147.246034 
L 57.6 132.174696 
L 64.8 132.174696 
L 64.8 108.765003 
L 72 108.765003 
L 72 73.87809 
L 79.2 73.87809 
L 79.2 40.908041 
L 86.4 40.908041 
L 86.4 14.742857 
L 93.6 14.742857 
L 93.6 16.875368 
L 100.8 16.875368 
L 100.8 39.087021 
L 108 39.087021 
L 108 73.710365 
L 115.2 73.710365 
L 115.2 111.209003 
L 122.4 111.209003 
L 122.4 139.051443 
L 129.6 139.051443 
L 129.6 154.482193 
L 136.8 154.482193 
L 136.8 161.143293 
L 144 161.143293 
L 144 164.617608 
L 151.2 164.617608 
L 151.2 165.120784 
L 158.4 165.120784 
L 158.4 165.6 
" clip-path="url(#p240cfda800)" style="fill: none; stroke: #ff7f0e; stroke-width: 3; stroke-linejoin: miter"/>
   </g>
  </g>
 </g>
 <defs>
  <clipPath id="p240cfda800">
   <rect x="7.2" y="7.2" width="158.4" height="158.4"/>
  </clipPath>
 </defs>
</svg>
