<?xml version="1.0" encoding="utf-8" standalone="no"?>
<!DOCTYPE svg PUBLIC "-//W3C//DTD SVG 1.1//EN"
  "http://www.w3.org/Graphics/SVG/1.1/DTD/svg11.dtd">
<svg xmlns:xlink="http://www.w3.org/1999/xlink" width="172.8pt" height="172.8pt" viewBox="0 0 172.8 172.8" xmlns="http://www.w3.org/2000/svg" version="1.1">
 <metadata>
  <rdf:RDF xmlns:dc="http://purl.org/dc/elements/1.1/" xmlns:cc="http://creativecommons.org/ns#" xmlns:rdf="http://www.w3.org/1999/02/22-rdf-syntax-ns#">
   <cc:Work>
    <dc:type rdf:resource="http://purl.org/dc/dcmitype/StillImage"/>
    <dc:date>2024-06-27T23:09:52.069011</dc:date>
    <dc:format>image/svg+xml</dc:format>
    <dc:creator>
     <cc:Agent>
      <dc:title>Matplotlib v3.9.0, https://matplotlib.org/</dc:title>
     </cc:Agent>
    </dc:creator>
   </cc:Work>
  </rdf:RDF>
 </metadata>
 <defs>
  <style type="text/css">*{stroke-linejoin: round; stroke-linecap: butt}</style>
 </defs>
 <g id="figure_1">
  <g id="patch_1">
   <path d="M 0 172.8 
L 172.8 172.8 
L 172.8 0 
L 0 0 
z
" style="fill: #ffffff"/>
  </g>
  <g id="axes_1">
   <g id="patch_2">
    <path d="M 14.4 165.6 
L 21.6 165.6 
L 21.6 163.038089 
L 14.4 163.038089 
z
" clip-path="url(#p1cfacaea70)" style="fill: #1f77b4; opacity: 0.25"/>
   </g>
   <g id="patch_3">
    <path d="M 21.6 165.6 
L 28.8 165.6 
L 28.8 158.538322 
L 21.6 158.538322 
z
" clip-path="url(#p1cfacaea70)" style="fill: #1f77b4; opacity: 0.25"/>
   </g>
   <g id="patch_4">
    <path d="M 28.8 165.6 
L 36 165.6 
L 36 148.422058 
L 28.8 148.422058 
z
" clip-path="url(#p1cfacaea70)" style="fill: #1f77b4; opacity: 0.25"/>
   </g>
   <g id="patch_5">
    <path d="M 36 165.6 
L 43.2 165.6 
L 43.2 130.981357 
L 36 130.981357 
z
" clip-path="url(#p1cfacaea70)" style="fill: #1f77b4; opacity: 0.25"/>
   </g>
   <g id="patch_6">
    <path d="M 43.2 165.6 
L 50.4 165.6 
L 50.4 107.365793 
L 43.2 107.365793 
z
" clip-path="url(#p1cfacaea70)" style="fill: #1f77b4; opacity: 0.25"/>
   </g>
   <g id="patch_7">
    <path d="M 50.4 165.6 
L 57.6 165.6 
L 57.6 80.465727 
L 50.4 80.465727 
z
" clip-path="url(#p1cfacaea70)" style="fill: #1f77b4; opacity: 0.25"/>
   </g>
   <g id="patch_8">
    <path d="M 57.6 165.6 
L 64.8 165.6 
L 64.8 53.959802 
L 57.6 53.959802 
z
" clip-path="url(#p1cfacaea70)" style="fill: #1f77b4; opacity: 0.25"/>
   </g>
   <g id="patch_9">
    <path d="M 64.8 165.6 
L 72 165.6 
L 72 31.493814 
L 64.8 31.493814 
z
" clip-path="url(#p1cfacaea70)" style="fill: #1f77b4; opacity: 0.25"/>
   </g>
   <g id="patch_10">
    <path d="M 72 165.6 
L 79.2 165.6 
L 79.2 19.505384 
L 72 19.505384 
z
" clip-path="url(#p1cfacaea70)" style="fill: #1f77b4; opacity: 0.25"/>
   </g>
   <g id="patch_11">
    <path d="M 79.2 165.6 
L 86.4 165.6 
L 86.4 14.742857 
L 79.2 14.742857 
z
" clip-path="url(#p1cfacaea70)" style="fill: #1f77b4; opacity: 0.25"/>
   </g>
   <g id="patch_12">
    <path d="M 86.4 165.6 
L 93.6 165.6 
L 93.6 24.727741 
L 86.4 24.727741 
z
" clip-path="url(#p1cfacaea70)" style="fill: #1f77b4; opacity: 0.25"/>
   </g>
   <g id="patch_13">
    <path d="M 93.6 165.6 
L 100.8 165.6 
L 100.8 40.296277 
L 93.6 40.296277 
z
" clip-path="url(#p1cfacaea70)" style="fill: #1f77b4; opacity: 0.25"/>
   </g>
   <g id="patch_14">
    <path d="M 100.8 165.6 
L 108 165.6 
L 108 62.860801 
L 100.8 62.860801 
z
" clip-path="url(#p1cfacaea70)" style="fill: #1f77b4; opacity: 0.25"/>
   </g>
   <g id="patch_15">
    <path d="M 108 165.6 
L 115.2 165.6 
L 115.2 88.67698 
L 108 88.67698 
z
" clip-path="url(#p1cfacaea70)" style="fill: #1f77b4; opacity: 0.25"/>
   </g>
   <g id="patch_16">
    <path d="M 115.2 165.6 
L 122.4 165.6 
L 122.4 108.482523 
L 115.2 108.482523 
z
" clip-path="url(#p1cfacaea70)" style="fill: #1f77b4; opacity: 0.25"/>
   </g>
   <g id="patch_17">
    <path d="M 122.4 165.6 
L 129.6 165.6 
L 129.6 130.291611 
L 122.4 130.291611 
z
" clip-path="url(#p1cfacaea70)" style="fill: #1f77b4; opacity: 0.25"/>
   </g>
   <g id="patch_18">
    <path d="M 129.6 165.6 
L 136.8 165.6 
L 136.8 147.272483 
L 129.6 147.272483 
z
" clip-path="url(#p1cfacaea70)" style="fill: #1f77b4; opacity: 0.25"/>
   </g>
   <g id="patch_19">
    <path d="M 136.8 165.6 
L 144 165.6 
L 144 158.932462 
L 136.8 158.932462 
z
" clip-path="url(#p1cfacaea70)" style="fill: #1f77b4; opacity: 0.25"/>
   </g>
   <g id="patch_20">
    <path d="M 144 165.6 
L 151.2 165.6 
L 151.2 162.939554 
L 144 162.939554 
z
" clip-path="url(#p1cfacaea70)" style="fill: #1f77b4; opacity: 0.25"/>
   </g>
   <g id="patch_21">
    <path d="M 151.2 165.6 
L 158.4 165.6 
L 158.4 165.20586 
L 151.2 165.20586 
z
" clip-path="url(#p1cfacaea70)" style="fill: #1f77b4; opacity: 0.25"/>
   </g>
   <g id="patch_22">
    <path d="M 14.4 165.6 
L 14.4 163.038089 
L 21.6 163.038089 
L 21.6 158.538322 
L 28.8 158.538322 
L 28.8 148.422058 
L 36 148.422058 
L 36 130.981357 
L 43.2 130.981357 
L 43.2 107.365793 
L 50.4 107.365793 
L 50.4 80.465727 
L 57.6 80.465727 
L 57.6 53.959802 
L 64.8 53.959802 
L 64.8 31.493814 
L 72 31.493814 
L 72 19.505384 
L 79.2 19.505384 
L 79.2 14.742857 
L 86.4 14.742857 
L 86.4 24.727741 
L 93.6 24.727741 
L 93.6 40.296277 
L 100.8 40.296277 
L 100.8 62.860801 
L 108 62.860801 
L 108 88.67698 
L 115.2 88.67698 
L 115.2 108.482523 
L 122.4 108.482523 
L 122.4 130.291611 
L 129.6 130.291611 
L 129.6 147.272483 
L 136.8 147.272483 
L 136.8 158.932462 
L 144 158.932462 
L 144 162.939554 
L 151.2 162.939554 
L 151.2 165.20586 
L 158.4 165.20586 
L 158.4 165.6 
" clip-path="url(#p1cfacaea70)" style="fill: none; stroke: #1f77b4; stroke-width: 3; stroke-linejoin: miter"/>
   </g>
  </g>
 </g>
 <defs>
  <clipPath id="p1cfacaea70">
   <rect x="7.2" y="7.2" width="158.4" height="158.4"/>
  </clipPath>
 </defs>
</svg>
