<?xml version="1.0" encoding="utf-8" standalone="no"?>
<!DOCTYPE svg PUBLIC "-//W3C//DTD SVG 1.1//EN"
  "http://www.w3.org/Graphics/SVG/1.1/DTD/svg11.dtd">
<svg xmlns:xlink="http://www.w3.org/1999/xlink" width="172.8pt" height="172.8pt" viewBox="0 0 172.8 172.8" xmlns="http://www.w3.org/2000/svg" version="1.1">
 <metadata>
  <rdf:RDF xmlns:dc="http://purl.org/dc/elements/1.1/" xmlns:cc="http://creativecommons.org/ns#" xmlns:rdf="http://www.w3.org/1999/02/22-rdf-syntax-ns#">
   <cc:Work>
    <dc:type rdf:resource="http://purl.org/dc/dcmitype/StillImage"/>
    <dc:date>2024-06-27T23:09:51.528705</dc:date>
    <dc:format>image/svg+xml</dc:format>
    <dc:creator>
     <cc:Agent>
      <dc:title>Matplotlib v3.9.0, https://matplotlib.org/</dc:title>
     </cc:Agent>
    </dc:creator>
   </cc:Work>
  </rdf:RDF>
 </metadata>
 <defs>
  <style type="text/css">*{stroke-linejoin: round; stroke-linecap: butt}</style>
 </defs>
 <g id="figure_1">
  <g id="patch_1">
   <path d="M 0 172.8 
L 172.8 172.8 
L 172.8 0 
L 0 0 
z
" style="fill: #ffffff"/>
  </g>
  <g id="axes_1">
   <g id="patch_2">
    <path d="M 14.4 165.6 
L 21.6 165.6 
L 21.6 165.560529 
L 14.4 165.560529 
z
" clip-path="url(#pbd046812fb)" style="fill: #2ca02c; opacity: 0.25"/>
   </g>
   <g id="patch_3">
    <path d="M 21.6 165.6 
L 28.8 165.6 
L 28.8 165.540794 
L 21.6 165.540794 
z
" clip-path="url(#pbd046812fb)" style="fill: #2ca02c; opacity: 0.25"/>
   </g>
   <g id="patch_4">
    <path d="M 28.8 165.6 
L 36 165.6 
L 36 165.521059 
L 28.8 165.521059 
z
" clip-path="url(#pbd046812fb)" style="fill: #2ca02c; opacity: 0.25"/>
   </g>
   <g id="patch_5">
    <path d="M 36 165.6 
L 43.2 165.6 
L 43.2 165.422382 
L 36 165.422382 
z
" clip-path="url(#pbd046812fb)" style="fill: #2ca02c; opacity: 0.25"/>
   </g>
   <g id="patch_6">
    <path d="M 43.2 165.6 
L 50.4 165.6 
L 50.4 165.08688 
L 43.2 165.08688 
z
" clip-path="url(#pbd046812fb)" style="fill: #2ca02c; opacity: 0.25"/>
   </g>
   <g id="patch_7">
    <path d="M 50.4 165.6 
L 57.6 165.6 
L 57.6 164.830321 
L 50.4 164.830321 
z
" clip-path="url(#pbd046812fb)" style="fill: #2ca02c; opacity: 0.25"/>
   </g>
   <g id="patch_8">
    <path d="M 57.6 165.6 
L 64.8 165.6 
L 64.8 163.547522 
L 57.6 163.547522 
z
" clip-path="url(#pbd046812fb)" style="fill: #2ca02c; opacity: 0.25"/>
   </g>
   <g id="patch_9">
    <path d="M 64.8 165.6 
L 72 165.6 
L 72 162.323929 
L 64.8 162.323929 
z
" clip-path="url(#pbd046812fb)" style="fill: #2ca02c; opacity: 0.25"/>
   </g>
   <g id="patch_10">
    <path d="M 72 165.6 
L 79.2 165.6 
L 79.2 158.238708 
L 72 158.238708 
z
" clip-path="url(#pbd046812fb)" style="fill: #2ca02c; opacity: 0.25"/>
   </g>
   <g id="patch_11">
    <path d="M 79.2 165.6 
L 86.4 165.6 
L 86.4 151.07477 
L 79.2 151.07477 
z
" clip-path="url(#pbd046812fb)" style="fill: #2ca02c; opacity: 0.25"/>
   </g>
   <g id="patch_12">
    <path d="M 86.4 165.6 
L 93.6 165.6 
L 93.6 138.996726 
L 86.4 138.996726 
z
" clip-path="url(#pbd046812fb)" style="fill: #2ca02c; opacity: 0.25"/>
   </g>
   <g id="patch_13">
    <path d="M 93.6 165.6 
L 100.8 165.6 
L 100.8 120.208657 
L 93.6 120.208657 
z
" clip-path="url(#pbd046812fb)" style="fill: #2ca02c; opacity: 0.25"/>
   </g>
   <g id="patch_14">
    <path d="M 100.8 165.6 
L 108 165.6 
L 108 90.960843 
L 100.8 90.960843 
z
" clip-path="url(#pbd046812fb)" style="fill: #2ca02c; opacity: 0.25"/>
   </g>
   <g id="patch_15">
    <path d="M 108 165.6 
L 115.2 165.6 
L 115.2 55.53586 
L 108 55.53586 
z
" clip-path="url(#pbd046812fb)" style="fill: #2ca02c; opacity: 0.25"/>
   </g>
   <g id="patch_16">
    <path d="M 115.2 165.6 
L 122.4 165.6 
L 122.4 27.097197 
L 115.2 27.097197 
z
" clip-path="url(#pbd046812fb)" style="fill: #2ca02c; opacity: 0.25"/>
   </g>
   <g id="patch_17">
    <path d="M 122.4 165.6 
L 129.6 165.6 
L 129.6 14.742857 
L 122.4 14.742857 
z
" clip-path="url(#pbd046812fb)" style="fill: #2ca02c; opacity: 0.25"/>
   </g>
   <g id="patch_18">
    <path d="M 129.6 165.6 
L 136.8 165.6 
L 136.8 45.510294 
L 129.6 45.510294 
z
" clip-path="url(#pbd046812fb)" style="fill: #2ca02c; opacity: 0.25"/>
   </g>
   <g id="patch_19">
    <path d="M 136.8 165.6 
L 144 165.6 
L 144 97.078807 
L 136.8 97.078807 
z
" clip-path="url(#pbd046812fb)" style="fill: #2ca02c; opacity: 0.25"/>
   </g>
   <g id="patch_20">
    <path d="M 144 165.6 
L 151.2 165.6 
L 151.2 142.785916 
L 144 142.785916 
z
" clip-path="url(#pbd046812fb)" style="fill: #2ca02c; opacity: 0.25"/>
   </g>
   <g id="patch_21">
    <path d="M 151.2 165.6 
L 158.4 165.6 
L 158.4 162.521283 
L 151.2 162.521283 
z
" clip-path="url(#pbd046812fb)" style="fill: #2ca02c; opacity: 0.25"/>
   </g>
   <g id="patch_22">
    <path d="M 14.4 165.6 
L 14.4 165.560529 
L 21.6 165.560529 
L 21.6 165.540794 
L 28.8 165.540794 
L 28.8 165.521059 
L 36 165.521059 
L 36 165.422382 
L 43.2 165.422382 
L 43.2 165.08688 
L 50.4 165.08688 
L 50.4 164.830321 
L 57.6 164.830321 
L 57.6 163.547522 
L 64.8 163.547522 
L 64.8 162.323929 
L 72 162.323929 
L 72 158.238708 
L 79.2 158.238708 
L 79.2 151.07477 
L 86.4 151.07477 
L 86.4 138.996726 
L 93.6 138.996726 
L 93.6 120.208657 
L 100.8 120.208657 
L 100.8 90.960843 
L 108 90.960843 
L 108 55.53586 
L 115.2 55.53586 
L 115.2 27.097197 
L 122.4 27.097197 
L 122.4 14.742857 
L 129.6 14.742857 
L 129.6 45.510294 
L 136.8 45.510294 
L 136.8 97.078807 
L 144 97.078807 
L 144 142.785916 
L 151.2 142.785916 
L 151.2 162.521283 
L 158.4 162.521283 
L 158.4 165.6 
" clip-path="url(#pbd046812fb)" style="fill: none; stroke: #2ca02c; stroke-width: 3; stroke-linejoin: miter"/>
   </g>
  </g>
 </g>
 <defs>
  <clipPath id="pbd046812fb">
   <rect x="7.2" y="7.2" width="158.4" height="158.4"/>
  </clipPath>
 </defs>
</svg>
